<svg xmlns="http://www.w3.org/2000/svg" xmlns:xlink="http://www.w3.org/1999/xlink" width="62" zoomAndPan="magnify" viewBox="0 0 46.5 47.25" height="63" preserveAspectRatio="xMidYMid meet" version="1.0"><defs><clipPath id="0dc3ce7724"><path d="M 0.117188 10 L 35 10 L 35 39.867188 L 0.117188 39.867188 Z M 0.117188 10 " clip-rule="nonzero"/></clipPath><clipPath id="1705652622"><path d="M 18 0 L 45.152344 0 L 45.152344 27 L 18 27 Z M 18 0 " clip-rule="nonzero"/></clipPath></defs><g clip-path="url(#0dc3ce7724)"><path fill="#bff747" d="M 33.230469 21.886719 C 32.796875 21.886719 32.449219 22.238281 32.449219 22.667969 L 32.449219 28.582031 L 1.683594 28.582031 L 1.683594 13.582031 C 1.683594 12.554688 2.523438 11.71875 3.558594 11.71875 L 16.160156 11.71875 C 16.59375 11.71875 16.941406 11.367188 16.941406 10.9375 C 16.941406 10.507812 16.59375 10.15625 16.160156 10.15625 L 3.558594 10.15625 C 1.660156 10.15625 0.121094 11.691406 0.121094 13.582031 L 0.121094 31.285156 C 0.121094 33.183594 1.660156 34.722656 3.558594 34.722656 L 12.914062 34.722656 L 12.914062 38.429688 L 10.539062 38.429688 C 10.109375 38.429688 9.757812 38.777344 9.757812 39.210938 C 9.757812 39.640625 10.109375 39.992188 10.539062 39.992188 L 23.585938 39.992188 C 24.019531 39.992188 24.367188 39.640625 24.367188 39.210938 C 24.367188 38.777344 24.019531 38.429688 23.585938 38.429688 L 21.214844 38.429688 L 21.214844 34.722656 L 30.574219 34.722656 C 32.46875 34.722656 34.007812 33.183594 34.007812 31.285156 L 34.007812 22.667969 C 34.007812 22.238281 33.660156 21.886719 33.230469 21.886719 Z M 19.652344 38.429688 L 14.476562 38.429688 L 14.476562 34.722656 L 19.652344 34.722656 Z M 30.574219 33.160156 L 3.558594 33.160156 C 2.523438 33.160156 1.683594 32.320312 1.683594 31.285156 L 1.683594 30.144531 L 32.449219 30.144531 L 32.449219 31.285156 C 32.449219 32.320312 31.605469 33.160156 30.574219 33.160156 Z M 30.574219 33.160156 " fill-opacity="1" fill-rule="nonzero"/></g><g clip-path="url(#1705652622)"><path fill="#bff747" d="M 44.078125 20.304688 L 37.382812 14.542969 C 38.097656 13.167969 38.511719 11.609375 38.511719 9.953125 C 38.511719 4.464844 34.046875 0 28.554688 0 C 23.066406 0 18.597656 4.464844 18.597656 9.953125 C 18.597656 15.445312 23.066406 19.910156 28.554688 19.910156 C 30.210938 19.910156 31.773438 19.5 33.148438 18.78125 L 38.910156 25.46875 C 39.570312 26.238281 40.527344 26.703125 41.542969 26.738281 C 41.589844 26.742188 41.632812 26.742188 41.679688 26.742188 C 42.648438 26.742188 43.585938 26.355469 44.273438 25.667969 C 44.992188 24.953125 45.378906 23.960938 45.34375 22.949219 C 45.308594 21.9375 44.847656 20.972656 44.078125 20.304688 Z M 20.160156 9.953125 C 20.160156 5.324219 23.925781 1.558594 28.554688 1.558594 C 33.183594 1.558594 36.949219 5.324219 36.949219 9.953125 C 36.949219 14.585938 33.183594 18.351562 28.554688 18.351562 C 23.925781 18.351562 20.160156 14.585938 20.160156 9.953125 Z M 43.171875 24.5625 C 42.75 24.984375 42.199219 25.207031 41.601562 25.179688 C 41.015625 25.15625 40.480469 24.898438 40.097656 24.449219 L 34.480469 17.9375 C 35.261719 17.355469 35.957031 16.664062 36.535156 15.878906 L 43.054688 21.488281 C 43.503906 21.875 43.761719 22.414062 43.78125 23.007812 C 43.804688 23.59375 43.585938 24.148438 43.171875 24.5625 Z M 43.171875 24.5625 " fill-opacity="1" fill-rule="nonzero"/></g><path fill="#bff747" d="M 34.910156 9.953125 C 34.910156 6.449219 32.058594 3.597656 28.554688 3.597656 C 28.125 3.597656 27.773438 3.949219 27.773438 4.378906 C 27.773438 4.808594 28.125 5.160156 28.554688 5.160156 C 31.199219 5.160156 33.347656 7.3125 33.347656 9.953125 C 33.347656 10.386719 33.699219 10.734375 34.128906 10.734375 C 34.5625 10.734375 34.910156 10.386719 34.910156 9.953125 Z M 34.910156 9.953125 " fill-opacity="1" fill-rule="nonzero"/><path fill="#bff747" d="M 15.183594 19.875 L 13.75 22.832031 L 11.878906 15.121094 C 11.800781 14.800781 11.527344 14.5625 11.203125 14.527344 C 10.875 14.492188 10.558594 14.667969 10.414062 14.964844 L 8.242188 19.433594 L 4.664062 19.433594 C 4.234375 19.433594 3.886719 19.785156 3.886719 20.214844 C 3.886719 20.648438 4.234375 20.996094 4.664062 20.996094 L 8.734375 20.996094 C 9.03125 20.996094 9.304688 20.828125 9.4375 20.558594 L 10.871094 17.601562 L 12.742188 25.3125 C 12.820312 25.632812 13.089844 25.871094 13.417969 25.90625 C 13.445312 25.910156 13.472656 25.910156 13.503906 25.910156 C 13.796875 25.910156 14.074219 25.742188 14.207031 25.46875 L 16.378906 20.996094 L 19.953125 20.996094 C 20.386719 20.996094 20.734375 20.648438 20.734375 20.214844 C 20.734375 19.785156 20.386719 19.433594 19.953125 19.433594 L 15.886719 19.433594 C 15.589844 19.433594 15.316406 19.605469 15.183594 19.875 Z M 15.183594 19.875 " fill-opacity="1" fill-rule="nonzero"/></svg>