<svg xmlns="http://www.w3.org/2000/svg" xmlns:xlink="http://www.w3.org/1999/xlink" width="85" zoomAndPan="magnify" viewBox="0 0 63.75 42" height="56" preserveAspectRatio="xMidYMid meet" version="1.0"><defs><clipPath id="fd4ed9b13b"><path d="M 0.621094 14 L 26 14 L 26 36 L 0.621094 36 Z M 0.621094 14 " clip-rule="nonzero"/></clipPath><clipPath id="9c2f8ed4d2"><path d="M 29 14 L 62.152344 14 L 62.152344 39.667969 L 29 39.667969 Z M 29 14 " clip-rule="nonzero"/></clipPath></defs><g clip-path="url(#fd4ed9b13b)"><path fill="#bff747" d="M 7.910156 27.046875 C 6.546875 26.488281 5.253906 25.8125 4.203125 24.878906 C 3.140625 23.972656 2.335938 22.796875 2.191406 21.453125 C 1.988281 20.109375 2.5625 18.667969 3.53125 17.515625 C 4.492188 16.34375 5.785156 15.410156 7.160156 14.640625 C 5.683594 15.1875 4.234375 15.910156 3 17.003906 C 1.773438 18.070312 0.753906 19.648438 0.710938 21.492188 C 0.617188 23.335938 1.472656 25.09375 2.601562 26.414062 C 3.722656 27.777344 5.132812 28.8125 6.566406 29.683594 C 9.460938 31.429688 12.675781 32.523438 15.867188 33.308594 C 19.066406 34.097656 22.285156 34.582031 25.402344 35.058594 L 25.84375 29.160156 C 22.683594 29.171875 19.613281 29.1875 16.601562 28.933594 C 13.597656 28.675781 10.640625 28.15625 7.910156 27.046875 " fill-opacity="1" fill-rule="nonzero"/></g><g clip-path="url(#9c2f8ed4d2)"><path fill="#bff747" d="M 61.859375 20.285156 C 61.472656 18.644531 60.375 17.375 59.175781 16.441406 C 57.976562 15.464844 56.558594 14.886719 55.183594 14.3125 C 56.480469 15.058594 57.789062 15.804688 58.796875 16.871094 C 59.820312 17.894531 60.605469 19.15625 60.734375 20.484375 C 60.882812 21.804688 60.371094 23.085938 59.519531 24.117188 C 58.671875 25.15625 57.539062 25.980469 56.335938 26.671875 C 53.878906 27.984375 51.082031 28.808594 48.269531 29.289062 C 46.183594 29.652344 44.058594 29.835938 41.921875 29.90625 L 41.796875 24.691406 L 29.203125 32.371094 L 42.148438 39.441406 L 42.023438 34.195312 C 47.453125 33.339844 52.914062 31.851562 57.578125 28.585938 C 58.851562 27.621094 60.050781 26.5 60.925781 25.09375 C 61.804688 23.710938 62.269531 21.921875 61.859375 20.285156 " fill-opacity="1" fill-rule="nonzero"/></g><path fill="#bff747" d="M 9.539062 21.691406 L 9.539062 19.585938 L 11.460938 17.847656 C 14.710938 14.941406 16.289062 13.269531 16.335938 11.53125 C 16.335938 10.320312 15.601562 9.359375 13.886719 9.359375 C 12.605469 9.359375 11.484375 10 10.703125 10.59375 L 9.71875 8.097656 C 10.84375 7.253906 12.582031 6.566406 14.59375 6.566406 C 17.960938 6.566406 19.8125 8.535156 19.8125 11.234375 C 19.8125 13.730469 18.003906 15.71875 15.855469 17.640625 L 14.480469 18.785156 L 14.480469 18.832031 L 20.085938 18.832031 L 20.085938 21.691406 L 9.539062 21.691406 " fill-opacity="1" fill-rule="nonzero"/><path fill="#bff747" d="M 28.394531 15.535156 L 28.394531 12.242188 C 28.394531 11.347656 28.441406 10.433594 28.507812 9.472656 L 28.417969 9.472656 C 27.9375 10.433594 27.546875 11.304688 27.042969 12.242188 L 25.054688 15.492188 L 25.054688 15.535156 Z M 28.394531 21.691406 L 28.394531 18.144531 L 21.804688 18.144531 L 21.804688 15.878906 L 27.433594 6.816406 L 31.691406 6.816406 L 31.691406 15.535156 L 33.476562 15.535156 L 33.476562 18.144531 L 31.691406 18.144531 L 31.691406 21.691406 L 28.394531 21.691406 " fill-opacity="1" fill-rule="nonzero"/><path fill="#bff747" d="M 34.34375 22.609375 L 39.242188 6.015625 L 41.554688 6.015625 L 36.65625 22.609375 L 34.34375 22.609375 " fill-opacity="1" fill-rule="nonzero"/><path fill="#bff747" d="M 53.179688 6.816406 L 53.179688 9.015625 L 47.046875 21.691406 L 43.359375 21.691406 L 49.492188 9.722656 L 49.492188 9.679688 L 42.675781 9.679688 L 42.675781 6.816406 L 53.179688 6.816406 " fill-opacity="1" fill-rule="nonzero"/></svg>