<svg xmlns="http://www.w3.org/2000/svg" xmlns:xlink="http://www.w3.org/1999/xlink" width="53" zoomAndPan="magnify" viewBox="0 0 39.75 42" height="56" preserveAspectRatio="xMidYMid meet" version="1.0"><defs><clipPath id="67310a1fd2"><path d="M 0.339844 0.53125 L 38.433594 0.53125 L 38.433594 40.089844 L 0.339844 40.089844 Z M 0.339844 0.53125 " clip-rule="nonzero"/></clipPath></defs><g clip-path="url(#67310a1fd2)"><path fill="#bff747" d="M 2.234375 11.894531 C 10.183594 15.105469 23.570312 15.105469 31.53125 11.894531 C 31.808594 11.785156 32.042969 11.59375 32.191406 11.34375 C 33.84375 8.714844 33.789062 6.113281 32.191406 3.496094 C 32.042969 3.234375 31.808594 3.039062 31.519531 2.929688 C 23.570312 -0.265625 10.195312 -0.265625 2.25 2.929688 C 1.972656 3.039062 1.742188 3.246094 1.574219 3.496094 C -0.0234375 6.125 -0.078125 8.726562 1.574219 11.34375 C 1.726562 11.59375 1.960938 11.785156 2.234375 11.894531 Z M 2.234375 22.914062 C 5.75 24.320312 10.320312 25.105469 15.015625 25.269531 C 16.132812 21.507812 18.820312 18.4375 22.289062 16.773438 C 20.539062 16.949219 18.734375 17.046875 16.875 17.046875 C 11.039062 17.046875 5.609375 16.152344 1.480469 14.539062 C 1.273438 14.457031 1.023438 14.554688 0.941406 14.773438 C -0.0078125 17.226562 0.199219 20.078125 1.574219 22.363281 C 1.726562 22.625 1.960938 22.816406 2.234375 22.929688 Z M 30.636719 25.078125 C 30.871094 25.808594 31.640625 26.191406 32.371094 25.972656 C 33.609375 25.574219 34.988281 25.585938 36.226562 26.011719 C 36.433594 26.082031 36.628906 26.109375 36.835938 26.109375 C 37.328125 26.109375 37.796875 25.917969 38.15625 25.546875 C 38.652344 25.035156 38.804688 24.292969 38.542969 23.628906 C 38.101562 22.472656 38.058594 21.082031 38.433594 19.910156 C 38.664062 19.183594 38.265625 18.410156 37.535156 18.175781 C 36.804688 17.941406 36.035156 18.34375 35.800781 19.070312 C 35.609375 19.664062 35.5 20.285156 35.441406 20.917969 C 33.460938 19.195312 30.898438 18.175781 28.210938 18.175781 C 22.136719 18.175781 17.195312 23.121094 17.195312 29.195312 C 17.195312 35.269531 22.136719 40.214844 28.210938 40.214844 C 32.082031 40.214844 35.71875 38.148438 37.703125 34.816406 C 38.085938 34.167969 37.867188 33.3125 37.21875 32.925781 C 36.558594 32.542969 35.71875 32.75 35.332031 33.410156 C 33.84375 35.917969 31.117188 37.457031 28.210938 37.457031 C 23.652344 37.457031 19.949219 33.753906 19.949219 29.195312 C 19.949219 24.636719 23.652344 20.929688 28.210938 20.929688 C 30.222656 20.929688 32.125 21.675781 33.609375 22.957031 C 32.910156 23.011719 32.207031 23.136719 31.53125 23.339844 C 30.800781 23.574219 30.402344 24.347656 30.636719 25.078125 Z M 14.496094 28.011719 C 9.425781 27.789062 4.714844 26.882812 1.105469 25.433594 C 0.859375 25.339844 0.582031 25.476562 0.542969 25.738281 C 0.0742188 28.339844 0.542969 31.039062 1.933594 33.160156 C 2.070312 33.367188 2.265625 33.535156 2.484375 33.628906 C 6.285156 35.394531 11.355469 36.289062 16.449219 36.34375 C 15.167969 34.25 14.425781 31.8125 14.425781 29.179688 C 14.425781 28.78125 14.453125 28.394531 14.480469 28.011719 Z M 14.496094 28.011719 " fill-opacity="1" fill-rule="nonzero"/></g></svg>