<svg xmlns="http://www.w3.org/2000/svg" xmlns:xlink="http://www.w3.org/1999/xlink" width="57" zoomAndPan="magnify" viewBox="0 0 42.75 42" height="56" preserveAspectRatio="xMidYMid meet" version="1.0"><defs><clipPath id="aff7834f46"><path d="M 0.375 0.53125 L 41.398438 0.53125 L 41.398438 40.089844 L 0.375 40.089844 Z M 0.375 0.53125 " clip-rule="nonzero"/></clipPath></defs><g clip-path="url(#aff7834f46)"><path fill="#bff747" d="M 19.660156 7.296875 C 19.441406 7.511719 19.308594 7.808594 19.308594 8.136719 C 19.308594 8.464844 19.441406 8.761719 19.660156 8.976562 C 19.875 9.195312 20.171875 9.328125 20.5 9.328125 L 21.523438 9.328125 C 22.175781 9.328125 22.765625 9.59375 23.191406 10.019531 C 23.621094 10.449219 23.886719 11.039062 23.886719 11.691406 C 23.886719 12.335938 23.621094 12.925781 23.191406 13.355469 L 23.191406 13.359375 C 22.777344 13.769531 22.214844 14.03125 21.59375 14.050781 L 21.59375 14.957031 C 21.59375 15.277344 21.335938 15.539062 21.011719 15.539062 C 20.691406 15.539062 20.429688 15.277344 20.429688 14.957031 L 20.429688 14.050781 C 19.808594 14.03125 19.246094 13.769531 18.832031 13.359375 C 18.40625 12.929688 18.140625 12.339844 18.140625 11.691406 C 18.140625 11.367188 18.402344 11.105469 18.722656 11.105469 C 19.046875 11.105469 19.308594 11.367188 19.308594 11.691406 C 19.308594 12.015625 19.441406 12.316406 19.660156 12.53125 C 19.875 12.746094 20.171875 12.882812 20.5 12.882812 L 21.523438 12.882812 C 21.855469 12.882812 22.152344 12.75 22.367188 12.535156 L 22.367188 12.53125 C 22.582031 12.316406 22.714844 12.019531 22.714844 11.691406 C 22.714844 11.363281 22.582031 11.066406 22.367188 10.847656 C 22.152344 10.632812 21.851562 10.496094 21.523438 10.496094 L 20.5 10.496094 C 19.851562 10.496094 19.257812 10.230469 18.832031 9.804688 C 18.40625 9.378906 18.140625 8.785156 18.140625 8.136719 C 18.140625 7.484375 18.40625 6.894531 18.832031 6.46875 C 19.246094 6.054688 19.808594 5.792969 20.429688 5.773438 L 20.429688 4.871094 C 20.429688 4.546875 20.691406 4.285156 21.011719 4.285156 C 21.335938 4.285156 21.59375 4.546875 21.59375 4.871094 L 21.59375 5.773438 C 22.214844 5.792969 22.777344 6.054688 23.191406 6.46875 C 23.621094 6.898438 23.886719 7.488281 23.886719 8.136719 C 23.886719 8.457031 23.625 8.71875 23.300781 8.71875 C 22.980469 8.71875 22.714844 8.457031 22.714844 8.136719 C 22.714844 7.808594 22.582031 7.507812 22.367188 7.292969 C 22.152344 7.078125 21.855469 6.945312 21.523438 6.945312 L 20.5 6.945312 C 20.171875 6.945312 19.875 7.078125 19.660156 7.296875 Z M 41.636719 19.03125 C 41.636719 19.832031 41.332031 20.636719 40.726562 21.242188 L 30.261719 31.707031 C 30.242188 31.726562 30.226562 31.742188 30.207031 31.757812 C 30.203125 31.761719 30.199219 31.765625 30.195312 31.769531 C 29.734375 32.242188 29.242188 32.695312 28.742188 33.070312 C 28.210938 33.46875 27.671875 33.777344 27.136719 33.945312 L 10.5625 38.117188 L 8.761719 39.988281 C 8.632812 40.125 8.457031 40.191406 8.285156 40.191406 L 1.046875 40.195312 C 0.683594 40.195312 0.386719 39.898438 0.386719 39.53125 L 0.386719 31.34375 C 0.375 31.160156 0.4375 30.96875 0.582031 30.828125 L 8.527344 22.878906 L 8.566406 22.839844 C 8.882812 22.535156 9.25 22.3125 9.640625 22.167969 C 10.066406 22.007812 10.515625 21.945312 10.957031 21.976562 C 10.972656 21.976562 10.992188 21.980469 11.011719 21.980469 L 25.347656 21.96875 L 33.253906 14.0625 C 33.863281 13.453125 34.664062 13.148438 35.464844 13.148438 L 35.464844 13.152344 C 36.265625 13.152344 37.066406 13.457031 37.675781 14.0625 L 37.679688 14.0625 C 38.042969 14.429688 38.300781 14.851562 38.449219 15.308594 C 38.515625 15.503906 38.558594 15.707031 38.578125 15.910156 C 39.359375 15.925781 40.132812 16.230469 40.722656 16.820312 L 40.726562 16.824219 C 41.332031 17.429688 41.636719 18.230469 41.636719 19.03125 Z M 26.945312 22.246094 C 27.289062 22.402344 27.601562 22.621094 27.867188 22.886719 C 28.277344 23.296875 28.574219 23.824219 28.707031 24.410156 L 36.300781 16.820312 C 36.585938 16.53125 36.917969 16.3125 37.273438 16.160156 C 37.265625 16.007812 37.238281 15.859375 37.191406 15.71875 C 37.109375 15.460938 36.957031 15.21875 36.742188 15 C 36.390625 14.648438 35.925781 14.472656 35.464844 14.472656 L 35.464844 14.476562 C 35.003906 14.476562 34.539062 14.652344 34.1875 15 Z M 40.316406 19.03125 C 40.316406 18.570312 40.140625 18.105469 39.789062 17.753906 C 39.4375 17.40625 38.976562 17.230469 38.511719 17.230469 C 38.050781 17.230469 37.585938 17.40625 37.238281 17.757812 L 28.40625 26.589844 C 28.261719 26.855469 28.078125 27.097656 27.867188 27.308594 C 27.300781 27.875 26.515625 28.226562 25.65625 28.226562 L 15.445312 28.226562 C 15.082031 28.226562 14.785156 27.929688 14.785156 27.5625 C 14.785156 27.195312 15.082031 26.898438 15.445312 26.898438 L 25.65625 26.898438 C 26.152344 26.898438 26.601562 26.695312 26.929688 26.371094 C 27.257812 26.042969 27.460938 25.59375 27.460938 25.097656 L 27.464844 25.09375 C 27.464844 24.601562 27.257812 24.152344 26.929688 23.824219 L 26.929688 23.820312 C 26.605469 23.496094 26.152344 23.292969 25.660156 23.292969 L 25.65625 23.289062 L 10.988281 23.300781 C 10.960938 23.300781 10.933594 23.300781 10.90625 23.296875 C 10.890625 23.296875 10.878906 23.296875 10.867188 23.296875 C 10.605469 23.277344 10.34375 23.3125 10.101562 23.402344 C 9.882812 23.484375 9.671875 23.613281 9.492188 23.785156 L 1.710938 31.570312 L 1.710938 38.867188 L 8.007812 38.867188 L 9.71875 37.085938 C 9.804688 36.988281 9.921875 36.910156 10.058594 36.878906 L 26.777344 32.671875 C 27.148438 32.550781 27.546875 32.316406 27.949219 32.015625 C 28.386719 31.6875 28.828125 31.277344 29.25 30.847656 C 29.261719 30.832031 29.277344 30.816406 29.292969 30.804688 C 29.304688 30.792969 29.3125 30.78125 29.324219 30.769531 L 39.789062 20.308594 C 40.136719 19.957031 40.3125 19.496094 40.3125 19.03125 Z M 21.011719 19.28125 C 22.453125 19.28125 23.820312 18.957031 25.042969 18.371094 C 26.308594 17.769531 27.417969 16.886719 28.292969 15.804688 C 28.523438 15.523438 28.480469 15.105469 28.195312 14.875 C 27.914062 14.648438 27.496094 14.6875 27.269531 14.972656 C 26.515625 15.898438 25.5625 16.65625 24.472656 17.175781 C 23.425781 17.675781 22.25 17.957031 21.011719 17.957031 C 18.789062 17.957031 16.78125 17.058594 15.324219 15.601562 C 13.871094 14.144531 12.96875 12.136719 12.96875 9.914062 C 12.96875 7.695312 13.871094 5.683594 15.324219 4.226562 C 16.78125 2.773438 18.792969 1.871094 21.011719 1.871094 C 23.234375 1.871094 25.242188 2.773438 26.699219 4.226562 C 28.152344 5.683594 29.054688 7.695312 29.054688 9.914062 C 29.054688 10.265625 29.03125 10.601562 28.992188 10.921875 L 27.402344 9.304688 C 27.148438 9.042969 26.730469 9.039062 26.46875 9.296875 C 26.207031 9.554688 26.203125 9.972656 26.460938 10.234375 L 29.058594 12.878906 C 29.316406 13.140625 29.734375 13.144531 29.996094 12.886719 L 32.640625 10.289062 C 32.902344 10.03125 32.90625 9.613281 32.648438 9.351562 C 32.394531 9.09375 31.972656 9.089844 31.714844 9.34375 L 30.34375 10.6875 C 30.367188 10.429688 30.378906 10.171875 30.378906 9.914062 C 30.378906 7.328125 29.332031 4.984375 27.636719 3.289062 C 25.941406 1.59375 23.597656 0.546875 21.011719 0.546875 C 18.425781 0.546875 16.082031 1.59375 14.386719 3.289062 C 12.691406 4.984375 11.644531 7.328125 11.644531 9.914062 C 11.644531 12.5 12.691406 14.84375 14.386719 16.539062 C 16.082031 18.234375 18.425781 19.28125 21.011719 19.28125 Z M 21.011719 19.28125 " fill-opacity="1" fill-rule="nonzero"/></g></svg>