<svg xmlns="http://www.w3.org/2000/svg" xmlns:xlink="http://www.w3.org/1999/xlink" width="88" zoomAndPan="magnify" viewBox="0 0 66 60" height="80" preserveAspectRatio="xMidYMid meet" version="1.0"><defs><clipPath id="4410f952f7"><path d="M 0 0 L 65.25 0 L 65.25 58.5 L 0 58.5 Z M 0 0 " clip-rule="nonzero"/></clipPath></defs><g clip-path="url(#4410f952f7)"><path fill="#bff747" d="M 57.234375 7.457031 C 49.945312 18.582031 33.253906 25.964844 22.949219 26.445312 C 37.078125 22.183594 47.148438 15.164062 53.160156 5.386719 L 51.234375 4.40625 C 50.910156 4.242188 50.722656 3.925781 50.734375 3.566406 C 50.746094 3.203125 50.953125 2.902344 51.285156 2.757812 L 54.015625 1.585938 L 57.523438 0.078125 C 57.78125 -0.03125 58.046875 -0.0234375 58.296875 0.105469 C 58.542969 0.230469 58.707031 0.441406 58.769531 0.714844 L 59.617188 4.4375 L 60.277344 7.332031 C 60.355469 7.6875 60.234375 8.03125 59.949219 8.253906 C 59.664062 8.476562 59.296875 8.511719 58.976562 8.347656 Z M 24.460938 58.257812 C 25.164062 58.257812 25.859375 58.230469 26.542969 58.171875 C 27.425781 58.097656 28.121094 57.464844 28.28125 56.59375 L 28.675781 54.480469 C 28.8125 53.726562 29.34375 53.160156 30.082031 52.964844 C 31.804688 52.507812 33.4375 51.824219 34.945312 50.949219 C 35.605469 50.5625 36.382812 50.59375 37.011719 51.027344 L 38.515625 52.058594 C 39.265625 52.574219 40.242188 52.507812 40.914062 51.898438 C 41.695312 51.1875 42.425781 50.429688 43.109375 49.628906 C 43.683594 48.953125 43.730469 48.011719 43.230469 47.28125 L 43.199219 47.238281 L 24.328125 47.238281 C 23.804688 47.238281 23.3125 47.101562 22.886719 46.855469 C 16.363281 46.078125 11.304688 40.527344 11.304688 33.792969 C 11.304688 26.527344 17.195312 20.636719 24.460938 20.636719 C 26.574219 20.636719 28.570312 21.136719 30.339844 22.023438 C 34.183594 20.371094 37.839844 18.359375 41.15625 15.914062 C 41.078125 15.839844 40.996094 15.765625 40.914062 15.691406 C 40.242188 15.078125 39.265625 15.011719 38.515625 15.527344 L 37.011719 16.5625 C 36.382812 16.996094 35.605469 17.027344 34.945312 16.640625 C 33.4375 15.765625 31.804688 15.082031 30.082031 14.625 C 29.34375 14.429688 28.8125 13.859375 28.675781 13.109375 L 28.28125 10.992188 C 28.121094 10.121094 27.425781 9.492188 26.542969 9.417969 C 25.855469 9.359375 25.164062 9.328125 24.460938 9.328125 C 23.757812 9.328125 23.0625 9.359375 22.378906 9.417969 C 21.496094 9.492188 20.800781 10.121094 20.636719 10.992188 L 20.246094 13.109375 C 20.105469 13.859375 19.578125 14.429688 18.839844 14.625 C 17.117188 15.082031 15.484375 15.765625 13.980469 16.640625 C 13.316406 17.027344 12.542969 16.996094 11.910156 16.5625 L 10.40625 15.527344 C 9.65625 15.011719 8.679688 15.078125 8.007812 15.691406 C 7.226562 16.398438 6.496094 17.15625 5.8125 17.957031 C 5.238281 18.632812 5.191406 19.578125 5.691406 20.308594 L 6.699219 21.773438 C 7.132812 22.40625 7.164062 23.179688 6.777344 23.839844 C 5.902344 25.347656 5.21875 26.980469 4.761719 28.703125 C 4.566406 29.445312 3.996094 29.972656 3.246094 30.109375 L 1.625 30.410156 C 0.742188 30.574219 0.105469 31.292969 0.046875 32.1875 C 0.0117188 32.71875 -0.00390625 33.253906 -0.00390625 33.792969 C -0.00390625 34.332031 0.0117188 34.871094 0.046875 35.402344 C 0.105469 36.296875 0.742188 37.015625 1.625 37.179688 L 3.242188 37.476562 C 3.996094 37.617188 4.566406 38.144531 4.761719 38.886719 C 5.21875 40.609375 5.902344 42.238281 6.777344 43.746094 C 7.164062 44.410156 7.132812 45.183594 6.699219 45.816406 L 5.691406 47.28125 C 5.191406 48.011719 5.238281 48.953125 5.8125 49.628906 C 6.496094 50.433594 7.226562 51.191406 8.007812 51.898438 C 8.679688 52.507812 9.65625 52.574219 10.40625 52.058594 L 11.910156 51.027344 C 12.539062 50.589844 13.316406 50.5625 13.980469 50.949219 C 15.484375 51.824219 17.117188 52.507812 18.839844 52.964844 C 19.582031 53.160156 20.105469 53.726562 20.246094 54.480469 L 20.636719 56.59375 C 20.800781 57.464844 21.496094 58.097656 22.378906 58.171875 C 23.0625 58.230469 23.757812 58.257812 24.460938 58.257812 Z M 24.328125 45.589844 C 23.621094 45.589844 23.046875 45.015625 23.046875 44.308594 C 23.046875 43.601562 23.621094 43.023438 24.328125 43.023438 L 64.285156 43.023438 C 64.988281 43.023438 65.566406 43.601562 65.566406 44.308594 C 65.566406 45.015625 64.988281 45.589844 64.285156 45.589844 Z M 26.292969 33.949219 L 31.847656 33.949219 C 32.320312 33.949219 32.703125 34.332031 32.703125 34.804688 L 32.703125 41.378906 L 25.433594 41.378906 L 25.433594 34.804688 C 25.433594 34.332031 25.820312 33.949219 26.292969 33.949219 Z M 35.59375 41.378906 L 35.59375 28.042969 C 35.59375 27.570312 35.976562 27.183594 36.449219 27.183594 L 42.003906 27.183594 C 42.476562 27.183594 42.863281 27.570312 42.863281 28.042969 L 42.863281 41.378906 Z M 45.75 41.378906 L 53.019531 41.378906 L 53.019531 21.277344 C 53.019531 20.804688 52.636719 20.421875 52.164062 20.421875 L 46.605469 20.421875 C 46.136719 20.421875 45.75 20.804688 45.75 21.277344 Z M 56.765625 13.660156 C 56.292969 13.660156 55.90625 14.042969 55.90625 14.515625 L 55.90625 41.378906 L 63.175781 41.378906 L 63.175781 14.515625 C 63.175781 14.042969 62.792969 13.660156 62.320312 13.660156 Z M 56.765625 13.660156 " fill-opacity="1" fill-rule="evenodd"/></g></svg>