<svg xmlns="http://www.w3.org/2000/svg" xmlns:xlink="http://www.w3.org/1999/xlink" width="59" zoomAndPan="magnify" viewBox="0 0 44.25 48" height="64" preserveAspectRatio="xMidYMid meet" version="1.0"><defs><clipPath id="9091ec958d"><path d="M 0.0859375 35 L 6 35 L 6 41 L 0.0859375 41 Z M 0.0859375 35 " clip-rule="nonzero"/></clipPath><clipPath id="eae32cc94c"><path d="M 0.0859375 37 L 9 37 L 9 45 L 0.0859375 45 Z M 0.0859375 37 " clip-rule="nonzero"/></clipPath><clipPath id="36310face2"><path d="M 4.832031 39.71875 L 10.5625 39.71875 L 10.5625 45.25 L 4.832031 45.25 Z M 4.832031 39.71875 " clip-rule="nonzero"/></clipPath><clipPath id="375117aa7b"><path d="M 1.273438 2.640625 L 42.695312 2.640625 L 42.695312 44.324219 L 1.273438 44.324219 Z M 1.273438 2.640625 " clip-rule="nonzero"/></clipPath></defs><path fill="#bff747" d="M 12.027344 25.691406 L 11.582031 25.246094 L 12.027344 25.691406 " fill-opacity="1" fill-rule="nonzero"/><path fill="#bff747" d="M 10.941406 26.519531 L 15.824219 31.398438 L 14.992188 30.570312 Z M 10.941406 26.519531 " fill-opacity="1" fill-rule="nonzero"/><g clip-path="url(#9091ec958d)"><path fill="#bff747" d="M 1.304688 40.535156 L 5.644531 36.199219 C 5.90625 35.933594 5.90625 35.507812 5.644531 35.242188 C 5.378906 34.976562 4.949219 34.976562 4.6875 35.242188 L 0.351562 39.578125 C 0.0859375 39.84375 0.0859375 40.273438 0.351562 40.535156 C 0.613281 40.800781 1.042969 40.800781 1.304688 40.535156 " fill-opacity="1" fill-rule="nonzero"/></g><g clip-path="url(#eae32cc94c)"><path fill="#bff747" d="M 7.996094 37.59375 C 7.730469 37.332031 7.304688 37.332031 7.039062 37.59375 L 0.789062 43.84375 C 0.523438 44.109375 0.523438 44.539062 0.789062 44.800781 C 1.054688 45.066406 1.480469 45.066406 1.746094 44.800781 L 7.996094 38.550781 C 8.261719 38.289062 8.261719 37.859375 7.996094 37.59375 " fill-opacity="1" fill-rule="nonzero"/></g><g clip-path="url(#36310face2)"><path fill="#bff747" d="M 9.390625 39.949219 L 5.054688 44.285156 C 4.789062 44.550781 4.789062 44.976562 5.054688 45.242188 C 5.320312 45.503906 5.746094 45.503906 6.011719 45.242188 L 10.347656 40.90625 C 10.613281 40.640625 10.613281 40.210938 10.347656 39.949219 C 10.085938 39.683594 9.65625 39.683594 9.390625 39.949219 " fill-opacity="1" fill-rule="nonzero"/></g><path fill="#bff747" d="M 31.046875 18.878906 C 29.851562 20.074219 27.90625 20.074219 26.710938 18.878906 C 25.515625 17.683594 25.515625 15.738281 26.710938 14.542969 C 27.90625 13.347656 29.851562 13.347656 31.046875 14.542969 C 32.242188 15.738281 32.242188 17.683594 31.046875 18.878906 Z M 32.003906 13.585938 C 30.28125 11.863281 27.476562 11.863281 25.753906 13.585938 C 24.03125 15.308594 24.03125 18.113281 25.753906 19.835938 C 27.476562 21.558594 30.28125 21.558594 32.003906 19.835938 C 33.726562 18.113281 33.726562 15.308594 32.003906 13.585938 " fill-opacity="1" fill-rule="nonzero"/><g clip-path="url(#375117aa7b)"><path fill="#bff747" d="M 40.386719 10.320312 C 39.078125 10.183594 37.863281 9.605469 36.921875 8.667969 C 35.984375 7.726562 35.40625 6.511719 35.269531 5.207031 C 37.386719 4.554688 39.503906 4.15625 41.5625 4.027344 C 41.4375 6.089844 41.035156 8.203125 40.386719 10.320312 Z M 30.84375 25.765625 C 27.585938 29.023438 23.8125 31.710938 19.902344 33.566406 L 12.027344 25.691406 C 13.878906 21.78125 16.566406 18.003906 19.824219 14.746094 C 24 10.574219 28.953125 7.421875 33.960938 5.640625 C 34.179688 7.144531 34.875 8.53125 35.964844 9.625 C 37.054688 10.714844 38.445312 11.40625 39.953125 11.628906 C 38.171875 16.636719 35.019531 21.589844 30.84375 25.765625 Z M 27.601562 35.894531 L 21.359375 42.140625 L 20.601562 35.007812 L 20.574219 34.742188 C 20.617188 34.722656 20.660156 34.699219 20.703125 34.679688 C 23.484375 33.339844 26.191406 31.59375 28.699219 29.535156 Z M 17.445312 36.277344 L 16.339844 35.167969 L 13.378906 32.210938 L 9.3125 28.144531 L 10.941406 26.519531 L 19.074219 34.652344 Z M 13.054688 37.5 L 8.09375 32.539062 L 9.945312 30.6875 L 14.902344 35.648438 Z M 3.449219 24.234375 L 9.695312 17.988281 L 16.058594 16.890625 C 13.996094 19.398438 12.253906 22.105469 10.914062 24.886719 C 10.894531 24.929688 10.871094 24.972656 10.851562 25.015625 L 10.582031 24.988281 Z M 42.253906 2.644531 C 34.238281 2.878906 25.714844 6.945312 18.867188 13.789062 C 18.378906 14.28125 17.902344 14.78125 17.4375 15.292969 C 17.394531 15.292969 17.347656 15.292969 17.304688 15.300781 L 9.253906 16.691406 C 9.117188 16.714844 8.988281 16.78125 8.890625 16.878906 L 1.492188 24.277344 C 1.308594 24.460938 1.246094 24.734375 1.332031 24.980469 C 1.367188 25.078125 1.421875 25.164062 1.492188 25.234375 C 1.597656 25.34375 1.742188 25.414062 1.898438 25.429688 L 9.328125 26.214844 L 7.878906 27.667969 C 7.613281 27.929688 7.613281 28.359375 7.878906 28.625 L 8.988281 29.730469 L 6.65625 32.058594 C 6.394531 32.324219 6.394531 32.753906 6.65625 33.015625 L 12.574219 38.933594 C 12.839844 39.199219 13.269531 39.199219 13.53125 38.933594 L 15.859375 36.605469 L 16.96875 37.710938 C 17.230469 37.976562 17.660156 37.976562 17.925781 37.710938 L 19.375 36.261719 L 20.160156 43.691406 C 20.179688 43.851562 20.25 43.992188 20.355469 44.101562 C 20.425781 44.171875 20.511719 44.226562 20.609375 44.257812 C 20.855469 44.347656 21.128906 44.285156 21.3125 44.101562 L 28.710938 36.699219 C 28.8125 36.601562 28.875 36.476562 28.898438 36.335938 L 30.289062 28.285156 C 30.296875 28.242188 30.300781 28.199219 30.296875 28.152344 C 30.808594 27.691406 31.3125 27.214844 31.800781 26.722656 C 38.648438 19.875 42.714844 11.351562 42.949219 3.339844 C 42.960938 2.964844 42.625 2.632812 42.253906 2.644531 " fill-opacity="1" fill-rule="nonzero"/></g></svg>