<svg xmlns="http://www.w3.org/2000/svg" xmlns:xlink="http://www.w3.org/1999/xlink" width="61" zoomAndPan="magnify" viewBox="0 0 45.75 47.25" height="63" preserveAspectRatio="xMidYMid meet" version="1.0"><defs><clipPath id="3e1a3c0a42"><path d="M 22 16 L 42 16 L 42 40.605469 L 22 40.605469 Z M 22 16 " clip-rule="nonzero"/></clipPath><clipPath id="7727ac3886"><path d="M 25 17 L 45.269531 17 L 45.269531 35 L 25 35 Z M 25 17 " clip-rule="nonzero"/></clipPath><clipPath id="cee7dec1ee"><path d="M 0.234375 0 L 41 0 L 41 40 L 0.234375 40 Z M 0.234375 0 " clip-rule="nonzero"/></clipPath><clipPath id="49fea2605e"><path d="M 0.234375 19 L 22 19 L 22 22 L 0.234375 22 Z M 0.234375 19 " clip-rule="nonzero"/></clipPath></defs><g clip-path="url(#3e1a3c0a42)"><path fill="#bff747" d="M 32.277344 40.429688 C 31.84375 40.429688 31.414062 40.277344 31.066406 39.964844 L 28.429688 37.578125 C 24.8125 34.308594 22.734375 29.632812 22.734375 24.757812 L 22.734375 21.40625 C 22.734375 20.917969 22.929688 20.460938 23.28125 20.117188 C 23.625 19.78125 24.101562 19.59375 24.585938 19.609375 C 26.957031 19.675781 29.085938 18.871094 31.109375 17.148438 C 31.785156 16.574219 32.765625 16.574219 33.441406 17.148438 C 34.511719 18.058594 35.640625 18.726562 36.789062 19.125 C 37.390625 19.332031 37.707031 19.988281 37.496094 20.589844 C 37.289062 21.1875 36.632812 21.503906 36.035156 21.296875 C 34.730469 20.84375 33.46875 20.125 32.273438 19.167969 C 30.066406 20.945312 27.632812 21.867188 25.035156 21.910156 L 25.035156 24.757812 C 25.035156 28.984375 26.832031 33.039062 29.96875 35.875 L 32.273438 37.957031 L 34.582031 35.875 C 36.679688 33.976562 38.191406 31.535156 38.957031 28.8125 C 39.128906 28.203125 39.765625 27.847656 40.375 28.019531 C 40.984375 28.191406 41.339844 28.824219 41.167969 29.4375 C 40.285156 32.578125 38.539062 35.390625 36.121094 37.578125 L 33.484375 39.964844 C 33.140625 40.277344 32.707031 40.433594 32.277344 40.433594 Z M 32.277344 40.429688 " fill-opacity="1" fill-rule="nonzero"/></g><g clip-path="url(#7727ac3886)"><path fill="#bff747" d="M 32.058594 34.484375 C 31.765625 34.484375 31.472656 34.375 31.246094 34.148438 L 25.878906 28.78125 C 25.664062 28.566406 25.542969 28.273438 25.542969 27.96875 C 25.542969 27.664062 25.664062 27.371094 25.878906 27.15625 L 28.285156 24.75 C 28.734375 24.300781 29.460938 24.300781 29.910156 24.75 L 32.058594 26.898438 L 40.859375 18.097656 C 41.308594 17.648438 42.035156 17.648438 42.484375 18.097656 L 44.890625 20.503906 C 45.105469 20.71875 45.226562 21.011719 45.226562 21.316406 C 45.226562 21.621094 45.105469 21.914062 44.890625 22.128906 L 32.871094 34.148438 C 32.648438 34.375 32.355469 34.484375 32.058594 34.484375 Z M 28.316406 27.96875 L 32.058594 31.710938 L 42.453125 21.316406 L 41.671875 20.535156 L 32.871094 29.335938 C 32.421875 29.785156 31.695312 29.785156 31.246094 29.335938 L 29.097656 27.1875 Z M 28.316406 27.96875 " fill-opacity="1" fill-rule="nonzero"/></g><g clip-path="url(#cee7dec1ee)"><path fill="#bff747" d="M 20.222656 39.941406 C 9.210938 39.941406 0.253906 30.984375 0.253906 19.972656 C 0.253906 8.960938 9.210938 0 20.222656 0 C 30.304688 0 38.828125 7.535156 40.046875 17.53125 C 40.125 18.160156 39.675781 18.734375 39.042969 18.808594 C 38.414062 18.886719 37.839844 18.4375 37.765625 17.808594 C 36.6875 8.964844 29.144531 2.300781 20.222656 2.300781 C 10.480469 2.300781 2.550781 10.226562 2.550781 19.972656 C 2.550781 29.714844 10.480469 37.644531 20.222656 37.644531 C 22.261719 37.644531 24.257812 37.300781 26.15625 36.625 C 26.753906 36.410156 27.414062 36.722656 27.625 37.320312 C 27.839844 37.917969 27.527344 38.574219 26.929688 38.789062 C 24.78125 39.554688 22.523438 39.941406 20.222656 39.941406 Z M 20.222656 39.941406 " fill-opacity="1" fill-rule="nonzero"/></g><path fill="#bff747" d="M 20.222656 39.941406 C 14.050781 39.941406 9.214844 31.171875 9.214844 19.972656 C 9.214844 8.773438 14.050781 0 20.222656 0 C 25.570312 0 30.011719 6.601562 31.023438 16.054688 C 31.089844 16.6875 30.632812 17.253906 30.003906 17.320312 C 29.371094 17.390625 28.804688 16.933594 28.738281 16.300781 C 27.882812 8.320312 24.222656 2.300781 20.222656 2.300781 C 15.503906 2.300781 11.515625 10.390625 11.515625 19.972656 C 11.515625 29.550781 15.503906 37.644531 20.222656 37.644531 C 20.859375 37.644531 21.371094 38.160156 21.371094 38.792969 C 21.371094 39.429688 20.859375 39.941406 20.222656 39.941406 Z M 20.222656 39.941406 " fill-opacity="1" fill-rule="nonzero"/><path fill="#bff747" d="M 20.222656 39.941406 C 19.589844 39.941406 19.074219 39.429688 19.074219 38.792969 L 19.074219 1.148438 C 19.074219 0.515625 19.589844 0 20.222656 0 C 20.859375 0 21.371094 0.515625 21.371094 1.148438 L 21.371094 38.792969 C 21.371094 39.429688 20.859375 39.941406 20.222656 39.941406 Z M 20.222656 39.941406 " fill-opacity="1" fill-rule="nonzero"/><g clip-path="url(#49fea2605e)"><path fill="#bff747" d="M 20.125 21.761719 L 2.042969 21.761719 C 1.410156 21.761719 0.894531 21.246094 0.894531 20.613281 C 0.894531 19.980469 1.410156 19.464844 2.042969 19.464844 L 20.125 19.464844 C 20.757812 19.464844 21.273438 19.980469 21.273438 20.613281 C 21.273438 21.246094 20.757812 21.761719 20.125 21.761719 Z M 20.125 21.761719 " fill-opacity="1" fill-rule="nonzero"/></g><path fill="#bff747" d="M 20.058594 31.472656 L 4.6875 31.472656 C 4.054688 31.472656 3.539062 30.957031 3.539062 30.324219 C 3.539062 29.6875 4.054688 29.175781 4.6875 29.175781 L 20.058594 29.175781 C 20.695312 29.175781 21.207031 29.6875 21.207031 30.324219 C 21.207031 30.957031 20.691406 31.472656 20.058594 31.472656 Z M 20.058594 31.472656 " fill-opacity="1" fill-rule="nonzero"/><path fill="#bff747" d="M 36.378906 12.050781 L 3.738281 12.050781 C 3.105469 12.050781 2.589844 11.539062 2.589844 10.902344 C 2.589844 10.269531 3.105469 9.753906 3.738281 9.753906 L 36.378906 9.753906 C 37.015625 9.753906 37.527344 10.269531 37.527344 10.902344 C 37.527344 11.539062 37.011719 12.050781 36.378906 12.050781 Z M 36.378906 12.050781 " fill-opacity="1" fill-rule="nonzero"/></svg>