<svg xmlns="http://www.w3.org/2000/svg" xmlns:xlink="http://www.w3.org/1999/xlink" width="594" zoomAndPan="magnify" viewBox="0 0 445.5 516.000002" height="688" preserveAspectRatio="xMidYMid meet" version="1.0"><defs><filter x="0%" y="0%" width="100%" height="100%" id="c14c58111e"><feColorMatrix values="0 0 0 0 1 0 0 0 0 1 0 0 0 0 1 0 0 0 1 0" color-interpolation-filters="sRGB"/></filter><clipPath id="a926480d1b"><path d="M 0.179688 0 L 444.820312 0 L 444.820312 515 L 0.179688 515 Z M 0.179688 0 " clip-rule="nonzero"/></clipPath><mask id="26a7409aa4"><g filter="url(#c14c58111e)"><rect x="-44.55" width="534.6" fill="#000000" y="-51.6" height="619.200002" fill-opacity="0.2"/></g></mask><clipPath id="6746a43475"><path d="M 85 73 L 386 73 L 386 457 L 85 457 Z M 85 73 " clip-rule="nonzero"/></clipPath><clipPath id="3a7bbbab9d"><path d="M 147.511719 0 L 444.53125 107.542969 L 297.238281 514.359375 L 0.21875 406.816406 Z M 147.511719 0 " clip-rule="nonzero"/></clipPath><clipPath id="6abb69324a"><path d="M 147.511719 0 L 444.53125 107.542969 L 297.238281 514.359375 L 0.21875 406.816406 Z M 147.511719 0 " clip-rule="nonzero"/></clipPath><clipPath id="3bb0cb8825"><path d="M 147.511719 0 L 444.53125 107.542969 L 297.238281 514.359375 L 0.21875 406.816406 Z M 147.511719 0 " clip-rule="nonzero"/></clipPath><clipPath id="3b56fce32e"><rect x="0" width="445" y="0" height="515"/></clipPath></defs><g clip-path="url(#a926480d1b)"><g mask="url(#26a7409aa4)"><g transform="matrix(1, 0, 0, 1, 0, 0.000000000000127119)"><g clip-path="url(#3b56fce32e)"><g clip-path="url(#6746a43475)"><g clip-path="url(#3a7bbbab9d)"><g clip-path="url(#6abb69324a)"><g clip-path="url(#3bb0cb8825)"><path fill="#000000" d="M 92.148438 189.726562 C 104.828125 118.175781 174.296875 38.792969 273.222656 89.300781 C 434.332031 104.347656 379 266.789062 365.835938 282.308594 C 356.113281 352.402344 198.730469 478.230469 150.070312 453.398438 C 108.695312 432.292969 69.667969 256.28125 92.148438 189.726562 Z M 227.011719 399.945312 C 231.078125 395.960938 249.804688 381.933594 268.625 368.765625 C 307.390625 341.640625 311.480469 330.519531 275.59375 349.820312 C 255.445312 360.664062 247.699219 361.191406 225.6875 353.21875 C 202.113281 330.632812 174.625 336.140625 151.867188 323.742188 C 121.730469 310.878906 127.582031 297.878906 105.953125 263.726562 C 101.59375 262.214844 101.15625 263.597656 104.539062 268.167969 C 107.238281 271.816406 109.125 285.085938 108.730469 297.660156 C 108.332031 310.234375 116.824219 341.414062 127.59375 366.957031 C 145.105469 408.460938 147.753906 411.878906 152.566406 399.121094 C 155.523438 391.265625 163.871094 381.046875 171.121094 376.402344 C 184.296875 367.960938 184.296875 367.960938 188.84375 382.820312 C 191.722656 392.234375 189.835938 403.652344 183.691406 413.984375 L 173.992188 430.289062 L 196.808594 418.734375 C 209.355469 412.375 222.949219 403.921875 227.011719 399.945312 Z M 264.527344 340.859375 C 271.363281 335.5 273.660156 330.953125 270.164062 329.6875 C 266.921875 328.511719 265.203125 324.953125 266.355469 321.78125 C 267.503906 318.605469 279.019531 318.03125 291.941406 320.503906 C 325.300781 326.886719 339.640625 310.449219 358.445312 244.257812 C 369.941406 203.800781 371.371094 189.589844 365.355469 175.648438 C 353.542969 148.277344 318.921875 127.15625 253.757812 107.554688 C 203.105469 92.320312 193.988281 91.347656 176.871094 99.351562 C 153.515625 110.269531 135.042969 137.347656 116.605469 187.6875 C 100.203125 232.46875 104.5 249.515625 135.292969 261.800781 C 146.71875 266.359375 151.03125 269.625 144.867188 269.058594 C 138.707031 268.488281 133.101562 269.59375 132.402344 271.515625 C 129.078125 280.699219 144.253906 303.917969 156.476562 308.34375 C 167.652344 312.386719 171.183594 310.304688 175.546875 297.078125 C 178.492188 288.15625 178.382812 283.65625 175.304688 287.082031 C 172.230469 290.515625 167.300781 292.445312 164.351562 291.375 C 155.902344 288.316406 164.421875 271.644531 177.582031 265.496094 C 184.152344 262.425781 192.082031 252.871094 195.199219 244.269531 C 200.851562 228.710938 200.679688 228.570312 162.140625 216.820312 C 121.261719 204.359375 118.28125 200.582031 140.152344 188.996094 C 155.742188 180.738281 177.347656 186.796875 190.078125 203 C 202.558594 218.894531 211.371094 212.007812 203.40625 192.578125 C 194.167969 170.03125 173.230469 148.550781 160.71875 148.785156 C 154.992188 148.890625 151.261719 146.347656 152.421875 143.136719 C 159.027344 124.898438 211.644531 145.148438 226.128906 171.503906 C 235.753906 189.011719 235.75 191.324219 226.109375 188.011719 C 215.324219 184.308594 215.140625 184.746094 221.171875 199.464844 C 226.105469 211.503906 223.632812 225.757812 209.578125 266.28125 L 191.71875 317.800781 L 210.882812 328.824219 C 244.679688 348.265625 252.757812 350.078125 264.527344 340.859375 Z M 236.972656 301.363281 C 230.042969 290.707031 230.257812 289.199219 238.3125 291.9375 C 243.585938 293.734375 249.75 300.328125 252.003906 306.597656 C 257.273438 321.203125 247.707031 317.871094 236.972656 301.363281 Z M 263.222656 247.457031 C 260.863281 236.207031 286.550781 230.371094 306.964844 237.523438 C 329.601562 245.453125 349.535156 271.621094 335.324219 274.75 C 321.394531 277.820312 265.125 256.523438 263.222656 247.457031 Z M 257.101562 219.441406 C 258.15625 216.519531 262.589844 213.386719 266.941406 212.476562 C 272.460938 211.324219 272.996094 208.46875 268.699219 203.054688 C 263.613281 196.632812 264.710938 194.265625 275.039062 189.4375 C 298.359375 178.53125 363.335938 200.09375 357.3125 216.738281 C 356.046875 220.234375 351.582031 220.125 347.390625 216.5 C 338.40625 208.726562 307.734375 209.78125 290.53125 218.457031 C 275.546875 226.019531 254.496094 226.636719 257.101562 219.441406 Z M 257.101562 219.441406 " fill-opacity="1" fill-rule="nonzero"/></g></g></g></g></g></g></g></g></svg>