<svg xmlns="http://www.w3.org/2000/svg" xmlns:xlink="http://www.w3.org/1999/xlink" width="88" zoomAndPan="magnify" viewBox="0 0 66 58.499998" height="78" preserveAspectRatio="xMidYMid meet" version="1.0"><defs><clipPath id="312308d161"><path d="M 0.28125 14 L 50 14 L 50 58 L 0.28125 58 Z M 0.28125 14 " clip-rule="nonzero"/></clipPath><clipPath id="0f275c52de"><path d="M 26 0 L 65.71875 0 L 65.71875 39 L 26 39 Z M 26 0 " clip-rule="nonzero"/></clipPath></defs><g clip-path="url(#312308d161)"><path fill="#bff747" d="M 48.128906 31.621094 C 47.503906 31.621094 47 32.128906 47 32.75 L 47 41.296875 L 2.546875 41.296875 L 2.546875 19.621094 C 2.546875 18.136719 3.765625 16.929688 5.257812 16.929688 L 23.46875 16.929688 C 24.089844 16.929688 24.597656 16.425781 24.597656 15.800781 C 24.597656 15.179688 24.089844 14.675781 23.46875 14.675781 L 5.257812 14.675781 C 2.519531 14.675781 0.292969 16.894531 0.292969 19.621094 L 0.292969 45.203125 C 0.292969 47.941406 2.519531 50.167969 5.257812 50.167969 L 18.777344 50.167969 L 18.777344 55.523438 L 15.347656 55.523438 C 14.722656 55.523438 14.21875 56.027344 14.21875 56.652344 C 14.21875 57.273438 14.722656 57.777344 15.347656 57.777344 L 34.199219 57.777344 C 34.820312 57.777344 35.324219 57.273438 35.324219 56.652344 C 35.324219 56.027344 34.820312 55.523438 34.199219 55.523438 L 30.769531 55.523438 L 30.769531 50.167969 L 44.289062 50.167969 C 47.03125 50.167969 49.253906 47.941406 49.253906 45.203125 L 49.253906 32.75 C 49.253906 32.128906 48.75 31.621094 48.128906 31.621094 Z M 28.511719 55.523438 L 21.03125 55.523438 L 21.03125 50.167969 L 28.511719 50.167969 Z M 44.289062 47.914062 L 5.257812 47.914062 C 3.765625 47.914062 2.546875 46.695312 2.546875 45.203125 L 2.546875 43.554688 L 47 43.554688 L 47 45.203125 C 47 46.695312 45.785156 47.914062 44.289062 47.914062 Z M 44.289062 47.914062 " fill-opacity="1" fill-rule="nonzero"/></g><g clip-path="url(#0f275c52de)"><path fill="#bff747" d="M 63.800781 29.335938 L 54.128906 21.011719 C 55.164062 19.027344 55.757812 16.773438 55.757812 14.382812 C 55.757812 6.449219 49.308594 -0.00390625 41.375 -0.00390625 C 33.441406 -0.00390625 26.988281 6.449219 26.988281 14.382812 C 26.988281 22.316406 33.441406 28.769531 41.375 28.769531 C 43.769531 28.769531 46.023438 28.171875 48.011719 27.132812 L 56.335938 36.796875 C 57.289062 37.90625 58.675781 38.578125 60.136719 38.632812 C 60.207031 38.636719 60.273438 38.636719 60.339844 38.636719 C 61.738281 38.636719 63.09375 38.078125 64.085938 37.082031 C 65.121094 36.050781 65.683594 34.621094 65.632812 33.160156 C 65.578125 31.695312 64.914062 30.300781 63.800781 29.335938 Z M 29.246094 14.382812 C 29.246094 7.695312 34.6875 2.253906 41.375 2.253906 C 48.0625 2.253906 53.503906 7.695312 53.503906 14.382812 C 53.503906 21.070312 48.0625 26.511719 41.375 26.511719 C 34.6875 26.511719 29.246094 21.070312 29.246094 14.382812 Z M 62.492188 35.488281 C 61.886719 36.09375 61.085938 36.421875 60.226562 36.378906 C 59.378906 36.347656 58.605469 35.972656 58.050781 35.324219 L 49.9375 25.914062 C 51.066406 25.074219 52.066406 24.074219 52.90625 22.945312 L 62.324219 31.046875 C 62.972656 31.605469 63.34375 32.386719 63.375 33.242188 C 63.40625 34.089844 63.09375 34.886719 62.492188 35.488281 Z M 62.492188 35.488281 " fill-opacity="1" fill-rule="nonzero"/></g><path fill="#bff747" d="M 50.558594 14.382812 C 50.558594 9.316406 46.441406 5.199219 41.375 5.199219 C 40.753906 5.199219 40.246094 5.703125 40.246094 6.328125 C 40.246094 6.949219 40.753906 7.453125 41.375 7.453125 C 45.195312 7.453125 48.300781 10.5625 48.300781 14.382812 C 48.300781 15.003906 48.808594 15.511719 49.429688 15.511719 C 50.054688 15.511719 50.558594 15.003906 50.558594 14.382812 Z M 50.558594 14.382812 " fill-opacity="1" fill-rule="nonzero"/><path fill="#bff747" d="M 22.058594 28.714844 L 19.984375 32.988281 L 17.28125 21.847656 C 17.167969 21.382812 16.777344 21.042969 16.304688 20.988281 C 15.832031 20.9375 15.375 21.191406 15.167969 21.621094 L 12.03125 28.082031 L 6.859375 28.082031 C 6.238281 28.082031 5.730469 28.585938 5.730469 29.207031 C 5.730469 29.832031 6.238281 30.335938 6.859375 30.335938 L 12.738281 30.335938 C 13.167969 30.335938 13.5625 30.089844 13.753906 29.699219 L 15.828125 25.429688 L 18.53125 36.574219 C 18.640625 37.035156 19.035156 37.378906 19.507812 37.429688 C 19.546875 37.433594 19.585938 37.433594 19.628906 37.433594 C 20.054688 37.433594 20.453125 37.191406 20.644531 36.796875 L 23.78125 30.335938 L 28.949219 30.335938 C 29.574219 30.335938 30.078125 29.832031 30.078125 29.207031 C 30.078125 28.585938 29.574219 28.082031 28.949219 28.082031 L 23.074219 28.082031 C 22.640625 28.082031 22.246094 28.328125 22.058594 28.714844 Z M 22.058594 28.714844 " fill-opacity="1" fill-rule="nonzero"/></svg>