<svg xmlns="http://www.w3.org/2000/svg" xmlns:xlink="http://www.w3.org/1999/xlink" width="99" zoomAndPan="magnify" viewBox="0 0 74.25 58.499999" height="78" preserveAspectRatio="xMidYMid meet" version="1.0"><defs><clipPath id="e07b09689a"><path d="M 23 8 L 72.765625 8 L 72.765625 57.960938 L 23 57.960938 Z M 23 8 " clip-rule="nonzero"/></clipPath><clipPath id="1e0dbe71fa"><path d="M 42 0.046875 L 55 0.046875 L 55 6 L 42 6 Z M 42 0.046875 " clip-rule="nonzero"/></clipPath></defs><g clip-path="url(#e07b09689a)"><path fill="#bff747" d="M 48.3125 57.738281 C 34.765625 57.738281 23.734375 46.710938 23.734375 33.160156 C 23.734375 19.613281 34.765625 8.582031 48.3125 8.582031 C 61.859375 8.582031 72.890625 19.613281 72.890625 33.160156 C 72.890625 46.722656 61.859375 57.738281 48.3125 57.738281 Z M 48.3125 19.058594 C 47.84375 19.058594 47.457031 18.675781 47.457031 18.203125 L 47.457031 15.023438 C 43.097656 15.226562 39.132812 16.972656 36.105469 19.730469 L 38.351562 21.976562 C 38.679688 22.304688 38.679688 22.84375 38.351562 23.1875 C 38.164062 23.355469 37.953125 23.441406 37.738281 23.441406 C 37.523438 23.441406 37.296875 23.355469 37.140625 23.1875 L 34.894531 20.941406 C 32.128906 23.972656 30.378906 27.941406 30.175781 32.308594 L 33.355469 32.308594 C 33.824219 32.308594 34.210938 32.691406 34.210938 33.160156 C 34.210938 33.632812 33.824219 34.015625 33.355469 34.015625 L 30.175781 34.015625 C 30.378906 38.378906 32.128906 42.347656 34.886719 45.375 L 37.140625 43.125 C 37.46875 42.796875 38.007812 42.796875 38.351562 43.125 C 38.679688 43.449219 38.679688 43.992188 38.351562 44.332031 L 36.097656 46.585938 C 39.128906 49.347656 43.097656 51.097656 47.457031 51.300781 L 47.457031 48.132812 C 47.457031 47.664062 47.84375 47.28125 48.3125 47.28125 C 48.78125 47.28125 49.167969 47.664062 49.167969 48.132812 L 49.167969 51.300781 C 53.535156 51.097656 57.503906 49.34375 60.535156 46.578125 L 58.289062 44.332031 C 57.960938 44.007812 57.960938 43.464844 58.289062 43.125 C 58.617188 42.796875 59.15625 42.796875 59.5 43.125 L 61.746094 45.371094 C 64.5 42.339844 66.25 38.375 66.453125 34.015625 L 63.269531 34.015625 C 62.800781 34.015625 62.417969 33.632812 62.417969 33.160156 C 62.417969 32.691406 62.800781 32.308594 63.269531 32.308594 L 66.453125 32.308594 C 66.25 27.945312 64.5 23.980469 61.738281 20.945312 L 59.5 23.1875 C 59.328125 23.355469 59.113281 23.441406 58.886719 23.441406 C 58.671875 23.441406 58.445312 23.355469 58.289062 23.1875 C 57.960938 22.859375 57.960938 22.316406 58.289062 21.976562 L 60.527344 19.738281 C 57.496094 16.976562 53.53125 15.226562 49.167969 15.023438 L 49.167969 18.203125 C 49.167969 18.675781 48.78125 19.058594 48.3125 19.058594 Z M 48.148438 13.3125 C 48.199219 13.300781 48.257812 13.292969 48.3125 13.292969 C 48.371094 13.292969 48.425781 13.300781 48.480469 13.3125 C 53.808594 13.355469 58.644531 15.503906 62.191406 18.96875 C 62.257812 19.003906 62.316406 19.046875 62.375 19.101562 C 62.429688 19.15625 62.476562 19.222656 62.515625 19.289062 C 66.019531 22.867188 68.179688 27.765625 68.179688 33.160156 C 68.179688 38.589844 65.992188 43.519531 62.457031 47.109375 C 62.429688 47.144531 62.402344 47.175781 62.375 47.207031 C 62.34375 47.234375 62.3125 47.261719 62.28125 47.285156 C 58.6875 50.84375 53.753906 53.042969 48.3125 53.042969 C 37.355469 53.042969 28.445312 44.132812 28.445312 33.175781 L 28.445312 33.132812 C 28.457031 27.738281 30.628906 22.839844 34.144531 19.261719 C 34.179688 19.203125 34.21875 19.152344 34.265625 19.101562 C 34.320312 19.050781 34.375 19.003906 34.4375 18.96875 C 37.984375 15.503906 42.816406 13.355469 48.148438 13.3125 Z M 47.457031 29.722656 L 47.457031 23.101562 C 47.457031 22.628906 47.84375 22.246094 48.3125 22.246094 C 48.78125 22.246094 49.167969 22.628906 49.167969 23.101562 L 49.167969 29.722656 C 50.707031 30.105469 51.855469 31.507812 51.855469 33.160156 C 51.855469 33.71875 51.726562 34.246094 51.5 34.714844 L 56.980469 40.40625 C 57.308594 40.746094 57.292969 41.289062 56.953125 41.613281 C 56.78125 41.757812 56.566406 41.84375 56.355469 41.84375 C 56.125 41.84375 55.914062 41.757812 55.742188 41.585938 L 50.390625 36.03125 C 49.804688 36.457031 49.085938 36.707031 48.3125 36.707031 C 46.363281 36.707031 44.769531 35.109375 44.769531 33.160156 C 44.769531 31.507812 45.917969 30.105469 47.457031 29.722656 Z M 47.457031 29.722656 " fill-opacity="1" fill-rule="evenodd"/></g><path fill="#bff747" d="M 50.417969 10.390625 C 49.238281 10.5625 47.84375 10.691406 46.191406 10.390625 C 45.722656 10.390625 45.339844 10.007812 45.339844 9.539062 L 45.339844 4.769531 C 45.339844 4.300781 45.722656 3.914062 46.191406 3.914062 L 50.417969 3.914062 C 50.886719 3.914062 51.273438 4.300781 51.273438 4.769531 L 51.273438 9.539062 C 51.273438 10.007812 50.902344 10.390625 50.417969 10.390625 Z M 50.417969 10.390625 " fill-opacity="1" fill-rule="evenodd"/><g clip-path="url(#1e0dbe71fa)"><path fill="#bff747" d="M 53.394531 5.625 L 43.230469 5.625 C 42.761719 5.625 42.378906 5.238281 42.378906 4.769531 L 42.378906 3.972656 C 42.378906 1.808594 44.144531 0.046875 46.304688 0.046875 L 50.304688 0.046875 C 52.46875 0.046875 54.234375 1.808594 54.234375 3.972656 L 54.234375 4.769531 C 54.246094 5.238281 53.863281 5.625 53.394531 5.625 Z M 53.394531 5.625 " fill-opacity="1" fill-rule="evenodd"/></g><path fill="#bff747" d="M 65.164062 17.308594 C 64.949219 17.308594 64.722656 17.222656 64.566406 17.050781 C 64.398438 16.886719 64.320312 16.667969 64.320312 16.445312 C 63.683594 16.121094 63.035156 15.695312 62.417969 15.128906 C 62.089844 14.804688 62.089844 14.261719 62.417969 13.921875 L 65.648438 10.691406 C 65.972656 10.363281 66.515625 10.363281 66.855469 10.691406 L 68.890625 12.726562 C 69.046875 12.882812 69.148438 13.109375 69.148438 13.324219 C 69.148438 13.535156 69.0625 13.765625 68.890625 13.921875 L 65.773438 17.039062 C 65.589844 17.222656 65.375 17.308594 65.164062 17.308594 Z M 65.164062 17.308594 " fill-opacity="1" fill-rule="evenodd"/><path fill="#bff747" d="M 26.367188 17.507812 L 5.746094 17.507812 C 5.277344 17.507812 4.894531 17.121094 4.894531 16.652344 C 4.894531 16.183594 5.277344 15.800781 5.746094 15.800781 L 26.367188 15.800781 C 26.835938 15.800781 27.222656 16.183594 27.222656 16.652344 C 27.222656 17.121094 26.835938 17.507812 26.367188 17.507812 Z M 26.367188 17.507812 " fill-opacity="1" fill-rule="evenodd"/><path fill="#bff747" d="M 21.5 25.832031 L 0.878906 25.832031 C 0.410156 25.832031 0.0273438 25.449219 0.0273438 24.980469 C 0.0273438 24.507812 0.410156 24.125 0.878906 24.125 L 21.5 24.125 C 21.96875 24.125 22.355469 24.507812 22.355469 24.980469 C 22.355469 25.449219 21.96875 25.832031 21.5 25.832031 Z M 21.5 25.832031 " fill-opacity="1" fill-rule="evenodd"/><path fill="#bff747" d="M 21.5 34.15625 L 4.820312 34.15625 C 4.351562 34.15625 3.96875 33.773438 3.96875 33.304688 C 3.96875 32.835938 4.351562 32.449219 4.820312 32.449219 L 21.5 32.449219 C 21.96875 32.449219 22.355469 32.835938 22.355469 33.304688 C 22.355469 33.773438 21.96875 34.15625 21.5 34.15625 Z M 21.5 34.15625 " fill-opacity="1" fill-rule="evenodd"/><path fill="#bff747" d="M 22.054688 42.027344 L 1.433594 42.027344 C 0.964844 42.027344 0.582031 41.644531 0.582031 41.175781 C 0.582031 40.703125 0.964844 40.320312 1.433594 40.320312 L 22.054688 40.320312 C 22.527344 40.320312 22.910156 40.703125 22.910156 41.175781 C 22.910156 41.644531 22.527344 42.027344 22.054688 42.027344 Z M 22.054688 42.027344 " fill-opacity="1" fill-rule="evenodd"/><path fill="#bff747" d="M 26.367188 51.191406 L 5.746094 51.191406 C 5.277344 51.191406 4.894531 50.808594 4.894531 50.339844 C 4.894531 49.871094 5.277344 49.484375 5.746094 49.484375 L 26.367188 49.484375 C 26.835938 49.484375 27.222656 49.871094 27.222656 50.339844 C 27.222656 50.808594 26.835938 51.191406 26.367188 51.191406 Z M 26.367188 51.191406 " fill-opacity="1" fill-rule="evenodd"/></svg>