<svg xmlns="http://www.w3.org/2000/svg" xmlns:xlink="http://www.w3.org/1999/xlink" width="80" zoomAndPan="magnify" viewBox="0 0 60 58.499998" height="78" preserveAspectRatio="xMidYMid meet" version="1.0"><defs><clipPath id="6a368554ad"><path d="M 6.449219 0 L 59.25 0 L 59.25 58 L 6.449219 58 Z M 6.449219 0 " clip-rule="nonzero"/></clipPath></defs><g clip-path="url(#6a368554ad)"><path fill="#bff747" d="M 59.398438 29.277344 C 59.394531 28.351562 58.492188 27.617188 57.585938 27.78125 C 57.425781 27.800781 57.070312 27.847656 56.910156 27.863281 C 53.082031 28.257812 49.402344 26.789062 46.398438 24.445312 C 46.019531 24.167969 45.488281 24.160156 45.097656 24.457031 C 44.570312 24.863281 44.03125 25.238281 43.472656 25.585938 C 43.359375 25.007812 43.125 24.441406 42.777344 23.949219 C 42.253906 23.191406 41.476562 22.601562 40.601562 22.269531 C 41.046875 20.328125 40.914062 18.214844 40.992188 16.257812 C 41.066406 14.257812 40.78125 12.234375 40.101562 10.34375 C 40.023438 10.15625 39.90625 9.832031 39.828125 9.636719 C 39.777344 9.507812 39.570312 9.066406 39.519531 8.945312 C 39.382812 8.679688 39.207031 8.300781 39.050781 8.046875 C 37.378906 5.019531 34.648438 2.601562 31.46875 1.25 C 25.539062 -1.25 18.699219 0.0664062 14.140625 4.617188 C 11.183594 7.585938 9.546875 11.59375 9.617188 15.789062 C 9.652344 17.886719 9.671875 20.007812 10.015625 22.085938 C 7.964844 22.804688 6.457031 24.800781 6.480469 27.058594 C 6.476562 27.390625 6.484375 28.660156 6.480469 28.996094 C 6.488281 30.851562 6.46875 41 6.46875 43.082031 C 6.464844 43.988281 6.46875 46.429688 6.464844 47.304688 C 6.464844 47.40625 6.46875 47.742188 6.464844 47.832031 C 6.4375 49.371094 7.097656 50.929688 8.28125 51.921875 C 9.273438 52.785156 10.59375 53.238281 11.90625 53.199219 C 12.113281 53.199219 12.757812 53.191406 12.964844 53.195312 C 13.855469 53.195312 16.269531 53.175781 17.1875 53.171875 C 22.617188 53.050781 28.722656 53.285156 34.089844 52.566406 C 34.59375 52.488281 34.570312 51.769531 34.089844 51.703125 C 32.214844 51.445312 30.339844 51.328125 28.457031 51.253906 C 23.160156 51.117188 17.027344 51.101562 11.730469 51.070312 C 10.261719 51.078125 8.929688 49.957031 8.679688 48.515625 C 8.628906 48.238281 8.621094 47.941406 8.625 47.65625 C 8.621094 47.472656 8.628906 46.089844 8.625 45.898438 C 8.625 42.132812 8.605469 32.761719 8.609375 28.996094 C 8.613281 28.769531 8.605469 27.421875 8.609375 27.234375 C 8.566406 26.246094 8.980469 25.277344 9.746094 24.644531 C 10.292969 24.203125 10.976562 23.945312 11.679688 23.9375 C 11.679688 23.9375 17.296875 23.933594 17.296875 23.933594 C 23.503906 23.929688 30.796875 23.890625 37.011719 23.808594 C 37.675781 23.820312 39.046875 23.722656 39.621094 23.855469 C 40.351562 24.003906 41.015625 24.398438 41.546875 24.933594 C 41.898438 25.292969 42.175781 25.726562 42.386719 26.21875 C 41.703125 26.582031 41.003906 26.898438 40.28125 27.152344 C 38.570312 27.773438 36.753906 28.015625 34.941406 27.890625 C 34.601562 27.878906 34.203125 27.820312 33.863281 27.78125 C 32.960938 27.648438 32.097656 28.414062 32.121094 29.328125 C 32.121094 29.402344 32.121094 29.578125 32.121094 29.648438 C 32.121094 31.960938 32.144531 36.863281 32.15625 39.222656 C 32.15625 40.246094 32.191406 41.28125 32.339844 42.296875 C 33.226562 49.320312 38.617188 56.457031 45.789062 57.78125 C 47.757812 57.21875 49.734375 56.433594 51.4375 55.253906 C 54.839844 52.898438 57.304688 49.28125 58.519531 45.339844 C 59.125 43.363281 59.382812 41.289062 59.363281 39.222656 C 59.386719 35.996094 59.390625 32.515625 59.398438 29.277344 Z M 35.542969 21.90625 C 35.664062 21.382812 35.703125 20.851562 35.71875 20.308594 C 35.738281 19.464844 35.808594 17.296875 35.816406 16.476562 C 35.832031 15.8125 35.851562 15.089844 35.761719 14.429688 C 35.144531 8.808594 29.785156 4.640625 24.191406 5.273438 C 19.679688 5.707031 15.835938 9.199219 15.074219 13.679688 C 14.984375 14.191406 14.925781 14.730469 14.9375 15.25 C 14.945312 15.441406 14.96875 15.746094 14.980469 15.933594 C 15.058594 17.21875 15.167969 18.492188 15.382812 19.769531 C 15.46875 20.25 16.160156 20.25 16.246094 19.769531 C 16.460938 18.492188 16.566406 17.21875 16.648438 15.933594 C 16.722656 15.167969 16.847656 14.390625 17.054688 13.648438 C 18 10.355469 20.992188 7.753906 24.417969 7.410156 C 28.269531 6.945312 32.042969 9.386719 33.285156 13.046875 C 33.6875 14.132812 33.800781 15.316406 33.796875 16.476562 C 33.808594 17.304688 33.875 19.449219 33.898438 20.308594 C 33.910156 20.84375 33.949219 21.371094 34.066406 21.886719 C 26.636719 21.800781 18.890625 21.800781 11.644531 21.800781 C 11.496094 21.804688 11.351562 21.8125 11.203125 21.824219 C 11.484375 19.984375 11.527344 18.117188 11.554688 16.257812 C 11.554688 16.03125 11.570312 15.570312 11.582031 15.347656 C 11.730469 12.117188 13.050781 9 15.214844 6.621094 C 15.324219 6.507812 15.558594 6.257812 15.667969 6.144531 C 15.757812 6.050781 16.054688 5.785156 16.144531 5.691406 C 16.261719 5.589844 16.523438 5.359375 16.640625 5.261719 C 16.894531 5.058594 17.234375 4.789062 17.511719 4.601562 C 21.121094 2.042969 25.878906 1.425781 30.027344 2.96875 C 35.335938 4.910156 38.992188 10.136719 39.0625 15.789062 C 39.070312 16.105469 39.078125 16.867188 39.089844 17.203125 C 39.121094 18.746094 39.09375 20.429688 39.398438 21.980469 C 39.324219 21.972656 39.25 21.96875 39.175781 21.964844 C 37.976562 21.941406 36.765625 21.921875 35.542969 21.90625 Z M 57.144531 29.316406 L 57.144531 29.335938 C 57.144531 29.335938 57.144531 29.335938 57.144531 29.332031 Z M 57.0625 42.027344 C 56.363281 48.054688 52.648438 52.867188 47.511719 55.914062 C 46.929688 56.230469 46.332031 56.585938 45.742188 56.9375 C 45.242188 56.566406 44.835938 56.28125 44.351562 56 C 41.632812 54.410156 39.066406 52.433594 37.328125 49.777344 C 35.644531 47.277344 34.605469 44.34375 34.375 41.339844 C 34.3125 40.636719 34.320312 39.929688 34.324219 39.222656 C 34.335938 36.96875 34.355469 32.679688 34.359375 30.09375 C 36.609375 30.304688 38.917969 30.027344 41.035156 29.238281 C 42.730469 28.617188 44.308594 27.710938 45.75 26.640625 C 49.019531 29.097656 53.027344 30.535156 57.144531 30.101562 C 57.148438 33.09375 57.164062 36.273438 57.183594 39.222656 C 57.195312 40.160156 57.183594 41.097656 57.0625 42.027344 Z M 57.0625 42.027344 " fill-opacity="1" fill-rule="nonzero"/></g><path fill="#bff747" d="M 53.269531 35.953125 C 53.421875 35.769531 53.597656 35.605469 53.714844 35.382812 C 54.292969 34.265625 53.617188 33.632812 52.527344 34.199219 C 52.308594 34.316406 52.140625 34.488281 51.957031 34.644531 C 51.597656 34.960938 51.238281 35.28125 50.886719 35.605469 C 50.175781 36.25 49.488281 36.914062 48.808594 37.59375 C 47.859375 38.546875 46.585938 39.824219 45.507812 40.894531 C 45.078125 40.46875 44.648438 40.050781 44.199219 39.648438 C 43.847656 39.324219 43.484375 39.007812 43.121094 38.695312 C 42.726562 38.351562 42.300781 38.105469 41.742188 38.042969 C 41.394531 38.003906 41.09375 38.308594 41.128906 38.652344 C 41.191406 39.214844 41.441406 39.636719 41.785156 40.03125 C 42.714844 41.132812 43.714844 42.175781 44.746094 43.179688 C 45.164062 43.597656 45.84375 43.59375 46.261719 43.175781 C 46.9375 42.496094 47.605469 41.808594 48.285156 41.132812 C 49.304688 40.109375 50.71875 38.730469 51.800781 37.578125 C 52.328125 40.269531 52 42.71875 49.644531 44.6875 C 46.578125 47.191406 41.875 46.160156 40.191406 42.558594 C 38.476562 38.972656 40.65625 34.671875 44.515625 33.804688 C 45.253906 33.632812 46.027344 33.59375 46.78125 33.691406 C 47.585938 33.796875 48.382812 33.96875 49.203125 34.039062 C 49.308594 34.042969 49.414062 34.015625 49.503906 33.949219 C 49.703125 33.796875 49.738281 33.515625 49.589844 33.320312 C 49.285156 32.921875 48.890625 32.617188 48.460938 32.386719 C 47.160156 31.703125 45.558594 31.65625 44.128906 31.886719 C 36.097656 33.511719 35.082031 44.238281 42.503906 47.550781 C 47.417969 49.675781 53.125 46.566406 53.851562 41.234375 C 54.085938 39.597656 53.8125 37.796875 52.808594 36.46875 C 52.960938 36.296875 53.117188 36.128906 53.269531 35.953125 Z M 53.269531 35.953125 " fill-opacity="1" fill-rule="nonzero"/><path fill="#bff747" d="M 29.683594 30.96875 C 28.480469 27.445312 23.804688 26.714844 21.554688 29.675781 C 20.09375 31.535156 20.328125 34.292969 22 35.914062 C 22 36.5625 22 41.316406 22 41.316406 C 22 41.785156 22 43.03125 22 43.480469 C 21.996094 43.539062 22 43.699219 22 43.753906 C 21.992188 44.746094 22.675781 45.679688 23.621094 45.972656 C 23.929688 46.078125 24.265625 46.089844 24.589844 46.082031 C 24.949219 46.082031 25.671875 46.070312 26.03125 46.074219 C 27.414062 46.15625 28.578125 45.15625 28.578125 43.753906 C 28.570312 43.144531 28.554688 41.933594 28.542969 41.316406 C 28.484375 39.671875 28.59375 37.347656 28.164062 35.714844 C 29.734375 34.808594 30.304688 32.660156 29.683594 30.96875 Z M 29.683594 30.96875 " fill-opacity="1" fill-rule="nonzero"/></svg>