<svg xmlns="http://www.w3.org/2000/svg" xmlns:xlink="http://www.w3.org/1999/xlink" width="80" zoomAndPan="magnify" viewBox="0 0 60 58.499998" height="78" preserveAspectRatio="xMidYMid meet" version="1.0"><defs><clipPath id="d829908135"><path d="M 6.273438 0 L 59.074219 0 L 59.074219 58 L 6.273438 58 Z M 6.273438 0 " clip-rule="nonzero"/></clipPath></defs><g clip-path="url(#d829908135)"><path fill="#bff747" d="M 59.222656 29.277344 C 59.21875 28.351562 58.3125 27.617188 57.410156 27.78125 C 57.246094 27.800781 56.890625 27.847656 56.734375 27.863281 C 52.90625 28.257812 49.226562 26.789062 46.21875 24.445312 C 45.84375 24.167969 45.3125 24.160156 44.921875 24.457031 C 44.394531 24.863281 43.851562 25.238281 43.296875 25.585938 C 43.183594 25.007812 42.949219 24.441406 42.601562 23.949219 C 42.078125 23.191406 41.300781 22.601562 40.425781 22.269531 C 40.871094 20.328125 40.738281 18.214844 40.816406 16.257812 C 40.890625 14.257812 40.605469 12.234375 39.921875 10.34375 C 39.847656 10.15625 39.730469 9.832031 39.648438 9.636719 C 39.597656 9.507812 39.390625 9.066406 39.34375 8.945312 C 39.207031 8.679688 39.027344 8.300781 38.875 8.046875 C 37.199219 5.019531 34.472656 2.601562 31.292969 1.25 C 25.363281 -1.25 18.523438 0.0664062 13.964844 4.617188 C 11.003906 7.585938 9.367188 11.59375 9.441406 15.789062 C 9.476562 17.886719 9.496094 20.007812 9.835938 22.085938 C 7.789062 22.804688 6.28125 24.800781 6.304688 27.058594 C 6.300781 27.390625 6.308594 28.660156 6.304688 28.996094 C 6.3125 30.851562 6.292969 41 6.292969 43.082031 C 6.289062 43.988281 6.292969 46.429688 6.289062 47.304688 C 6.289062 47.40625 6.292969 47.742188 6.289062 47.832031 C 6.261719 49.371094 6.921875 50.929688 8.105469 51.921875 C 9.097656 52.785156 10.417969 53.238281 11.730469 53.199219 C 11.9375 53.199219 12.582031 53.191406 12.785156 53.195312 C 13.679688 53.195312 16.09375 53.175781 17.011719 53.171875 C 22.441406 53.050781 28.546875 53.285156 33.910156 52.566406 C 34.417969 52.488281 34.394531 51.769531 33.910156 51.703125 C 32.039062 51.445312 30.160156 51.328125 28.277344 51.253906 C 22.984375 51.117188 16.851562 51.101562 11.554688 51.070312 C 10.085938 51.078125 8.753906 49.957031 8.503906 48.515625 C 8.453125 48.238281 8.441406 47.941406 8.449219 47.65625 C 8.441406 47.472656 8.453125 46.089844 8.445312 45.898438 C 8.445312 42.132812 8.429688 32.761719 8.433594 28.996094 C 8.4375 28.769531 8.429688 27.421875 8.433594 27.234375 C 8.390625 26.246094 8.800781 25.277344 9.570312 24.644531 C 10.117188 24.203125 10.796875 23.945312 11.503906 23.9375 C 11.503906 23.9375 17.117188 23.933594 17.117188 23.933594 C 23.328125 23.929688 30.621094 23.890625 36.835938 23.808594 C 37.5 23.820312 38.871094 23.722656 39.445312 23.855469 C 40.175781 24.003906 40.839844 24.398438 41.367188 24.933594 C 41.722656 25.292969 42 25.726562 42.210938 26.21875 C 41.527344 26.582031 40.824219 26.898438 40.105469 27.152344 C 38.394531 27.773438 36.578125 28.015625 34.765625 27.890625 C 34.425781 27.878906 34.027344 27.820312 33.6875 27.78125 C 32.78125 27.648438 31.921875 28.414062 31.945312 29.328125 C 31.945312 29.402344 31.945312 29.578125 31.945312 29.648438 C 31.941406 31.960938 31.96875 36.863281 31.980469 39.222656 C 31.980469 40.246094 32.015625 41.28125 32.160156 42.296875 C 33.050781 49.320312 38.4375 56.457031 45.613281 57.78125 C 47.582031 57.21875 49.558594 56.433594 51.261719 55.253906 C 54.664062 52.898438 57.128906 49.28125 58.34375 45.339844 C 58.949219 43.363281 59.207031 41.289062 59.183594 39.222656 C 59.210938 35.996094 59.214844 32.515625 59.222656 29.277344 Z M 35.367188 21.90625 C 35.484375 21.382812 35.527344 20.851562 35.539062 20.308594 C 35.5625 19.464844 35.628906 17.296875 35.640625 16.476562 C 35.65625 15.8125 35.675781 15.089844 35.582031 14.429688 C 34.96875 8.808594 29.609375 4.640625 24.015625 5.273438 C 19.503906 5.707031 15.660156 9.199219 14.894531 13.679688 C 14.808594 14.191406 14.75 14.730469 14.761719 15.25 C 14.769531 15.441406 14.792969 15.746094 14.804688 15.933594 C 14.882812 17.21875 14.992188 18.492188 15.207031 19.769531 C 15.289062 20.25 15.984375 20.25 16.070312 19.769531 C 16.28125 18.492188 16.390625 17.21875 16.472656 15.933594 C 16.546875 15.167969 16.667969 14.390625 16.878906 13.648438 C 17.824219 10.355469 20.816406 7.753906 24.242188 7.410156 C 28.09375 6.945312 31.867188 9.386719 33.109375 13.046875 C 33.511719 14.132812 33.621094 15.316406 33.621094 16.476562 C 33.632812 17.304688 33.695312 19.449219 33.71875 20.308594 C 33.734375 20.84375 33.773438 21.371094 33.890625 21.886719 C 26.457031 21.800781 18.714844 21.800781 11.46875 21.800781 C 11.320312 21.804688 11.171875 21.8125 11.027344 21.824219 C 11.304688 19.984375 11.347656 18.117188 11.375 16.257812 C 11.378906 16.03125 11.390625 15.570312 11.40625 15.347656 C 11.554688 12.117188 12.871094 9 15.039062 6.621094 C 15.148438 6.507812 15.382812 6.257812 15.492188 6.144531 C 15.582031 6.050781 15.875 5.785156 15.964844 5.691406 C 16.082031 5.589844 16.347656 5.359375 16.460938 5.261719 C 16.71875 5.058594 17.058594 4.789062 17.335938 4.601562 C 20.941406 2.042969 25.703125 1.425781 29.847656 2.96875 C 35.160156 4.910156 38.816406 10.136719 38.886719 15.789062 C 38.894531 16.105469 38.902344 16.867188 38.914062 17.203125 C 38.945312 18.746094 38.917969 20.429688 39.222656 21.980469 C 39.148438 21.972656 39.074219 21.96875 39 21.964844 C 37.800781 21.941406 36.589844 21.921875 35.367188 21.90625 Z M 56.96875 29.316406 L 56.96875 29.335938 C 56.96875 29.335938 56.96875 29.335938 56.96875 29.332031 Z M 56.886719 42.027344 C 56.1875 48.054688 52.472656 52.867188 47.335938 55.914062 C 46.75 56.230469 46.152344 56.585938 45.566406 56.9375 C 45.066406 56.566406 44.660156 56.28125 44.175781 56 C 41.457031 54.410156 38.890625 52.433594 37.152344 49.777344 C 35.464844 47.277344 34.425781 44.34375 34.199219 41.339844 C 34.136719 40.636719 34.144531 39.929688 34.148438 39.222656 C 34.160156 36.96875 34.179688 32.679688 34.179688 30.09375 C 36.433594 30.304688 38.742188 30.027344 40.855469 29.238281 C 42.554688 28.617188 44.132812 27.710938 45.574219 26.640625 C 48.839844 29.097656 52.847656 30.535156 56.96875 30.101562 C 56.972656 33.09375 56.988281 36.273438 57.003906 39.222656 C 57.019531 40.160156 57.003906 41.097656 56.886719 42.027344 Z M 56.886719 42.027344 " fill-opacity="1" fill-rule="nonzero"/></g><path fill="#bff747" d="M 53.089844 35.953125 C 53.246094 35.769531 53.417969 35.605469 53.539062 35.382812 C 54.113281 34.265625 53.441406 33.632812 52.351562 34.199219 C 52.132812 34.316406 51.964844 34.488281 51.78125 34.644531 C 51.421875 34.960938 51.0625 35.28125 50.707031 35.605469 C 50 36.25 49.3125 36.914062 48.632812 37.59375 C 47.683594 38.546875 46.410156 39.824219 45.332031 40.894531 C 44.902344 40.46875 44.46875 40.050781 44.023438 39.648438 C 43.667969 39.324219 43.308594 39.007812 42.941406 38.695312 C 42.546875 38.351562 42.125 38.105469 41.5625 38.042969 C 41.21875 38.003906 40.914062 38.308594 40.953125 38.652344 C 41.015625 39.214844 41.261719 39.636719 41.605469 40.03125 C 42.539062 41.132812 43.535156 42.175781 44.566406 43.179688 C 44.988281 43.597656 45.667969 43.59375 46.085938 43.175781 C 46.761719 42.496094 47.429688 41.808594 48.109375 41.132812 C 49.128906 40.109375 50.542969 38.730469 51.625 37.578125 C 52.152344 40.269531 51.824219 42.71875 49.46875 44.6875 C 46.398438 47.191406 41.699219 46.160156 40.015625 42.558594 C 38.300781 38.972656 40.480469 34.671875 44.339844 33.804688 C 45.078125 33.632812 45.851562 33.59375 46.605469 33.691406 C 47.410156 33.796875 48.203125 33.96875 49.027344 34.039062 C 49.132812 34.042969 49.238281 34.015625 49.328125 33.949219 C 49.523438 33.796875 49.5625 33.515625 49.410156 33.320312 C 49.109375 32.921875 48.714844 32.617188 48.285156 32.386719 C 46.980469 31.703125 45.382812 31.65625 43.953125 31.886719 C 35.921875 33.511719 34.90625 44.238281 42.328125 47.550781 C 47.242188 49.675781 52.949219 46.566406 53.675781 41.234375 C 53.910156 39.597656 53.632812 37.796875 52.628906 36.46875 C 52.785156 36.296875 52.941406 36.128906 53.089844 35.953125 Z M 53.089844 35.953125 " fill-opacity="1" fill-rule="nonzero"/><path fill="#bff747" d="M 29.507812 30.96875 C 28.300781 27.445312 23.628906 26.714844 21.378906 29.675781 C 19.917969 31.535156 20.152344 34.292969 21.820312 35.914062 C 21.820312 36.5625 21.820312 41.316406 21.820312 41.316406 C 21.820312 41.785156 21.824219 43.03125 21.820312 43.480469 C 21.820312 43.539062 21.824219 43.699219 21.824219 43.753906 C 21.816406 44.746094 22.5 45.679688 23.445312 45.972656 C 23.753906 46.078125 24.085938 46.089844 24.414062 46.082031 C 24.773438 46.082031 25.496094 46.070312 25.855469 46.074219 C 27.238281 46.15625 28.398438 45.15625 28.402344 43.753906 C 28.394531 43.144531 28.375 41.933594 28.367188 41.316406 C 28.308594 39.671875 28.417969 37.347656 27.984375 35.714844 C 29.554688 34.808594 30.128906 32.660156 29.507812 30.96875 Z M 29.507812 30.96875 " fill-opacity="1" fill-rule="nonzero"/></svg>