<svg xmlns="http://www.w3.org/2000/svg" xmlns:xlink="http://www.w3.org/1999/xlink" width="78" zoomAndPan="magnify" viewBox="0 0 58.5 58.499999" height="78" preserveAspectRatio="xMidYMid meet" version="1.0"><path fill="#bff747" d="M 32.285156 51.898438 L 26.363281 55.128906 C 25.707031 55.488281 24.984375 55.714844 24.246094 55.820312 L 24.246094 48.472656 L 22.390625 48.472656 L 22.390625 55.820312 C 21.652344 55.714844 20.929688 55.488281 20.273438 55.128906 L 14.351562 51.898438 C 6.703125 47.726562 1.949219 39.722656 1.949219 31.011719 C 1.949219 29.703125 2.058594 28.386719 2.273438 27.101562 L 5.535156 7.535156 L 7.230469 7.394531 C 12.542969 6.949219 17.746094 5.328125 22.390625 2.710938 L 22.390625 13.171875 L 24.246094 13.171875 L 24.246094 2.710938 C 28.890625 5.328125 34.09375 6.953125 39.40625 7.394531 L 41.101562 7.535156 L 41.445312 9.609375 L 43.277344 9.304688 L 42.695312 5.804688 L 39.558594 5.542969 C 33.992188 5.078125 28.546875 3.269531 23.808594 0.308594 L 23.316406 0 L 22.824219 0.308594 C 18.085938 3.269531 12.640625 5.078125 7.074219 5.542969 L 3.941406 5.804688 L 0.441406 26.792969 C 0.210938 28.183594 0.09375 29.601562 0.09375 31.011719 C 0.09375 40.402344 5.214844 49.03125 13.460938 53.53125 L 19.382812 56.761719 C 20.585938 57.417969 21.945312 57.765625 23.316406 57.765625 C 24.6875 57.765625 26.050781 57.417969 27.253906 56.761719 L 33.175781 53.53125 C 36.117188 51.925781 38.683594 49.792969 40.796875 47.191406 L 39.351562 46.019531 C 37.394531 48.429688 35.015625 50.410156 32.285156 51.898438 Z M 32.285156 51.898438 " fill-opacity="1" fill-rule="nonzero"/><path fill="#bff747" d="M 57.691406 22.460938 L 57.691406 19.675781 L 55.832031 19.675781 L 55.832031 22.460938 C 55.832031 22.972656 55.414062 23.390625 54.902344 23.390625 L 52.09375 23.390625 C 51.613281 22.761719 50.992188 22.25 50.257812 21.925781 L 50.257812 20.605469 C 50.257812 20.300781 50.226562 20.007812 50.167969 19.722656 C 51.347656 19.101562 52.117188 17.886719 52.117188 16.496094 C 52.117188 15.265625 51.503906 14.125 50.480469 13.441406 L 47.472656 11.4375 L 47.472656 13.171875 C 47.472656 14.203125 47.167969 15.203125 46.597656 16.058594 L 46.59375 16.066406 C 46.277344 16 45.949219 15.957031 45.613281 15.957031 C 45.277344 15.957031 44.953125 16 44.632812 16.066406 L 44.628906 16.058594 C 44.058594 15.203125 43.753906 14.203125 43.753906 13.171875 L 43.753906 11.4375 L 40.746094 13.445312 C 39.722656 14.125 39.109375 15.269531 39.109375 16.496094 C 39.109375 17.886719 39.878906 19.101562 41.058594 19.722656 C 41.003906 20.007812 40.96875 20.300781 40.96875 20.605469 L 40.96875 21.925781 C 40.234375 22.25 39.613281 22.761719 39.136719 23.390625 L 36.324219 23.390625 C 35.8125 23.390625 35.394531 22.972656 35.394531 22.460938 L 35.394531 19.675781 L 33.535156 19.675781 L 33.535156 22.460938 C 33.535156 24 34.789062 25.25 36.324219 25.25 L 38.277344 25.25 C 38.214844 25.550781 38.183594 25.859375 38.183594 26.179688 C 38.183594 26.496094 38.214844 26.808594 38.277344 27.105469 L 33.535156 27.105469 L 33.535156 28.964844 L 39.136719 28.964844 C 39.476562 29.417969 39.890625 29.804688 40.371094 30.105469 L 39.699219 30.777344 C 39.6875 30.792969 39.671875 30.808594 39.65625 30.824219 L 36.324219 30.824219 C 34.789062 30.824219 33.535156 32.074219 33.535156 33.609375 L 33.535156 36.398438 L 35.394531 36.398438 L 35.394531 33.609375 C 35.394531 33.097656 35.8125 32.679688 36.324219 32.679688 L 38.273438 32.679688 C 37.609375 33.894531 37.253906 35.265625 37.253906 36.6875 L 37.253906 37.324219 C 37.253906 41.9375 41.003906 45.6875 45.613281 45.6875 C 50.222656 45.6875 53.972656 41.9375 53.972656 37.324219 L 53.972656 36.6875 C 53.972656 35.265625 53.617188 33.894531 52.953125 32.679688 L 54.902344 32.679688 C 55.414062 32.679688 55.832031 33.097656 55.832031 33.609375 L 55.832031 36.398438 L 57.691406 36.398438 L 57.691406 33.609375 C 57.691406 32.074219 56.441406 30.824219 54.902344 30.824219 L 51.566406 30.824219 C 51.550781 30.808594 51.539062 30.792969 51.523438 30.777344 L 50.855469 30.105469 C 51.335938 29.804688 51.75 29.417969 52.09375 28.964844 L 57.691406 28.964844 L 57.691406 27.105469 L 52.953125 27.105469 C 53.011719 26.808594 53.046875 26.496094 53.046875 26.179688 C 53.046875 25.859375 53.011719 25.550781 52.953125 25.25 L 54.902344 25.25 C 56.441406 25.25 57.691406 24 57.691406 22.460938 Z M 49.144531 14.785156 L 49.453125 14.988281 C 49.957031 15.328125 50.257812 15.890625 50.257812 16.496094 C 50.257812 17.121094 49.945312 17.671875 49.453125 17.996094 C 49.144531 17.542969 48.75 17.148438 48.300781 16.828125 C 48.6875 16.191406 48.976562 15.503906 49.144531 14.785156 Z M 40.96875 16.496094 C 40.96875 15.890625 41.269531 15.324219 41.777344 14.988281 L 42.082031 14.785156 C 42.25 15.503906 42.539062 16.191406 42.925781 16.828125 C 42.476562 17.148438 42.082031 17.542969 41.773438 17.996094 C 41.28125 17.671875 40.96875 17.121094 40.96875 16.496094 Z M 42.828125 20.605469 C 42.828125 19.066406 44.078125 17.816406 45.613281 17.816406 C 47.148438 17.816406 48.402344 19.066406 48.402344 20.605469 L 48.402344 21.53125 L 42.828125 21.53125 Z M 39.746094 40.113281 C 39.472656 39.535156 39.28125 38.910156 39.183594 38.253906 L 52.042969 38.253906 C 51.949219 38.910156 51.757812 39.535156 51.480469 40.113281 Z M 52.101562 36.398438 L 39.125 36.398438 C 39.152344 35.753906 39.273438 35.132812 39.480469 34.539062 L 51.746094 34.539062 C 51.953125 35.132812 52.074219 35.753906 52.101562 36.398438 Z M 41.070312 41.972656 L 50.15625 41.972656 C 48.980469 43.117188 47.378906 43.828125 45.613281 43.828125 C 43.847656 43.828125 42.246094 43.117188 41.070312 41.972656 Z M 50.210938 32.089844 C 50.398438 32.277344 50.566406 32.476562 50.730469 32.679688 L 40.496094 32.679688 C 40.65625 32.476562 40.828125 32.277344 41.015625 32.089844 L 42.332031 30.773438 C 42.496094 30.789062 42.65625 30.824219 42.828125 30.824219 L 48.402344 30.824219 C 48.570312 30.824219 48.730469 30.789062 48.894531 30.773438 Z M 48.402344 28.964844 L 42.828125 28.964844 C 41.289062 28.964844 40.039062 27.714844 40.039062 26.179688 C 40.039062 24.640625 41.289062 23.390625 42.828125 23.390625 L 48.402344 23.390625 C 49.9375 23.390625 51.1875 24.640625 51.1875 26.179688 C 51.1875 27.714844 49.9375 28.964844 48.402344 28.964844 Z M 48.402344 28.964844 " fill-opacity="1" fill-rule="nonzero"/><path fill="#bff747" d="M 32.609375 48.472656 C 34.144531 48.472656 35.394531 47.222656 35.394531 45.6875 C 35.394531 44.152344 34.144531 42.898438 32.609375 42.898438 C 31.070312 42.898438 29.820312 44.152344 29.820312 45.6875 C 29.820312 47.222656 31.070312 48.472656 32.609375 48.472656 Z M 32.609375 44.757812 C 33.121094 44.757812 33.535156 45.175781 33.535156 45.6875 C 33.535156 46.199219 33.121094 46.617188 32.609375 46.617188 C 32.097656 46.617188 31.679688 46.199219 31.679688 45.6875 C 31.679688 45.175781 32.097656 44.757812 32.609375 44.757812 Z M 32.609375 44.757812 " fill-opacity="1" fill-rule="nonzero"/><path fill="#bff747" d="M 9.382812 35.46875 L 28.890625 35.46875 C 30.429688 35.46875 31.679688 34.21875 31.679688 32.679688 C 31.679688 31.144531 30.429688 29.894531 28.890625 29.894531 L 15.886719 29.894531 C 15.375 29.894531 14.957031 29.476562 14.957031 28.964844 C 14.957031 28.453125 15.375 28.035156 15.886719 28.035156 L 24.246094 28.035156 C 25.785156 28.035156 27.035156 26.785156 27.035156 25.25 C 27.035156 23.710938 25.785156 22.460938 24.246094 22.460938 L 10.3125 22.460938 C 9.800781 22.460938 9.382812 22.046875 9.382812 21.53125 C 9.382812 21.019531 9.800781 20.605469 10.3125 20.605469 L 27.035156 20.605469 C 28.570312 20.605469 29.820312 19.355469 29.820312 17.816406 C 29.820312 16.28125 28.570312 15.03125 27.035156 15.03125 L 17.742188 15.03125 L 17.742188 16.886719 L 27.035156 16.886719 C 27.546875 16.886719 27.960938 17.304688 27.960938 17.816406 C 27.960938 18.328125 27.546875 18.746094 27.035156 18.746094 L 10.3125 18.746094 C 8.773438 18.746094 7.523438 19.996094 7.523438 21.53125 C 7.523438 23.070312 8.773438 24.320312 10.3125 24.320312 L 24.246094 24.320312 C 24.757812 24.320312 25.175781 24.738281 25.175781 25.25 C 25.175781 25.761719 24.757812 26.179688 24.246094 26.179688 L 15.886719 26.179688 C 14.347656 26.179688 13.097656 27.429688 13.097656 28.964844 C 13.097656 30.5 14.347656 31.753906 15.886719 31.753906 L 28.890625 31.753906 C 29.402344 31.753906 29.820312 32.167969 29.820312 32.679688 C 29.820312 33.191406 29.402344 33.609375 28.890625 33.609375 L 9.382812 33.609375 C 7.847656 33.609375 6.597656 34.859375 6.597656 36.398438 C 6.597656 37.933594 7.847656 39.183594 9.382812 39.183594 L 22.390625 39.183594 C 22.902344 39.183594 23.316406 39.601562 23.316406 40.113281 C 23.316406 40.625 22.902344 41.042969 22.390625 41.042969 L 14.027344 41.042969 C 12.492188 41.042969 11.242188 42.292969 11.242188 43.828125 C 11.242188 45.367188 12.492188 46.617188 14.027344 46.617188 L 27.960938 46.617188 L 27.960938 44.757812 L 14.027344 44.757812 C 13.515625 44.757812 13.097656 44.339844 13.097656 43.828125 C 13.097656 43.316406 13.515625 42.898438 14.027344 42.898438 L 22.390625 42.898438 C 23.925781 42.898438 25.175781 41.648438 25.175781 40.113281 C 25.175781 38.578125 23.925781 37.324219 22.390625 37.324219 L 9.382812 37.324219 C 8.871094 37.324219 8.453125 36.910156 8.453125 36.398438 C 8.453125 35.886719 8.871094 35.46875 9.382812 35.46875 Z M 9.382812 35.46875 " fill-opacity="1" fill-rule="nonzero"/></svg>