<svg xmlns="http://www.w3.org/2000/svg" xmlns:xlink="http://www.w3.org/1999/xlink" width="119" zoomAndPan="magnify" viewBox="0 0 89.25 58.499998" height="78" preserveAspectRatio="xMidYMid meet" version="1.0"><defs><clipPath id="46872d61ed"><path d="M 62 1 L 87.757812 1 L 87.757812 34 L 62 34 Z M 62 1 " clip-rule="nonzero"/></clipPath><clipPath id="381ef9d653"><path d="M 0.0078125 0 L 29 0 L 29 33 L 0.0078125 33 Z M 0.0078125 0 " clip-rule="nonzero"/></clipPath></defs><g clip-path="url(#46872d61ed)"><path fill="#bff747" d="M 79.339844 33.902344 C 79.046875 33.902344 78.746094 33.871094 78.449219 33.808594 C 77.3125 33.574219 76.34375 32.90625 75.710938 31.9375 L 63.585938 13.300781 C 62.335938 11.382812 62.800781 8.816406 64.644531 7.460938 L 72.6875 1.546875 C 73.277344 1.121094 74.105469 1.246094 74.539062 1.835938 C 74.972656 2.421875 74.847656 3.253906 74.257812 3.6875 L 66.214844 9.597656 C 65.503906 10.117188 65.324219 11.113281 65.808594 11.855469 L 77.933594 30.492188 C 78.179688 30.867188 78.554688 31.121094 78.992188 31.214844 C 79.433594 31.308594 79.878906 31.222656 80.253906 30.972656 L 85.75 27.347656 C 86.363281 26.941406 87.183594 27.117188 87.589844 27.726562 C 87.992188 28.335938 87.820312 29.160156 87.210938 29.558594 L 81.714844 33.1875 C 81 33.660156 80.175781 33.902344 79.339844 33.902344 " fill-opacity="1" fill-rule="nonzero"/></g><g clip-path="url(#381ef9d653)"><path fill="#bff747" d="M 11.773438 32.773438 C 11.042969 32.773438 10.300781 32.589844 9.625 32.199219 L 0.972656 27.230469 C 0.335938 26.863281 0.117188 26.050781 0.484375 25.417969 C 0.847656 24.785156 1.65625 24.566406 2.292969 24.929688 L 10.949219 29.902344 C 11.710938 30.339844 12.691406 30.105469 13.179688 29.363281 L 25.332031 10.746094 C 25.578125 10.371094 25.664062 9.921875 25.566406 9.488281 C 25.476562 9.046875 25.21875 8.671875 24.835938 8.429688 L 15.328125 2.660156 C 14.699219 2.28125 14.5 1.464844 14.878906 0.839844 C 15.261719 0.214844 16.074219 0.0117188 16.703125 0.394531 L 26.242188 6.183594 C 27.25 6.828125 27.921875 7.796875 28.164062 8.933594 C 28.402344 10.066406 28.1875 11.226562 27.550781 12.195312 L 15.398438 30.8125 C 14.574219 32.078125 13.1875 32.773438 11.773438 32.773438 " fill-opacity="1" fill-rule="nonzero"/></g><path fill="#bff747" d="M 70.164062 37.242188 C 69.886719 37.242188 69.605469 37.15625 69.375 36.980469 L 48.996094 21.855469 L 43.242188 22.097656 C 39.761719 26.8125 35.054688 28.976562 32.132812 28.671875 C 30.632812 28.515625 29.519531 27.75 29.007812 26.515625 C 28.078125 24.277344 29.363281 20.886719 32.730469 16.707031 C 32.90625 16.492188 33.070312 16.265625 33.234375 16.042969 C 34.011719 15 34.890625 13.820312 36.480469 13.382812 L 49.550781 9.808594 C 50.84375 9.457031 52.226562 9.566406 53.464844 10.113281 C 58.683594 12.445312 64.367188 11.289062 64.425781 11.28125 C 65.144531 11.128906 65.84375 11.589844 65.992188 12.308594 C 66.140625 13.023438 65.683594 13.726562 64.96875 13.875 C 64.699219 13.929688 58.375 15.207031 52.386719 12.539062 C 51.707031 12.230469 50.945312 12.171875 50.25 12.367188 L 37.183594 15.941406 C 36.507812 16.125 36.050781 16.699219 35.363281 17.625 C 35.179688 17.875 34.992188 18.125 34.796875 18.371094 C 31.726562 22.179688 31.078125 24.589844 31.460938 25.496094 C 31.503906 25.613281 31.644531 25.953125 32.40625 26.035156 C 34.335938 26.21875 38.371094 24.507812 41.449219 20.046875 C 41.683594 19.703125 42.066406 19.488281 42.484375 19.472656 L 49.351562 19.183594 C 49.664062 19.171875 49.957031 19.265625 50.203125 19.445312 L 70.183594 34.277344 L 76.058594 30.128906 C 76.65625 29.707031 77.484375 29.851562 77.902344 30.449219 C 78.328125 31.042969 78.1875 31.875 77.589844 32.296875 L 70.925781 37 C 70.699219 37.160156 70.433594 37.242188 70.164062 37.242188 " fill-opacity="1" fill-rule="nonzero"/><path fill="#bff747" d="M 35.648438 16.621094 C 35.550781 16.621094 35.453125 16.609375 35.351562 16.585938 C 34.625 16.417969 28.1875 14.890625 25.542969 12.449219 C 25.007812 11.949219 24.972656 11.109375 25.46875 10.570312 C 25.96875 10.03125 26.808594 10.003906 27.34375 10.5 C 29.148438 12.167969 34.164062 13.589844 35.941406 14 C 36.65625 14.164062 37.101562 14.875 36.941406 15.589844 C 36.796875 16.203125 36.253906 16.621094 35.648438 16.621094 " fill-opacity="1" fill-rule="nonzero"/><path fill="#bff747" d="M 18.242188 37.242188 C 17.863281 37.242188 17.492188 37.082031 17.226562 36.777344 L 12.773438 31.519531 C 12.296875 30.960938 12.371094 30.125 12.925781 29.648438 C 13.484375 29.179688 14.320312 29.246094 14.796875 29.804688 L 19.253906 35.058594 C 19.726562 35.617188 19.65625 36.453125 19.097656 36.925781 C 18.847656 37.136719 18.542969 37.242188 18.242188 37.242188 " fill-opacity="1" fill-rule="nonzero"/><path fill="#bff747" d="M 23.96875 34.613281 C 23.390625 34.613281 22.820312 34.855469 22.417969 35.316406 L 19 39.210938 C 18.636719 39.625 18.457031 40.15625 18.492188 40.703125 C 18.527344 41.253906 18.777344 41.757812 19.191406 42.121094 C 19.605469 42.488281 20.140625 42.664062 20.683594 42.628906 C 21.234375 42.59375 21.738281 42.347656 22.101562 41.929688 L 25.515625 38.039062 C 26.265625 37.183594 26.179688 35.875 25.328125 35.125 C 24.933594 34.785156 24.453125 34.613281 23.96875 34.613281 Z M 20.542969 45.285156 C 19.402344 45.285156 18.308594 44.875 17.441406 44.113281 C 16.496094 43.285156 15.929688 42.132812 15.847656 40.875 C 15.765625 39.621094 16.179688 38.410156 17.007812 37.464844 L 20.425781 33.566406 C 22.136719 31.613281 25.125 31.421875 27.078125 33.132812 C 28.023438 33.964844 28.589844 35.113281 28.671875 36.371094 C 28.753906 37.625 28.339844 38.835938 27.507812 39.785156 L 24.09375 43.675781 C 23.265625 44.625 22.113281 45.195312 20.859375 45.277344 C 20.753906 45.28125 20.648438 45.285156 20.542969 45.285156 " fill-opacity="1" fill-rule="nonzero"/><path fill="#bff747" d="M 30.867188 37.4375 C 30.824219 37.4375 30.777344 37.445312 30.730469 37.445312 C 30.179688 37.480469 29.675781 37.726562 29.3125 38.144531 L 23.800781 44.425781 C 23.4375 44.839844 23.257812 45.371094 23.292969 45.921875 C 23.328125 46.46875 23.578125 46.972656 23.988281 47.335938 C 24.40625 47.699219 24.945312 47.871094 25.484375 47.84375 C 26.035156 47.808594 26.539062 47.5625 26.898438 47.144531 L 32.414062 40.859375 C 32.78125 40.449219 32.960938 39.917969 32.921875 39.367188 C 32.886719 38.816406 32.636719 38.316406 32.226562 37.949219 C 31.84375 37.617188 31.371094 37.4375 30.867188 37.4375 Z M 25.347656 50.496094 C 24.246094 50.496094 23.136719 50.117188 22.242188 49.328125 C 21.292969 48.496094 20.726562 47.351562 20.644531 46.09375 C 20.566406 44.835938 20.976562 43.621094 21.808594 42.675781 L 27.320312 36.394531 C 28.152344 35.449219 29.300781 34.878906 30.558594 34.800781 C 31.820312 34.714844 33.027344 35.128906 33.96875 35.957031 C 34.921875 36.792969 35.488281 37.9375 35.570312 39.195312 C 35.652344 40.453125 35.238281 41.667969 34.40625 42.613281 L 28.894531 48.898438 C 27.964844 49.957031 26.660156 50.496094 25.347656 50.496094 " fill-opacity="1" fill-rule="nonzero"/><path fill="#bff747" d="M 35.609375 42.132812 C 35.566406 42.132812 35.519531 42.132812 35.472656 42.136719 C 34.921875 42.171875 34.417969 42.421875 34.058594 42.835938 L 29.039062 48.550781 C 28.679688 48.964844 28.5 49.496094 28.535156 50.046875 C 28.570312 50.59375 28.816406 51.097656 29.230469 51.460938 C 29.644531 51.824219 30.1875 52.007812 30.726562 51.96875 C 31.277344 51.933594 31.777344 51.683594 32.144531 51.269531 L 37.15625 45.558594 C 37.519531 45.144531 37.703125 44.613281 37.667969 44.0625 C 37.628906 43.511719 37.378906 43.007812 36.96875 42.644531 C 36.585938 42.308594 36.109375 42.132812 35.609375 42.132812 Z M 30.585938 54.625 C 29.441406 54.625 28.351562 54.210938 27.484375 53.453125 C 26.535156 52.621094 25.96875 51.476562 25.886719 50.21875 C 25.808594 48.960938 26.21875 47.746094 27.050781 46.800781 L 32.0625 41.089844 C 33.78125 39.132812 36.761719 38.9375 38.714844 40.652344 C 40.671875 42.367188 40.867188 45.351562 39.152344 47.304688 L 34.136719 53.019531 C 33.300781 53.964844 32.15625 54.53125 30.898438 54.613281 C 30.792969 54.621094 30.691406 54.625 30.585938 54.625 " fill-opacity="1" fill-rule="nonzero"/><path fill="#bff747" d="M 39.519531 47.710938 C 38.953125 47.710938 38.378906 47.949219 37.96875 48.414062 L 35.082031 51.707031 C 34.332031 52.5625 34.417969 53.867188 35.269531 54.617188 C 36.125 55.367188 37.429688 55.28125 38.183594 54.429688 L 41.074219 51.132812 C 41.433594 50.71875 41.617188 50.1875 41.578125 49.640625 C 41.542969 49.085938 41.296875 48.585938 40.882812 48.222656 C 40.492188 47.878906 40.007812 47.710938 39.519531 47.710938 Z M 36.628906 57.78125 C 35.527344 57.78125 34.417969 57.394531 33.523438 56.613281 C 31.566406 54.894531 31.375 51.910156 33.085938 49.957031 L 35.976562 46.664062 C 36.808594 45.714844 37.957031 45.152344 39.214844 45.066406 C 40.484375 44.988281 41.683594 45.398438 42.628906 46.230469 C 43.578125 47.058594 44.144531 48.210938 44.226562 49.464844 C 44.308594 50.71875 43.898438 51.933594 43.0625 52.882812 L 40.175781 56.175781 C 39.246094 57.238281 37.941406 57.78125 36.628906 57.78125 " fill-opacity="1" fill-rule="nonzero"/><path fill="#bff747" d="M 66.925781 43.953125 C 65.917969 43.953125 64.925781 43.664062 64.046875 43.113281 L 51.796875 35.371094 C 51.175781 34.980469 50.992188 34.160156 51.382812 33.542969 C 51.777344 32.921875 52.59375 32.738281 53.210938 33.128906 L 65.464844 40.871094 C 66.089844 41.265625 66.828125 41.394531 67.546875 41.230469 C 68.261719 41.070312 68.875 40.636719 69.273438 40.011719 C 69.96875 38.910156 69.792969 37.449219 68.839844 36.542969 C 68.304688 36.03125 67.6875 35.617188 67.003906 35.308594 C 66.335938 35.011719 66.035156 34.226562 66.335938 33.558594 C 66.636719 32.890625 67.421875 32.597656 68.089844 32.890625 C 69.046875 33.320312 69.914062 33.902344 70.671875 34.621094 C 72.53125 36.398438 72.886719 39.257812 71.511719 41.429688 C 70.742188 42.652344 69.539062 43.5 68.128906 43.820312 C 67.734375 43.910156 67.328125 43.953125 66.925781 43.953125 " fill-opacity="1" fill-rule="nonzero"/><path fill="#bff747" d="M 62.167969 47.503906 C 61.058594 47.503906 59.941406 47.257812 58.878906 46.734375 L 48.78125 41.75 C 48.125 41.425781 47.851562 40.632812 48.175781 39.976562 C 48.5 39.320312 49.285156 39.050781 49.953125 39.371094 L 60.054688 44.355469 C 62.242188 45.4375 64.882812 44.695312 66.183594 42.628906 C 66.574219 42.007812 67.394531 41.828125 68.011719 42.214844 C 68.632812 42.605469 68.816406 43.425781 68.425781 44.046875 C 67.023438 46.265625 64.632812 47.503906 62.167969 47.503906 " fill-opacity="1" fill-rule="nonzero"/><path fill="#bff747" d="M 56.1875 51.058594 C 55.351562 51.058594 54.511719 50.882812 53.71875 50.503906 L 49.519531 48.53125 C 48.855469 48.222656 48.574219 47.433594 48.886719 46.769531 C 49.195312 46.109375 49.976562 45.820312 50.648438 46.132812 L 54.84375 48.109375 C 56.289062 48.785156 58.023438 48.28125 58.878906 46.929688 L 59.875 45.351562 C 60.269531 44.730469 61.085938 44.546875 61.707031 44.9375 C 62.324219 45.328125 62.507812 46.148438 62.121094 46.765625 L 61.117188 48.347656 C 60.023438 50.085938 58.132812 51.058594 56.1875 51.058594 " fill-opacity="1" fill-rule="nonzero"/><path fill="#bff747" d="M 49.992188 56.003906 C 48.886719 56.003906 47.757812 55.789062 46.675781 55.34375 L 41.5625 53.234375 C 40.886719 52.953125 40.566406 52.179688 40.84375 51.503906 C 41.121094 50.828125 41.902344 50.503906 42.578125 50.785156 L 47.683594 52.894531 C 50.09375 53.886719 52.789062 53.238281 54.261719 51.332031 C 54.382812 51.175781 54.488281 51.023438 54.59375 50.863281 L 55.46875 49.476562 C 55.859375 48.859375 56.675781 48.675781 57.296875 49.0625 C 57.917969 49.457031 58.101562 50.273438 57.707031 50.894531 L 56.832031 52.277344 C 56.683594 52.515625 56.527344 52.738281 56.355469 52.960938 C 54.839844 54.925781 52.46875 56.003906 49.992188 56.003906 " fill-opacity="1" fill-rule="nonzero"/></svg>