<svg xmlns="http://www.w3.org/2000/svg" xmlns:xlink="http://www.w3.org/1999/xlink" width="34" zoomAndPan="magnify" viewBox="0 0 25.5 27.749999" height="37" preserveAspectRatio="xMidYMid meet" version="1.0"><defs><clipPath id="af8be8c58c"><path d="M 0 0.144531 L 24.273438 0.144531 L 24.273438 26.625 L 0 26.625 Z M 0 0.144531 " clip-rule="nonzero"/></clipPath></defs><g clip-path="url(#af8be8c58c)"><path fill="#8f57ff" d="M 11.058594 0.257812 C 4.445312 0.257812 0 2.710938 0 4.996094 C 0 7.289062 4.445312 9.738281 11.058594 9.738281 C 17.675781 9.738281 22.117188 7.289062 22.117188 4.996094 C 22.117188 2.710938 17.675781 0.257812 11.058594 0.257812 Z M 0 7.425781 L 0 10.34375 C 0 12.59375 4.445312 15.003906 11.058594 15.003906 C 17.675781 15.003906 22.117188 12.59375 22.117188 10.34375 L 22.117188 7.425781 C 20.183594 9.402344 16.015625 10.792969 11.058594 10.792969 C 6.101562 10.792969 1.933594 9.402344 0 7.425781 Z M 0 12.851562 L 0 15.632812 C 0 17.453125 2.90625 19.359375 7.511719 20.023438 L 7.5625 19.746094 L 11.25 19.746094 C 11.894531 19.746094 12.46875 19.90625 12.941406 20.199219 C 13 20.195312 13.054688 20.191406 13.113281 20.1875 L 13.644531 17.636719 L 17.179688 17.636719 L 16.769531 19.589844 C 20.101562 18.71875 22.117188 17.148438 22.117188 15.632812 L 22.117188 12.851562 C 20.183594 14.828125 16.015625 16.058594 11.058594 16.058594 C 6.101562 16.058594 1.933594 14.828125 0 12.851562 Z M 0 18.140625 L 0 20.875 C 0 22.570312 2.511719 24.351562 6.570312 25.128906 L 7.316406 21.078125 C 4.054688 20.628906 1.421875 19.59375 0 18.140625 Z M 22.117188 18.140625 C 21.519531 18.753906 20.703125 19.292969 19.714844 19.746094 L 22.117188 19.746094 Z M 14.5 18.691406 L 13.179688 25.011719 L 14.5625 25.011719 L 15.230469 21.851562 L 16.335938 21.851562 C 16.6875 21.851562 16.917969 21.910156 17.027344 22.027344 C 17.136719 22.144531 17.160156 22.363281 17.097656 22.683594 L 16.59375 25.011719 L 17.996094 25.011719 L 18.542969 22.496094 C 18.660156 21.890625 18.570312 21.449219 18.28125 21.179688 C 17.980469 20.90625 17.457031 20.796875 16.675781 20.796875 L 15.441406 20.796875 L 15.882812 18.691406 Z M 8.441406 20.796875 L 7.371094 26.589844 L 8.765625 26.589844 L 9.042969 25.011719 L 9.910156 25.011719 C 11.726562 25.011719 12.714844 24.589844 13.082031 23.03125 C 13.398438 21.695312 12.585938 20.796875 11.25 20.796875 Z M 19.5 20.796875 L 18.429688 26.589844 L 19.824219 26.589844 L 20.101562 25.011719 L 20.96875 25.011719 C 22.785156 25.011719 23.773438 24.589844 24.140625 23.03125 C 24.457031 21.695312 23.648438 20.796875 22.308594 20.796875 Z M 9.636719 21.851562 L 10.722656 21.851562 C 11.621094 21.851562 11.8125 22.257812 11.765625 22.707031 C 11.644531 23.871094 10.917969 23.957031 10.140625 23.957031 L 9.242188 23.957031 Z M 20.695312 21.851562 L 21.78125 21.851562 C 22.679688 21.851562 22.871094 22.257812 22.824219 22.707031 C 22.703125 23.871094 21.980469 23.957031 21.199219 23.957031 L 20.300781 23.957031 Z M 20.695312 21.851562 " fill-opacity="1" fill-rule="nonzero"/></g></svg>