<svg xmlns="http://www.w3.org/2000/svg" xmlns:xlink="http://www.w3.org/1999/xlink" width="38" zoomAndPan="magnify" viewBox="0 0 28.5 22.5" height="30" preserveAspectRatio="xMidYMid meet" version="1.0"><defs><clipPath id="1a92f1217b"><path d="M 0.0664062 0 L 27.210938 0 L 27.210938 22 L 0.0664062 22 Z M 0.0664062 0 " clip-rule="nonzero"/></clipPath></defs><g clip-path="url(#1a92f1217b)"><path fill="#9058ff" d="M 27.441406 14.4375 L 23.53125 0.921875 C 23.335938 0.371094 22.816406 0 22.234375 0 L 5.375 0 C 4.78125 0.00390625 4.253906 0.390625 4.070312 0.957031 L 0.167969 14.425781 C 0.101562 14.640625 0.0703125 14.863281 0.0703125 15.085938 L 0.0703125 19.777344 C 0.0703125 20.992188 1.054688 21.976562 2.265625 21.976562 L 25.34375 21.976562 C 26.554688 21.976562 27.539062 20.992188 27.539062 19.777344 L 27.539062 15.085938 C 27.539062 14.867188 27.507812 14.648438 27.441406 14.4375 Z M 5.125 1.285156 C 5.160156 1.175781 5.261719 1.101562 5.375 1.097656 L 22.234375 1.097656 C 22.339844 1.097656 22.4375 1.15625 22.484375 1.253906 L 25.96875 13.285156 C 25.765625 13.222656 25.554688 13.1875 25.34375 13.1875 L 2.265625 13.1875 C 2.054688 13.1875 1.84375 13.222656 1.640625 13.285156 Z M 26.441406 19.777344 C 26.441406 20.386719 25.949219 20.878906 25.34375 20.878906 L 2.265625 20.878906 C 1.660156 20.878906 1.167969 20.386719 1.167969 19.777344 L 1.167969 15.382812 C 1.167969 14.777344 1.660156 14.285156 2.265625 14.285156 L 25.34375 14.285156 C 25.949219 14.285156 26.441406 14.777344 26.441406 15.382812 Z M 5.5625 17.582031 C 5.5625 18.1875 5.070312 18.679688 4.464844 18.679688 C 3.859375 18.679688 3.367188 18.1875 3.367188 17.582031 C 3.367188 16.972656 3.859375 16.480469 4.464844 16.480469 C 5.070312 16.480469 5.5625 16.972656 5.5625 17.582031 Z M 8.859375 17.582031 C 8.859375 18.1875 8.367188 18.679688 7.761719 18.679688 C 7.15625 18.679688 6.664062 18.1875 6.664062 17.582031 C 6.664062 16.972656 7.15625 16.480469 7.761719 16.480469 C 8.367188 16.480469 8.859375 16.972656 8.859375 17.582031 Z M 12.15625 17.582031 C 12.15625 18.1875 11.664062 18.679688 11.058594 18.679688 C 10.449219 18.679688 9.957031 18.1875 9.957031 17.582031 C 9.957031 16.972656 10.449219 16.480469 11.058594 16.480469 C 11.664062 16.480469 12.15625 16.972656 12.15625 17.582031 Z M 14.355469 16.480469 L 24.242188 16.480469 L 24.242188 17.582031 L 14.355469 17.582031 Z M 14.355469 16.480469 " fill-opacity="1" fill-rule="nonzero"/></g></svg>