<svg xmlns="http://www.w3.org/2000/svg" xmlns:xlink="http://www.w3.org/1999/xlink" width="27" zoomAndPan="magnify" viewBox="0 0 20.25 25.499999" height="34" preserveAspectRatio="xMidYMid meet" version="1.0"><defs><clipPath id="ad9ee7eec2"><path d="M 0 0.214844 L 18.804688 0.214844 L 18.804688 21.910156 L 0 21.910156 Z M 0 0.214844 " clip-rule="nonzero"/></clipPath></defs><g clip-path="url(#ad9ee7eec2)"><path fill="#7b34e9" d="M 9.507812 9.605469 L 10.339844 9.605469 L 9.675781 10.964844 C 9.570312 11.183594 9.730469 11.4375 9.972656 11.4375 L 10.894531 11.4375 L 9.308594 13.511719 L 9.628906 12.550781 C 9.699219 12.339844 9.542969 12.117188 9.316406 12.117188 L 8.296875 12.117188 Z M 7.773438 12.773438 L 8.863281 12.773438 L 8.070312 15.160156 C 7.957031 15.511719 8.425781 15.75 8.644531 15.460938 L 11.824219 11.308594 C 11.988281 11.09375 11.828125 10.78125 11.5625 10.78125 L 10.496094 10.78125 L 11.15625 9.421875 C 11.265625 9.203125 11.105469 8.949219 10.863281 8.949219 L 9.300781 8.949219 C 9.175781 8.949219 9.0625 9.019531 9.007812 9.132812 L 7.476562 12.304688 C 7.375 12.519531 7.53125 12.773438 7.773438 12.773438 Z M 18.25 13.128906 L 18.25 12.035156 L 14.25 12.035156 C 14.480469 14.816406 12.257812 17.230469 9.453125 17.230469 C 6.644531 17.230469 4.425781 14.816406 4.65625 12.035156 L 0.65625 12.035156 L 0.65625 13.128906 C 0.65625 13.230469 0.714844 13.3125 0.8125 13.34375 L 1.972656 13.71875 C 2.082031 13.757812 2.167969 13.851562 2.191406 13.964844 C 2.378906 14.855469 2.726562 15.695312 3.222656 16.457031 C 3.289062 16.558594 3.296875 16.683594 3.242188 16.785156 L 2.6875 17.875 C 2.640625 17.964844 2.660156 18.066406 2.730469 18.136719 L 3.734375 19.140625 C 3.804688 19.214844 3.90625 19.230469 3.996094 19.183594 L 5.085938 18.628906 C 5.1875 18.574219 5.3125 18.582031 5.410156 18.644531 C 6.175781 19.144531 7.015625 19.492188 7.90625 19.679688 C 8.023438 19.703125 8.113281 19.789062 8.152344 19.898438 L 8.527344 21.058594 C 8.558594 21.15625 8.640625 21.214844 8.742188 21.214844 L 10.164062 21.214844 C 10.265625 21.214844 10.347656 21.15625 10.378906 21.058594 L 10.753906 19.898438 C 10.792969 19.789062 10.882812 19.703125 11 19.679688 C 11.886719 19.492188 12.726562 19.144531 13.492188 18.644531 C 13.589844 18.582031 13.71875 18.574219 13.820312 18.628906 L 14.910156 19.183594 C 15 19.230469 15.097656 19.214844 15.171875 19.140625 L 16.175781 18.136719 C 16.246094 18.066406 16.261719 17.964844 16.21875 17.875 L 15.664062 16.789062 C 15.609375 16.683594 15.613281 16.558594 15.679688 16.460938 C 16.179688 15.695312 16.527344 14.855469 16.714844 13.964844 C 16.738281 13.851562 16.824219 13.757812 16.933594 13.71875 L 18.09375 13.34375 C 18.1875 13.3125 18.25 13.230469 18.25 13.128906 Z M 3.410156 6.347656 C 3.410156 6.058594 3.644531 5.824219 3.933594 5.824219 L 7 5.824219 L 7 8.28125 C 5.878906 8.949219 5.046875 10.0625 4.753906 11.378906 L 3.410156 11.378906 Z M 8.175781 3.347656 L 11.25 3.347656 L 11.25 7.953125 C 10.101562 7.492188 8.804688 7.492188 7.65625 7.953125 L 7.65625 3.871094 C 7.65625 3.582031 7.890625 3.347656 8.175781 3.347656 Z M 9.453125 8.261719 C 7.160156 8.261719 5.296875 10.128906 5.296875 12.417969 C 5.296875 14.710938 7.160156 16.574219 9.453125 16.574219 C 11.742188 16.574219 13.605469 14.710938 13.605469 12.417969 C 13.605469 10.128906 11.742188 8.261719 9.453125 8.261719 Z M 12.425781 0.871094 L 14.972656 0.871094 C 15.261719 0.871094 15.496094 1.105469 15.496094 1.390625 L 15.496094 11.378906 L 14.148438 11.378906 C 13.859375 10.0625 13.027344 8.949219 11.902344 8.28125 L 11.902344 1.390625 C 11.902344 1.105469 12.136719 0.871094 12.425781 0.871094 Z M 18.578125 11.378906 L 16.152344 11.378906 L 16.152344 1.390625 C 16.152344 0.742188 15.625 0.214844 14.972656 0.214844 L 12.425781 0.214844 C 11.773438 0.214844 11.25 0.742188 11.25 1.390625 L 11.25 2.691406 L 8.175781 2.691406 C 7.53125 2.691406 7 3.222656 7 3.871094 L 7 5.171875 L 3.933594 5.171875 C 3.28125 5.171875 2.753906 5.699219 2.753906 6.347656 L 2.753906 11.378906 L 0.328125 11.378906 C 0.148438 11.378906 0 11.527344 0 11.707031 L 0 13.128906 C 0 13.511719 0.246094 13.847656 0.609375 13.96875 L 1.589844 14.285156 C 1.789062 15.125 2.117188 15.921875 2.574219 16.65625 L 2.101562 17.578125 C 1.929688 17.917969 1.996094 18.328125 2.265625 18.601562 L 3.273438 19.605469 C 3.542969 19.875 3.953125 19.941406 4.292969 19.769531 L 5.214844 19.296875 C 5.949219 19.753906 6.746094 20.082031 7.585938 20.28125 L 7.902344 21.261719 C 8.023438 21.625 8.359375 21.871094 8.742188 21.871094 L 10.164062 21.871094 C 10.546875 21.871094 10.882812 21.625 11 21.261719 L 11.320312 20.28125 C 12.160156 20.082031 12.953125 19.753906 13.6875 19.296875 L 14.613281 19.769531 C 14.953125 19.941406 15.363281 19.875 15.632812 19.605469 L 16.640625 18.601562 C 16.910156 18.328125 16.976562 17.917969 16.800781 17.578125 L 16.332031 16.65625 C 16.785156 15.921875 17.117188 15.125 17.316406 14.285156 L 18.296875 13.96875 C 18.660156 13.847656 18.90625 13.511719 18.90625 13.128906 L 18.90625 11.707031 C 18.90625 11.527344 18.757812 11.378906 18.578125 11.378906 Z M 18.578125 11.378906 " fill-opacity="1" fill-rule="evenodd"/></g></svg>