<svg xmlns="http://www.w3.org/2000/svg" xmlns:xlink="http://www.w3.org/1999/xlink" width="45" zoomAndPan="magnify" viewBox="0 0 33.75 27.749998" height="37" preserveAspectRatio="xMidYMid meet" version="1.0"><defs><clipPath id="1772048182"><path d="M 0.0273438 0 L 33.476562 0 L 33.476562 26.757812 L 0.0273438 26.757812 Z M 0.0273438 0 " clip-rule="nonzero"/></clipPath></defs><path fill="#8f57ff" d="M 4.417969 19.257812 L 4.414062 19.257812 C 4.105469 19.257812 3.859375 19.507812 3.859375 19.8125 C 3.859375 20.121094 4.113281 20.371094 4.417969 20.371094 C 4.726562 20.371094 4.972656 20.121094 4.972656 19.8125 C 4.972656 19.507812 4.726562 19.257812 4.417969 19.257812 Z M 4.417969 19.257812 " fill-opacity="1" fill-rule="nonzero"/><path fill="#8f57ff" d="M 7.695312 19.257812 L 7.691406 19.257812 C 7.382812 19.257812 7.136719 19.507812 7.136719 19.8125 C 7.136719 20.121094 7.390625 20.371094 7.695312 20.371094 C 8.003906 20.371094 8.25 20.121094 8.25 19.8125 C 8.25 19.507812 8.003906 19.257812 7.695312 19.257812 Z M 7.695312 19.257812 " fill-opacity="1" fill-rule="nonzero"/><path fill="#8f57ff" d="M 10.972656 19.257812 L 10.964844 19.257812 C 10.660156 19.257812 10.414062 19.507812 10.414062 19.8125 C 10.414062 20.121094 10.664062 20.371094 10.972656 20.371094 C 11.277344 20.371094 11.527344 20.121094 11.527344 19.8125 C 11.527344 19.507812 11.277344 19.257812 10.972656 19.257812 Z M 10.972656 19.257812 " fill-opacity="1" fill-rule="nonzero"/><g clip-path="url(#1772048182)"><path fill="#8f57ff" d="M 27.917969 12.527344 C 27.601562 12.503906 27.25 12.492188 26.878906 12.488281 L 26.878906 8.242188 C 26.878906 8.242188 26.878906 8.238281 26.878906 8.234375 L 26.878906 0.535156 C 26.878906 0.230469 26.628906 -0.0195312 26.320312 -0.0195312 L 0.585938 -0.0195312 C 0.277344 -0.0195312 0.0273438 0.230469 0.0273438 0.535156 L 0.0273438 8.234375 C 0.0273438 8.238281 0.0273438 8.242188 0.0273438 8.242188 L 0.0273438 23.671875 C 0.0273438 23.980469 0.273438 24.226562 0.582031 24.226562 L 19.699219 24.226562 L 19.699219 24.5 C 19.699219 26.320312 23.992188 26.804688 26.527344 26.804688 C 29.066406 26.804688 33.359375 26.320312 33.359375 24.5 L 33.359375 14.78125 C 33.359375 12.988281 29.1875 12.605469 27.917969 12.527344 Z M 32.25 16.136719 L 32.25 19.609375 C 32.25 19.617188 32.25 19.621094 32.25 19.628906 C 32.25 19.628906 32.242188 19.636719 32.242188 19.640625 C 32.238281 19.644531 32.234375 19.648438 32.230469 19.65625 C 32.214844 19.675781 32.195312 19.703125 32.152344 19.746094 C 32.117188 19.777344 32.070312 19.8125 31.988281 19.867188 C 31.964844 19.882812 31.941406 19.898438 31.914062 19.914062 C 31.839844 19.957031 31.757812 19.992188 31.660156 20.039062 C 31.421875 20.148438 31.140625 20.25 30.816406 20.335938 C 30.679688 20.371094 30.539062 20.410156 30.390625 20.445312 C 30.242188 20.480469 30.089844 20.511719 29.933594 20.542969 C 29.613281 20.597656 29.265625 20.652344 28.910156 20.695312 L 28.347656 20.753906 C 27.964844 20.785156 27.566406 20.808594 27.152344 20.820312 C 26.945312 20.828125 26.734375 20.832031 26.527344 20.828125 L 26.328125 20.828125 C 25.613281 20.824219 24.878906 20.777344 24.152344 20.699219 C 23.792969 20.65625 23.445312 20.597656 23.121094 20.542969 C 22.964844 20.511719 22.816406 20.484375 22.667969 20.445312 C 22.519531 20.410156 22.375 20.371094 22.234375 20.335938 C 21.914062 20.25 21.632812 20.148438 21.394531 20.039062 C 21.300781 19.996094 21.222656 19.957031 21.144531 19.914062 C 21.113281 19.898438 21.085938 19.878906 21.039062 19.847656 C 20.984375 19.8125 20.941406 19.777344 20.871094 19.71875 C 20.824219 19.667969 20.8125 19.636719 20.808594 19.636719 L 20.808594 16.136719 C 20.8125 16.140625 20.820312 16.140625 20.824219 16.144531 C 20.90625 16.183594 21 16.222656 21.089844 16.261719 C 21.140625 16.28125 21.1875 16.304688 21.242188 16.324219 C 21.390625 16.382812 21.550781 16.441406 21.722656 16.492188 C 22.917969 16.851562 24.550781 17.0625 26.324219 17.082031 L 26.527344 17.082031 C 26.722656 17.082031 26.925781 17.078125 27.136719 17.070312 C 27.199219 17.070312 27.257812 17.066406 27.320312 17.0625 C 27.484375 17.058594 27.652344 17.050781 27.824219 17.039062 C 27.886719 17.035156 27.945312 17.035156 28.007812 17.027344 C 28.234375 17.015625 28.460938 16.996094 28.695312 16.972656 C 28.730469 16.96875 28.765625 16.964844 28.800781 16.960938 C 29 16.941406 29.195312 16.917969 29.394531 16.890625 C 29.460938 16.878906 29.53125 16.871094 29.597656 16.859375 C 29.78125 16.832031 29.960938 16.804688 30.140625 16.769531 C 30.191406 16.761719 30.246094 16.753906 30.296875 16.742188 C 30.519531 16.699219 30.738281 16.652344 30.945312 16.597656 C 30.992188 16.585938 31.035156 16.570312 31.082031 16.558594 C 31.246094 16.515625 31.40625 16.464844 31.558594 16.414062 C 31.617188 16.394531 31.671875 16.375 31.726562 16.355469 C 31.886719 16.296875 32.039062 16.234375 32.179688 16.164062 C 32.203125 16.15625 32.226562 16.148438 32.25 16.136719 Z M 1.136719 8.800781 L 25.769531 8.800781 L 25.769531 12.496094 C 25.757812 12.496094 25.75 12.5 25.742188 12.5 C 25.539062 12.503906 25.339844 12.515625 25.152344 12.527344 C 23.871094 12.605469 19.699219 12.988281 19.699219 14.78125 L 19.699219 15.40625 L 1.136719 15.40625 Z M 32.242188 14.78125 C 32.238281 14.792969 32.230469 14.804688 32.222656 14.8125 C 32.214844 14.824219 32.210938 14.835938 32.199219 14.847656 C 32.1875 14.863281 32.171875 14.878906 32.15625 14.890625 C 32.144531 14.902344 32.132812 14.914062 32.117188 14.929688 C 32.097656 14.945312 32.070312 14.960938 32.046875 14.976562 C 32.027344 14.988281 32.011719 15.003906 31.992188 15.015625 C 31.960938 15.035156 31.925781 15.050781 31.894531 15.070312 C 31.871094 15.082031 31.847656 15.097656 31.824219 15.109375 C 31.785156 15.128906 31.742188 15.148438 31.699219 15.167969 C 31.671875 15.179688 31.644531 15.195312 31.613281 15.207031 C 31.570312 15.226562 31.519531 15.246094 31.46875 15.265625 C 31.433594 15.277344 31.402344 15.292969 31.363281 15.304688 C 31.3125 15.324219 31.253906 15.34375 31.195312 15.363281 C 31.152344 15.378906 31.117188 15.390625 31.074219 15.40625 C 31.011719 15.425781 30.941406 15.445312 30.878906 15.460938 C 30.832031 15.476562 30.789062 15.488281 30.738281 15.503906 C 30.671875 15.519531 30.597656 15.539062 30.527344 15.554688 C 30.472656 15.570312 30.417969 15.582031 30.363281 15.597656 C 30.285156 15.613281 30.203125 15.628906 30.121094 15.648438 C 30.0625 15.660156 30.003906 15.671875 29.945312 15.683594 C 29.859375 15.699219 29.765625 15.714844 29.671875 15.730469 C 29.609375 15.742188 29.546875 15.753906 29.480469 15.761719 C 29.390625 15.777344 29.289062 15.789062 29.191406 15.800781 C 29.121094 15.8125 29.050781 15.824219 28.976562 15.832031 C 28.875 15.84375 28.761719 15.855469 28.65625 15.867188 C 28.578125 15.875 28.507812 15.882812 28.429688 15.890625 C 28.3125 15.898438 28.1875 15.90625 28.0625 15.914062 C 27.988281 15.921875 27.917969 15.925781 27.839844 15.933594 C 27.710938 15.941406 27.574219 15.945312 27.4375 15.949219 C 27.359375 15.953125 27.285156 15.957031 27.203125 15.960938 C 26.984375 15.964844 26.761719 15.96875 26.527344 15.96875 L 26.328125 15.96875 C 24.664062 15.949219 23.140625 15.757812 22.042969 15.429688 C 21.125 15.144531 20.839844 14.859375 20.8125 14.785156 C 20.929688 14.472656 22.363281 13.804688 25.21875 13.636719 C 25.570312 13.613281 25.941406 13.601562 26.320312 13.601562 C 26.339844 13.601562 26.359375 13.597656 26.378906 13.597656 C 26.410156 13.59375 26.445312 13.59375 26.480469 13.59375 C 26.96875 13.597656 27.433594 13.605469 27.839844 13.636719 C 30.671875 13.804688 32.105469 14.464844 32.242188 14.78125 Z M 25.765625 1.089844 L 25.765625 7.6875 L 1.140625 7.6875 L 1.140625 1.089844 Z M 1.136719 23.117188 L 1.136719 16.515625 L 19.699219 16.515625 L 19.699219 23.117188 Z M 26.527344 25.691406 C 22.765625 25.691406 20.910156 24.832031 20.808594 24.5 L 20.808594 20.992188 C 20.847656 21.007812 20.886719 21.027344 20.929688 21.046875 C 21.222656 21.183594 21.566406 21.304688 21.945312 21.40625 C 22.09375 21.445312 22.242188 21.488281 22.40625 21.527344 C 22.574219 21.566406 22.742188 21.601562 22.917969 21.632812 C 22.917969 21.632812 22.921875 21.636719 22.925781 21.636719 C 22.925781 21.636719 22.925781 21.636719 22.929688 21.636719 C 22.9375 21.636719 22.945312 21.640625 22.953125 21.640625 C 23.257812 21.699219 23.605469 21.75 24.019531 21.800781 C 24.019531 21.800781 24.023438 21.800781 24.023438 21.800781 C 24.023438 21.800781 24.023438 21.800781 24.027344 21.800781 C 24.796875 21.886719 25.566406 21.933594 26.324219 21.9375 L 26.53125 21.9375 C 26.753906 21.9375 26.96875 21.9375 27.1875 21.933594 C 27.621094 21.917969 28.039062 21.894531 28.449219 21.859375 L 29.039062 21.800781 C 29.46875 21.75 29.828125 21.695312 30.140625 21.632812 C 30.316406 21.601562 30.484375 21.566406 30.65625 21.527344 C 30.816406 21.488281 30.964844 21.445312 31.109375 21.410156 C 31.492188 21.304688 31.832031 21.183594 32.140625 21.042969 C 32.179688 21.023438 32.214844 21.007812 32.25 20.992188 L 32.25 24.488281 C 32.144531 24.832031 30.292969 25.691406 26.527344 25.691406 Z M 26.527344 25.691406 " fill-opacity="1" fill-rule="nonzero"/></g><path fill="#8f57ff" d="M 4.417969 11.546875 L 4.414062 11.546875 C 4.105469 11.546875 3.859375 11.796875 3.859375 12.101562 C 3.859375 12.410156 4.113281 12.65625 4.417969 12.65625 C 4.726562 12.65625 4.972656 12.410156 4.972656 12.101562 C 4.972656 11.796875 4.726562 11.546875 4.417969 11.546875 Z M 4.417969 11.546875 " fill-opacity="1" fill-rule="nonzero"/><path fill="#8f57ff" d="M 7.695312 11.546875 L 7.691406 11.546875 C 7.382812 11.546875 7.136719 11.796875 7.136719 12.101562 C 7.136719 12.410156 7.390625 12.65625 7.695312 12.65625 C 8.003906 12.65625 8.25 12.410156 8.25 12.101562 C 8.25 11.796875 8.003906 11.546875 7.695312 11.546875 Z M 7.695312 11.546875 " fill-opacity="1" fill-rule="nonzero"/><path fill="#8f57ff" d="M 10.972656 11.546875 L 10.964844 11.546875 C 10.660156 11.546875 10.414062 11.796875 10.414062 12.101562 C 10.414062 12.410156 10.664062 12.65625 10.972656 12.65625 C 11.277344 12.65625 11.527344 12.410156 11.527344 12.101562 C 11.527344 11.796875 11.277344 11.546875 10.972656 11.546875 Z M 10.972656 11.546875 " fill-opacity="1" fill-rule="nonzero"/><path fill="#8f57ff" d="M 4.417969 4.945312 C 4.726562 4.945312 4.972656 4.699219 4.972656 4.390625 C 4.972656 4.085938 4.726562 3.835938 4.417969 3.835938 L 4.414062 3.835938 C 4.105469 3.835938 3.859375 4.085938 3.859375 4.390625 C 3.859375 4.699219 4.113281 4.945312 4.417969 4.945312 Z M 4.417969 4.945312 " fill-opacity="1" fill-rule="nonzero"/><path fill="#8f57ff" d="M 7.695312 4.945312 C 8.003906 4.945312 8.25 4.699219 8.25 4.390625 C 8.25 4.085938 8.003906 3.835938 7.695312 3.835938 L 7.691406 3.835938 C 7.382812 3.835938 7.136719 4.085938 7.136719 4.390625 C 7.136719 4.699219 7.390625 4.945312 7.695312 4.945312 Z M 7.695312 4.945312 " fill-opacity="1" fill-rule="nonzero"/><path fill="#8f57ff" d="M 10.972656 4.945312 C 11.277344 4.945312 11.527344 4.699219 11.527344 4.390625 C 11.527344 4.085938 11.277344 3.835938 10.972656 3.835938 L 10.964844 3.835938 C 10.660156 3.835938 10.414062 4.085938 10.414062 4.390625 C 10.414062 4.699219 10.664062 4.945312 10.972656 4.945312 Z M 10.972656 4.945312 " fill-opacity="1" fill-rule="nonzero"/></svg>