<svg xmlns="http://www.w3.org/2000/svg" xmlns:xlink="http://www.w3.org/1999/xlink" width="52" zoomAndPan="magnify" viewBox="0 0 39 47.25" height="63" preserveAspectRatio="xMidYMid meet" version="1.0"><defs><clipPath id="7283c9cc47"><path d="M 0.304688 19 L 37.957031 19 L 37.957031 45 L 0.304688 45 Z M 0.304688 19 " clip-rule="nonzero"/></clipPath><clipPath id="c7fe8edb13"><path d="M 0.304688 13 L 37.957031 13 L 37.957031 21 L 0.304688 21 Z M 0.304688 13 " clip-rule="nonzero"/></clipPath><clipPath id="4e227fff7c"><path d="M 0.304688 9 L 18 9 L 18 16 L 0.304688 16 Z M 0.304688 9 " clip-rule="nonzero"/></clipPath></defs><path fill="#bff747" d="M 18.046875 30.464844 C 17.84375 30.464844 17.679688 30.296875 17.679688 30.085938 C 17.679688 29.789062 17.652344 29.292969 17.601562 28.949219 C 17.328125 28.914062 16.960938 28.890625 16.65625 28.871094 C 16.382812 28.84375 16.15625 28.828125 16.015625 28.808594 C 15.089844 28.6875 14.320312 28.519531 13.601562 28.285156 C 13.410156 28.222656 13.296875 28.015625 13.367188 27.820312 C 13.425781 27.628906 13.636719 27.515625 13.828125 27.585938 C 14.503906 27.804688 15.230469 27.960938 16.121094 28.074219 C 16.234375 28.09375 16.460938 28.109375 16.707031 28.128906 C 17.164062 28.164062 17.6875 28.199219 17.984375 28.257812 C 18.125 28.285156 18.230469 28.390625 18.265625 28.519531 C 18.414062 29.019531 18.414062 30.042969 18.414062 30.085938 C 18.414062 30.296875 18.246094 30.464844 18.046875 30.464844 Z M 18.046875 30.464844 " fill-opacity="1" fill-rule="evenodd"/><path fill="#abb1b1" d="M 12.691406 45.859375 C 12.316406 45.859375 11.941406 45.753906 11.597656 45.5625 C 8.851562 43.945312 6.578125 41.636719 5.003906 38.886719 C 3.429688 36.140625 2.597656 33 2.597656 29.824219 C 2.597656 28.015625 2.824219 25.792969 4.625 24.628906 C 5.648438 23.953125 6.769531 23.867188 7.863281 23.789062 C 8.019531 23.769531 8.1875 23.761719 8.351562 23.746094 C 9.675781 23.605469 10.617188 23.316406 11.597656 22.746094 C 11.941406 22.554688 12.316406 22.449219 12.691406 22.449219 C 13.070312 22.449219 13.453125 22.554688 13.785156 22.746094 C 14.746094 23.316406 15.683594 23.605469 17.023438 23.746094 C 17.179688 23.761719 17.347656 23.769531 17.511719 23.789062 C 18.605469 23.867188 19.734375 23.964844 20.742188 24.628906 C 22.558594 25.808594 22.796875 28.023438 22.796875 29.824219 C 22.796875 33 21.957031 36.132812 20.375 38.886719 C 18.796875 41.636719 16.523438 43.945312 13.792969 45.554688 C 13.453125 45.753906 13.070312 45.859375 12.691406 45.859375 Z M 12.691406 23.195312 C 12.4375 23.195312 12.195312 23.253906 11.964844 23.386719 C 10.890625 24.015625 9.867188 24.332031 8.421875 24.480469 C 8.25 24.496094 8.082031 24.515625 7.914062 24.523438 C 6.875 24.601562 5.894531 24.679688 5.027344 25.25 C 3.53125 26.21875 3.332031 28.101562 3.332031 29.824219 C 3.332031 35.992188 6.648438 41.785156 11.964844 44.925781 C 12.195312 45.054688 12.4375 45.117188 12.691406 45.117188 C 12.945312 45.117188 13.191406 45.054688 13.417969 44.914062 C 18.746094 41.765625 22.054688 35.984375 22.054688 29.824219 C 22.054688 28.214844 21.859375 26.238281 20.328125 25.25 C 19.488281 24.679688 18.5 24.601562 17.453125 24.523438 C 17.285156 24.515625 17.117188 24.496094 16.945312 24.480469 C 15.492188 24.332031 14.46875 24.015625 13.417969 23.386719 C 13.191406 23.253906 12.945312 23.195312 12.691406 23.195312 Z M 12.691406 23.195312 " fill-opacity="1" fill-rule="evenodd"/><path fill="#bff747" d="M 12.691406 43.480469 C 12.632812 43.480469 12.5625 43.464844 12.507812 43.429688 C 10.214844 42.082031 8.300781 40.164062 6.972656 37.882812 C 5.589844 35.527344 4.863281 32.835938 4.863281 30.085938 C 4.863281 28.371094 5.140625 27.359375 5.773438 26.78125 C 6.382812 26.230469 7.234375 26.160156 8.203125 26.082031 C 9.375 25.984375 10.835938 25.863281 12.507812 24.882812 C 12.621094 24.8125 12.761719 24.8125 12.882812 24.882812 C 14.539062 25.863281 15.992188 25.984375 17.164062 26.082031 C 18.132812 26.160156 18.980469 26.230469 19.585938 26.78125 C 20.222656 27.359375 20.503906 28.371094 20.503906 30.085938 C 20.503906 32.835938 19.777344 35.527344 18.394531 37.882812 C 17.066406 40.164062 15.160156 42.082031 12.882812 43.429688 C 12.824219 43.464844 12.761719 43.480469 12.691406 43.480469 Z M 12.691406 25.625 C 10.960938 26.597656 9.472656 26.71875 8.265625 26.816406 C 7.390625 26.886719 6.699219 26.945312 6.269531 27.332031 C 5.816406 27.742188 5.597656 28.625 5.597656 30.085938 C 5.597656 35.214844 8.308594 40.015625 12.691406 42.675781 C 17.058594 40.007812 19.761719 35.203125 19.761719 30.085938 C 19.761719 28.625 19.550781 27.742188 19.085938 27.332031 C 18.667969 26.945312 17.976562 26.886719 17.101562 26.816406 C 15.902344 26.71875 14.414062 26.597656 12.691406 25.625 Z M 12.691406 25.625 " fill-opacity="1" fill-rule="evenodd"/><path fill="#bff747" d="M 11.792969 37.445312 C 11.363281 37.445312 10.960938 37.277344 10.652344 36.972656 L 9.078125 35.398438 C 8.773438 35.089844 8.597656 34.679688 8.597656 34.25 C 8.597656 33.824219 8.773438 33.421875 9.078125 33.113281 C 9.386719 32.808594 9.789062 32.640625 10.214844 32.640625 C 10.644531 32.640625 11.046875 32.808594 11.355469 33.113281 L 11.78125 33.558594 L 14.003906 31.339844 C 14.3125 31.03125 14.722656 30.867188 15.152344 30.867188 C 15.578125 30.867188 15.980469 31.03125 16.289062 31.339844 C 16.917969 31.96875 16.917969 32.992188 16.289062 33.613281 L 12.929688 36.972656 C 12.621094 37.277344 12.21875 37.445312 11.792969 37.445312 Z M 10.214844 33.386719 C 9.988281 33.386719 9.769531 33.472656 9.605469 33.640625 C 9.4375 33.804688 9.339844 34.023438 9.339844 34.25 C 9.339844 34.488281 9.4375 34.707031 9.605469 34.871094 L 11.179688 36.449219 C 11.34375 36.613281 11.5625 36.710938 11.792969 36.710938 C 12.027344 36.710938 12.246094 36.613281 12.414062 36.449219 L 15.761719 33.097656 C 16.113281 32.746094 16.113281 32.203125 15.761719 31.863281 C 15.597656 31.695312 15.378906 31.601562 15.152344 31.601562 C 14.914062 31.601562 14.695312 31.695312 14.53125 31.863281 L 12.042969 34.347656 C 11.976562 34.417969 11.878906 34.460938 11.78125 34.460938 C 11.675781 34.460938 11.589844 34.417969 11.519531 34.347656 L 10.828125 33.640625 C 10.664062 33.472656 10.445312 33.386719 10.214844 33.386719 Z M 10.214844 33.386719 " fill-opacity="1" fill-rule="evenodd"/><g clip-path="url(#7283c9cc47)"><path fill="#abb1b1" d="M 34.511719 44.609375 L 15.089844 44.609375 C 14.886719 44.609375 14.722656 44.441406 14.722656 44.242188 C 14.722656 44.03125 14.886719 43.867188 15.089844 43.867188 L 34.511719 43.867188 C 36.136719 43.867188 37.46875 42.554688 37.46875 40.925781 L 37.46875 19.667969 C 37.46875 19.46875 37.632812 19.300781 37.84375 19.300781 C 38.042969 19.300781 38.210938 19.46875 38.210938 19.667969 L 38.210938 40.925781 C 38.210938 42.957031 36.546875 44.609375 34.511719 44.609375 Z M 10.269531 44.609375 L 3.988281 44.609375 C 1.957031 44.609375 0.304688 42.957031 0.304688 40.925781 L 0.304688 19.667969 C 0.304688 19.46875 0.472656 19.300781 0.671875 19.300781 C 0.882812 19.300781 1.046875 19.46875 1.046875 19.667969 L 1.046875 40.925781 C 1.046875 42.554688 2.359375 43.867188 3.988281 43.867188 L 10.269531 43.867188 C 10.480469 43.867188 10.644531 44.03125 10.644531 44.242188 C 10.644531 44.441406 10.480469 44.609375 10.269531 44.609375 Z M 10.269531 44.609375 " fill-opacity="1" fill-rule="evenodd"/></g><g clip-path="url(#c7fe8edb13)"><path fill="#abb1b1" d="M 37.84375 20.042969 L 0.671875 20.042969 C 0.472656 20.042969 0.304688 19.878906 0.304688 19.667969 L 0.304688 13.5625 C 0.304688 13.359375 0.472656 13.195312 0.671875 13.195312 C 0.882812 13.195312 1.046875 13.359375 1.046875 13.5625 L 1.046875 19.300781 L 37.46875 19.300781 L 37.46875 15.742188 C 37.46875 14.742188 36.671875 13.929688 35.683594 13.929688 L 27.714844 13.929688 C 27.503906 13.929688 27.335938 13.761719 27.335938 13.5625 C 27.335938 13.359375 27.503906 13.195312 27.714844 13.195312 L 35.683594 13.195312 C 37.074219 13.195312 38.210938 14.332031 38.210938 15.742188 L 38.210938 19.667969 C 38.210938 19.878906 38.042969 20.042969 37.84375 20.042969 Z M 24.398438 13.929688 L 22.558594 13.929688 C 22.351562 13.929688 22.183594 13.761719 22.183594 13.5625 C 22.183594 13.359375 22.351562 13.195312 22.558594 13.195312 L 24.398438 13.195312 C 24.605469 13.195312 24.773438 13.359375 24.773438 13.5625 C 24.773438 13.761719 24.605469 13.929688 24.398438 13.929688 Z M 19.226562 13.929688 L 17.46875 13.929688 C 17.265625 13.929688 17.101562 13.761719 17.101562 13.5625 C 17.101562 13.359375 17.265625 13.195312 17.46875 13.195312 L 19.226562 13.195312 C 19.429688 13.195312 19.59375 13.359375 19.59375 13.5625 C 19.59375 13.761719 19.429688 13.929688 19.226562 13.929688 Z M 19.226562 13.929688 " fill-opacity="1" fill-rule="evenodd"/></g><path fill="#abb1b1" d="M 22.753906 20.042969 C 22.628906 20.042969 22.507812 19.972656 22.4375 19.859375 L 18.746094 13.484375 C 18.597656 13.222656 18.5625 12.914062 18.648438 12.625 C 18.726562 12.335938 18.921875 12.09375 19.175781 11.953125 L 20.347656 11.269531 C 20.609375 11.121094 20.90625 11.078125 21.195312 11.148438 C 21.492188 11.226562 21.730469 11.410156 21.878906 11.671875 L 26.382812 19.484375 C 26.488281 19.660156 26.425781 19.886719 26.253906 19.992188 C 26.078125 20.097656 25.847656 20.035156 25.746094 19.851562 L 21.238281 12.039062 C 21.1875 11.953125 21.109375 11.890625 21.011719 11.863281 C 20.914062 11.847656 20.800781 11.855469 20.714844 11.910156 L 19.542969 12.589844 C 19.453125 12.644531 19.394531 12.730469 19.359375 12.828125 C 19.332031 12.921875 19.339844 13.027344 19.394531 13.117188 L 23.078125 19.484375 C 23.179688 19.660156 23.121094 19.886719 22.945312 19.992188 C 22.882812 20.027344 22.824219 20.042969 22.753906 20.042969 Z M 22.753906 20.042969 " fill-opacity="1" fill-rule="evenodd"/><path fill="#abb1b1" d="M 31.238281 20.042969 C 31.117188 20.042969 30.992188 19.972656 30.921875 19.851562 L 26.410156 12.039062 C 26.3125 11.863281 26.078125 11.804688 25.894531 11.910156 L 24.722656 12.589844 C 24.710938 12.601562 24.710938 12.601562 24.703125 12.601562 C 24.597656 12.660156 24.554688 12.75 24.527344 12.816406 C 24.503906 12.914062 24.519531 13.019531 24.5625 13.117188 L 28.253906 19.484375 C 28.351562 19.660156 28.289062 19.886719 28.117188 19.992188 C 27.941406 20.097656 27.714844 20.035156 27.609375 19.859375 L 23.925781 13.484375 C 23.777344 13.210938 23.734375 12.898438 23.820312 12.609375 C 23.90625 12.320312 24.089844 12.09375 24.355469 11.953125 L 25.527344 11.261719 C 26.066406 10.953125 26.757812 11.136719 27.058594 11.671875 L 31.5625 19.484375 C 31.667969 19.660156 31.605469 19.886719 31.429688 19.992188 C 31.371094 20.027344 31.308594 20.042969 31.238281 20.042969 Z M 31.238281 20.042969 " fill-opacity="1" fill-rule="evenodd"/><g clip-path="url(#4e227fff7c)"><path fill="#abb1b1" d="M 0.671875 15.511719 C 0.472656 15.511719 0.304688 15.347656 0.304688 15.136719 L 0.304688 10.9375 C 0.304688 9.941406 1.109375 9.125 2.097656 9.125 L 14.554688 9.125 C 15.457031 9.125 15.824219 9.84375 16.15625 10.484375 C 16.210938 10.578125 16.253906 10.667969 16.304688 10.761719 L 17.792969 13.378906 C 17.886719 13.554688 17.828125 13.78125 17.652344 13.886719 C 17.476562 13.980469 17.25 13.921875 17.144531 13.746094 L 15.65625 11.121094 C 15.605469 11.023438 15.554688 10.921875 15.5 10.824219 C 15.183594 10.210938 14.984375 9.871094 14.554688 9.871094 L 2.097656 9.871094 C 1.519531 9.871094 1.046875 10.351562 1.046875 10.9375 L 1.046875 15.136719 C 1.046875 15.347656 0.882812 15.511719 0.671875 15.511719 Z M 0.671875 15.511719 " fill-opacity="1" fill-rule="evenodd"/></g><path fill="#abb1b1" d="M 35.175781 17.882812 L 32.15625 17.882812 C 31.449219 17.882812 30.871094 17.316406 30.871094 16.605469 C 30.871094 15.925781 31.457031 15.347656 32.15625 15.347656 L 35.175781 15.347656 C 35.867188 15.347656 36.433594 15.914062 36.433594 16.605469 C 36.433594 17.316406 35.867188 17.882812 35.175781 17.882812 Z M 32.15625 16.089844 C 31.867188 16.089844 31.613281 16.328125 31.613281 16.605469 C 31.613281 16.894531 31.859375 17.148438 32.15625 17.148438 L 35.175781 17.148438 C 35.464844 17.148438 35.691406 16.914062 35.691406 16.605469 C 35.691406 16.316406 35.464844 16.089844 35.175781 16.089844 Z M 32.15625 16.089844 " fill-opacity="1" fill-rule="evenodd"/><path fill="#abb1b1" d="M 4.136719 16.238281 C 3.007812 16.238281 2.082031 15.320312 2.082031 14.183594 C 2.082031 13.046875 3.007812 12.128906 4.136719 12.128906 C 5.273438 12.128906 6.199219 13.046875 6.199219 14.183594 C 6.199219 15.320312 5.273438 16.238281 4.136719 16.238281 Z M 4.136719 12.863281 C 3.410156 12.863281 2.824219 13.457031 2.824219 14.183594 C 2.824219 14.902344 3.429688 15.503906 4.136719 15.503906 C 4.855469 15.503906 5.457031 14.902344 5.457031 14.183594 C 5.457031 13.457031 4.871094 12.863281 4.136719 12.863281 Z M 4.136719 12.863281 " fill-opacity="1" fill-rule="evenodd"/><path fill="#abb1b1" d="M 8.765625 16.238281 C 7.628906 16.238281 6.699219 15.320312 6.699219 14.183594 C 6.699219 13.046875 7.628906 12.128906 8.765625 12.128906 C 9.894531 12.128906 10.820312 13.046875 10.820312 14.183594 C 10.820312 15.320312 9.894531 16.238281 8.765625 16.238281 Z M 8.765625 12.863281 C 8.039062 12.863281 7.441406 13.457031 7.441406 14.183594 C 7.441406 14.902344 8.046875 15.503906 8.765625 15.503906 C 9.472656 15.503906 10.078125 14.902344 10.078125 14.183594 C 10.078125 13.457031 9.492188 12.863281 8.765625 12.863281 Z M 8.765625 12.863281 " fill-opacity="1" fill-rule="evenodd"/><path fill="#abb1b1" d="M 13.382812 16.238281 C 12.246094 16.238281 11.328125 15.320312 11.328125 14.183594 C 11.328125 13.046875 12.246094 12.128906 13.382812 12.128906 C 14.519531 12.128906 15.4375 13.046875 15.4375 14.183594 C 15.4375 15.320312 14.519531 16.238281 13.382812 16.238281 Z M 13.382812 12.863281 C 12.65625 12.863281 12.0625 13.457031 12.0625 14.183594 C 12.0625 14.902344 12.664062 15.503906 13.382812 15.503906 C 14.09375 15.503906 14.695312 14.902344 14.695312 14.183594 C 14.695312 13.457031 14.109375 12.863281 13.382812 12.863281 Z M 13.382812 12.863281 " fill-opacity="1" fill-rule="evenodd"/><path fill="#abb1b1" d="M 25.980469 25.503906 L 24.757812 25.503906 C 24.554688 25.503906 24.386719 25.335938 24.386719 25.136719 C 24.386719 24.933594 24.554688 24.769531 24.757812 24.769531 L 25.980469 24.769531 C 26.183594 24.769531 26.347656 24.933594 26.347656 25.136719 C 26.347656 25.335938 26.183594 25.503906 25.980469 25.503906 Z M 25.980469 25.503906 " fill-opacity="1" fill-rule="evenodd"/><path fill="#abb1b1" d="M 34.972656 25.503906 L 28 25.503906 C 27.792969 25.503906 27.625 25.335938 27.625 25.136719 C 27.625 24.933594 27.792969 24.769531 28 24.769531 L 34.972656 24.769531 C 35.175781 24.769531 35.339844 24.933594 35.339844 25.136719 C 35.339844 25.335938 35.175781 25.503906 34.972656 25.503906 Z M 34.972656 25.503906 " fill-opacity="1" fill-rule="evenodd"/><path fill="#abb1b1" d="M 34.972656 23.035156 L 33.777344 23.035156 C 33.574219 23.035156 33.40625 22.871094 33.40625 22.667969 C 33.40625 22.46875 33.574219 22.300781 33.777344 22.300781 L 34.972656 22.300781 C 35.175781 22.300781 35.339844 22.46875 35.339844 22.667969 C 35.339844 22.871094 35.175781 23.035156 34.972656 23.035156 Z M 34.972656 23.035156 " fill-opacity="1" fill-rule="evenodd"/><path fill="#abb1b1" d="M 31.726562 23.035156 L 24.757812 23.035156 C 24.554688 23.035156 24.386719 22.871094 24.386719 22.667969 C 24.386719 22.46875 24.554688 22.300781 24.757812 22.300781 L 31.726562 22.300781 C 31.9375 22.300781 32.105469 22.46875 32.105469 22.667969 C 32.105469 22.871094 31.9375 23.035156 31.726562 23.035156 Z M 31.726562 23.035156 " fill-opacity="1" fill-rule="evenodd"/><path fill="#abb1b1" d="M 25.980469 30.882812 L 24.757812 30.882812 C 24.554688 30.882812 24.386719 30.71875 24.386719 30.507812 C 24.386719 30.304688 24.554688 30.140625 24.757812 30.140625 L 25.980469 30.140625 C 26.183594 30.140625 26.347656 30.304688 26.347656 30.507812 C 26.347656 30.71875 26.183594 30.882812 25.980469 30.882812 Z M 25.980469 30.882812 " fill-opacity="1" fill-rule="evenodd"/><path fill="#abb1b1" d="M 34.972656 30.882812 L 28 30.882812 C 27.792969 30.882812 27.625 30.71875 27.625 30.507812 C 27.625 30.304688 27.792969 30.140625 28 30.140625 L 34.972656 30.140625 C 35.175781 30.140625 35.339844 30.304688 35.339844 30.507812 C 35.339844 30.71875 35.175781 30.882812 34.972656 30.882812 Z M 34.972656 30.882812 " fill-opacity="1" fill-rule="evenodd"/><path fill="#abb1b1" d="M 34.972656 28.390625 L 33.777344 28.390625 C 33.574219 28.390625 33.40625 28.222656 33.40625 28.023438 C 33.40625 27.820312 33.574219 27.65625 33.777344 27.65625 L 34.972656 27.65625 C 35.175781 27.65625 35.339844 27.820312 35.339844 28.023438 C 35.339844 28.222656 35.175781 28.390625 34.972656 28.390625 Z M 34.972656 28.390625 " fill-opacity="1" fill-rule="evenodd"/><path fill="#abb1b1" d="M 31.726562 28.390625 L 24.757812 28.390625 C 24.554688 28.390625 24.386719 28.222656 24.386719 28.023438 C 24.386719 27.820312 24.554688 27.65625 24.757812 27.65625 L 31.726562 27.65625 C 31.9375 27.65625 32.105469 27.820312 32.105469 28.023438 C 32.105469 28.222656 31.9375 28.390625 31.726562 28.390625 Z M 31.726562 28.390625 " fill-opacity="1" fill-rule="evenodd"/><path fill="#abb1b1" d="M 25 36.253906 L 23.671875 36.253906 C 23.460938 36.253906 23.296875 36.089844 23.296875 35.886719 C 23.296875 35.6875 23.460938 35.519531 23.671875 35.519531 L 25 35.519531 C 25.203125 35.519531 25.367188 35.6875 25.367188 35.886719 C 25.367188 36.089844 25.203125 36.253906 25 36.253906 Z M 25 36.253906 " fill-opacity="1" fill-rule="evenodd"/><path fill="#abb1b1" d="M 34.972656 36.253906 L 27.242188 36.253906 C 27.039062 36.253906 26.875 36.089844 26.875 35.886719 C 26.875 35.6875 27.039062 35.519531 27.242188 35.519531 L 34.972656 35.519531 C 35.175781 35.519531 35.339844 35.6875 35.339844 35.886719 C 35.339844 36.089844 35.175781 36.253906 34.972656 36.253906 Z M 34.972656 36.253906 " fill-opacity="1" fill-rule="evenodd"/><path fill="#abb1b1" d="M 34.972656 33.769531 L 33.644531 33.769531 C 33.433594 33.769531 33.269531 33.605469 33.269531 33.402344 C 33.269531 33.191406 33.433594 33.027344 33.644531 33.027344 L 34.972656 33.027344 C 35.175781 33.027344 35.339844 33.191406 35.339844 33.402344 C 35.339844 33.605469 35.175781 33.769531 34.972656 33.769531 Z M 34.972656 33.769531 " fill-opacity="1" fill-rule="evenodd"/><path fill="#abb1b1" d="M 31.394531 33.769531 L 23.671875 33.769531 C 23.460938 33.769531 23.296875 33.605469 23.296875 33.402344 C 23.296875 33.191406 23.460938 33.027344 23.671875 33.027344 L 31.394531 33.027344 C 31.605469 33.027344 31.773438 33.191406 31.773438 33.402344 C 31.773438 33.605469 31.605469 33.769531 31.394531 33.769531 Z M 31.394531 33.769531 " fill-opacity="1" fill-rule="evenodd"/><path fill="#abb1b1" d="M 24.109375 41.636719 L 22.664062 41.636719 C 22.464844 41.636719 22.296875 41.46875 22.296875 41.269531 C 22.296875 41.058594 22.464844 40.890625 22.664062 40.890625 L 24.109375 40.890625 C 24.320312 40.890625 24.484375 41.058594 24.484375 41.269531 C 24.484375 41.46875 24.320312 41.636719 24.109375 41.636719 Z M 24.109375 41.636719 " fill-opacity="1" fill-rule="evenodd"/><path fill="#abb1b1" d="M 34.972656 41.636719 L 26.558594 41.636719 C 26.347656 41.636719 26.183594 41.46875 26.183594 41.269531 C 26.183594 41.058594 26.347656 40.890625 26.558594 40.890625 L 34.972656 40.890625 C 35.175781 40.890625 35.339844 41.058594 35.339844 41.269531 C 35.339844 41.46875 35.175781 41.636719 34.972656 41.636719 Z M 34.972656 41.636719 " fill-opacity="1" fill-rule="evenodd"/><path fill="#abb1b1" d="M 34.972656 39.140625 L 33.503906 39.140625 C 33.304688 39.140625 33.136719 38.984375 33.136719 38.773438 C 33.136719 38.574219 33.304688 38.40625 33.503906 38.40625 L 34.972656 38.40625 C 35.175781 38.40625 35.339844 38.574219 35.339844 38.773438 C 35.339844 38.984375 35.175781 39.140625 34.972656 39.140625 Z M 34.972656 39.140625 " fill-opacity="1" fill-rule="evenodd"/><path fill="#abb1b1" d="M 31.0625 39.140625 L 22.664062 39.140625 C 22.464844 39.140625 22.296875 38.984375 22.296875 38.773438 C 22.296875 38.574219 22.464844 38.40625 22.664062 38.40625 L 31.0625 38.40625 C 31.273438 38.40625 31.429688 38.574219 31.429688 38.773438 C 31.429688 38.984375 31.265625 39.140625 31.0625 39.140625 Z M 31.0625 39.140625 " fill-opacity="1" fill-rule="evenodd"/></svg>