<svg xmlns="http://www.w3.org/2000/svg" xmlns:xlink="http://www.w3.org/1999/xlink" width="30" zoomAndPan="magnify" viewBox="0 0 22.5 25.499999" height="34" preserveAspectRatio="xMidYMid meet" version="1.0"><defs><clipPath id="e0015d1b26"><path d="M 0 0.03125 L 22 0.03125 L 22 19 L 0 19 Z M 0 0.03125 " clip-rule="nonzero"/></clipPath><clipPath id="7e1cfd793d"><path d="M 3 16 L 19 16 L 19 22.042969 L 3 22.042969 Z M 3 16 " clip-rule="nonzero"/></clipPath></defs><g clip-path="url(#e0015d1b26)"><path fill="#7b34e9" d="M 20.335938 18.769531 L 18.324219 18.769531 C 18.222656 18.769531 18.132812 18.734375 18.0625 18.664062 C 17.988281 18.589844 17.953125 18.503906 17.953125 18.402344 C 17.953125 18.300781 17.988281 18.210938 18.0625 18.140625 C 18.132812 18.066406 18.222656 18.03125 18.324219 18.03125 L 20.335938 18.03125 C 20.804688 18.03125 21.183594 17.597656 21.183594 17.0625 L 21.183594 1.742188 C 21.183594 1.207031 20.804688 0.769531 20.335938 0.769531 L 1.59375 0.769531 C 1.132812 0.769531 0.75 1.207031 0.75 1.742188 L 0.75 17.0625 C 0.75 17.597656 1.128906 18.03125 1.59375 18.03125 L 3.609375 18.03125 C 3.710938 18.03125 3.796875 18.066406 3.867188 18.140625 C 3.941406 18.210938 3.976562 18.296875 3.976562 18.398438 C 3.976562 18.503906 3.941406 18.589844 3.867188 18.660156 C 3.796875 18.734375 3.710938 18.769531 3.609375 18.769531 L 1.59375 18.769531 C 0.722656 18.769531 0.0117188 18.003906 0.0117188 17.0625 L 0.0117188 1.742188 C 0.0117188 0.796875 0.722656 0.03125 1.59375 0.03125 L 20.335938 0.03125 C 21.210938 0.03125 21.921875 0.800781 21.921875 1.742188 L 21.921875 17.0625 C 21.917969 18.003906 21.207031 18.769531 20.335938 18.769531 Z M 20.335938 18.769531 " fill-opacity="1" fill-rule="nonzero"/></g><path fill="#7b34e9" d="M 21.550781 5.351562 L 0.378906 5.351562 C 0.277344 5.351562 0.191406 5.316406 0.121094 5.246094 C 0.046875 5.171875 0.0117188 5.085938 0.0117188 4.984375 C 0.0117188 4.882812 0.046875 4.792969 0.121094 4.722656 C 0.191406 4.648438 0.277344 4.613281 0.378906 4.613281 L 21.550781 4.613281 C 21.652344 4.613281 21.738281 4.648438 21.8125 4.722656 C 21.882812 4.792969 21.917969 4.882812 21.917969 4.984375 C 21.917969 5.085938 21.882812 5.171875 21.8125 5.246094 C 21.738281 5.316406 21.652344 5.351562 21.550781 5.351562 Z M 21.550781 5.351562 " fill-opacity="1" fill-rule="nonzero"/><path fill="#7b34e9" d="M 3.121094 3.707031 C 2.988281 3.707031 2.855469 3.683594 2.734375 3.628906 C 2.609375 3.578125 2.5 3.507812 2.402344 3.410156 C 2.308594 3.316406 2.234375 3.207031 2.183594 3.082031 C 2.132812 2.957031 2.105469 2.828125 2.105469 2.691406 C 2.105469 2.558594 2.132812 2.429688 2.183594 2.304688 C 2.234375 2.179688 2.308594 2.070312 2.402344 1.972656 C 2.5 1.878906 2.609375 1.804688 2.734375 1.753906 C 2.855469 1.703125 2.988281 1.675781 3.121094 1.675781 C 3.257812 1.675781 3.386719 1.703125 3.511719 1.753906 C 3.632812 1.804688 3.746094 1.878906 3.839844 1.972656 C 3.933594 2.070312 4.007812 2.179688 4.058594 2.304688 C 4.109375 2.429688 4.136719 2.558594 4.136719 2.691406 C 4.136719 2.828125 4.109375 2.957031 4.058594 3.082031 C 4.007812 3.207031 3.933594 3.316406 3.839844 3.410156 C 3.746094 3.507812 3.632812 3.578125 3.511719 3.628906 C 3.386719 3.683594 3.257812 3.707031 3.121094 3.707031 Z M 3.121094 2.414062 C 3.042969 2.414062 2.980469 2.441406 2.925781 2.496094 C 2.871094 2.550781 2.84375 2.617188 2.84375 2.691406 C 2.84375 2.769531 2.871094 2.835938 2.925781 2.886719 C 2.980469 2.941406 3.042969 2.96875 3.121094 2.96875 C 3.199219 2.96875 3.261719 2.941406 3.316406 2.886719 C 3.371094 2.835938 3.398438 2.769531 3.398438 2.691406 C 3.398438 2.617188 3.371094 2.550781 3.316406 2.496094 C 3.261719 2.441406 3.199219 2.414062 3.121094 2.414062 Z M 3.121094 2.414062 " fill-opacity="1" fill-rule="nonzero"/><path fill="#7b34e9" d="M 5.871094 3.707031 C 5.734375 3.707031 5.605469 3.683594 5.480469 3.628906 C 5.355469 3.578125 5.246094 3.507812 5.152344 3.410156 C 5.054688 3.316406 4.984375 3.207031 4.933594 3.082031 C 4.878906 2.957031 4.855469 2.828125 4.855469 2.691406 C 4.855469 2.558594 4.878906 2.429688 4.933594 2.304688 C 4.984375 2.179688 5.054688 2.070312 5.152344 1.972656 C 5.246094 1.878906 5.355469 1.804688 5.480469 1.753906 C 5.605469 1.703125 5.734375 1.675781 5.871094 1.675781 C 6.003906 1.675781 6.132812 1.703125 6.257812 1.753906 C 6.382812 1.804688 6.492188 1.878906 6.589844 1.972656 C 6.683594 2.070312 6.757812 2.179688 6.808594 2.304688 C 6.859375 2.429688 6.886719 2.558594 6.886719 2.691406 C 6.886719 2.828125 6.859375 2.957031 6.808594 3.082031 C 6.757812 3.207031 6.683594 3.316406 6.589844 3.410156 C 6.492188 3.507812 6.382812 3.578125 6.257812 3.628906 C 6.132812 3.683594 6.003906 3.707031 5.871094 3.707031 Z M 5.871094 2.414062 C 5.792969 2.414062 5.726562 2.441406 5.675781 2.496094 C 5.621094 2.550781 5.59375 2.617188 5.59375 2.691406 C 5.59375 2.769531 5.621094 2.835938 5.675781 2.886719 C 5.726562 2.941406 5.792969 2.96875 5.871094 2.96875 C 5.945312 2.96875 6.011719 2.941406 6.066406 2.886719 C 6.121094 2.835938 6.148438 2.769531 6.148438 2.691406 C 6.148438 2.617188 6.121094 2.550781 6.066406 2.496094 C 6.011719 2.441406 5.945312 2.414062 5.871094 2.414062 Z M 5.871094 2.414062 " fill-opacity="1" fill-rule="nonzero"/><path fill="#7b34e9" d="M 8.617188 3.707031 C 8.484375 3.707031 8.355469 3.683594 8.230469 3.628906 C 8.105469 3.578125 7.996094 3.507812 7.902344 3.410156 C 7.804688 3.316406 7.730469 3.207031 7.679688 3.082031 C 7.628906 2.957031 7.601562 2.828125 7.601562 2.691406 C 7.601562 2.558594 7.628906 2.429688 7.679688 2.304688 C 7.730469 2.179688 7.804688 2.070312 7.902344 1.972656 C 7.996094 1.878906 8.105469 1.804688 8.230469 1.753906 C 8.355469 1.703125 8.484375 1.675781 8.617188 1.675781 C 8.753906 1.675781 8.882812 1.703125 9.007812 1.753906 C 9.132812 1.804688 9.242188 1.878906 9.335938 1.972656 C 9.433594 2.070312 9.503906 2.179688 9.558594 2.304688 C 9.609375 2.429688 9.632812 2.558594 9.632812 2.691406 C 9.632812 2.828125 9.609375 2.957031 9.558594 3.082031 C 9.503906 3.207031 9.433594 3.316406 9.335938 3.410156 C 9.242188 3.507812 9.132812 3.578125 9.007812 3.628906 C 8.882812 3.683594 8.753906 3.707031 8.617188 3.707031 Z M 8.617188 2.414062 C 8.542969 2.414062 8.476562 2.441406 8.421875 2.496094 C 8.367188 2.550781 8.34375 2.617188 8.34375 2.691406 C 8.34375 2.769531 8.367188 2.835938 8.421875 2.886719 C 8.476562 2.941406 8.542969 2.96875 8.617188 2.96875 C 8.695312 2.96875 8.761719 2.941406 8.816406 2.886719 C 8.867188 2.835938 8.894531 2.769531 8.894531 2.691406 C 8.894531 2.617188 8.867188 2.550781 8.816406 2.496094 C 8.761719 2.441406 8.695312 2.414062 8.617188 2.414062 Z M 8.617188 2.414062 " fill-opacity="1" fill-rule="nonzero"/><path fill="#7b34e9" d="M 18.808594 3.707031 L 13.851562 3.707031 C 13.714844 3.707031 13.585938 3.683594 13.460938 3.632812 C 13.335938 3.578125 13.226562 3.507812 13.132812 3.410156 C 13.035156 3.316406 12.964844 3.207031 12.910156 3.082031 C 12.859375 2.957031 12.835938 2.828125 12.835938 2.691406 C 12.835938 2.558594 12.859375 2.429688 12.910156 2.304688 C 12.964844 2.179688 13.035156 2.070312 13.132812 1.972656 C 13.226562 1.878906 13.335938 1.804688 13.460938 1.753906 C 13.585938 1.703125 13.714844 1.675781 13.851562 1.675781 L 18.808594 1.675781 C 18.945312 1.675781 19.074219 1.703125 19.199219 1.753906 C 19.324219 1.804688 19.433594 1.878906 19.527344 1.972656 C 19.621094 2.070312 19.695312 2.179688 19.746094 2.304688 C 19.800781 2.429688 19.824219 2.558594 19.824219 2.691406 C 19.824219 2.828125 19.800781 2.957031 19.746094 3.082031 C 19.695312 3.207031 19.621094 3.316406 19.527344 3.410156 C 19.433594 3.503906 19.324219 3.578125 19.199219 3.628906 C 19.074219 3.683594 18.945312 3.707031 18.808594 3.707031 Z M 13.851562 2.414062 C 13.773438 2.414062 13.707031 2.441406 13.65625 2.496094 C 13.601562 2.550781 13.574219 2.617188 13.574219 2.691406 C 13.574219 2.769531 13.601562 2.835938 13.65625 2.886719 C 13.707031 2.941406 13.773438 2.96875 13.851562 2.96875 L 18.808594 2.96875 C 18.886719 2.96875 18.953125 2.941406 19.003906 2.886719 C 19.058594 2.835938 19.085938 2.769531 19.085938 2.691406 C 19.085938 2.617188 19.058594 2.550781 19.003906 2.496094 C 18.953125 2.441406 18.886719 2.414062 18.808594 2.414062 Z M 13.851562 2.414062 " fill-opacity="1" fill-rule="nonzero"/><path fill="#7b34e9" d="M 17.394531 17.6875 L 4.535156 17.6875 C 4.363281 17.6875 4.199219 17.652344 4.039062 17.585938 C 3.878906 17.523438 3.738281 17.429688 3.617188 17.304688 C 3.496094 17.183594 3.402344 17.046875 3.335938 16.886719 C 3.273438 16.726562 3.238281 16.5625 3.238281 16.390625 L 3.238281 13.921875 C 3.238281 13.75 3.273438 13.582031 3.339844 13.425781 C 3.402344 13.265625 3.496094 13.125 3.617188 13.003906 C 3.738281 12.882812 3.878906 12.789062 4.039062 12.722656 C 4.199219 12.660156 4.363281 12.625 4.535156 12.625 L 17.394531 12.625 C 17.566406 12.625 17.734375 12.660156 17.890625 12.722656 C 18.050781 12.789062 18.191406 12.882812 18.3125 13.003906 C 18.433594 13.125 18.527344 13.265625 18.59375 13.425781 C 18.660156 13.582031 18.691406 13.75 18.691406 13.921875 L 18.691406 16.390625 C 18.691406 16.5625 18.660156 16.726562 18.59375 16.886719 C 18.527344 17.046875 18.433594 17.183594 18.3125 17.304688 C 18.191406 17.429688 18.050781 17.523438 17.890625 17.585938 C 17.734375 17.652344 17.566406 17.6875 17.394531 17.6875 Z M 4.535156 13.363281 C 4.378906 13.363281 4.25 13.417969 4.140625 13.527344 C 4.03125 13.636719 3.976562 13.765625 3.976562 13.921875 L 3.976562 16.390625 C 3.976562 16.542969 4.03125 16.675781 4.140625 16.785156 C 4.25 16.894531 4.378906 16.949219 4.535156 16.949219 L 17.394531 16.949219 C 17.550781 16.949219 17.679688 16.894531 17.789062 16.785156 C 17.898438 16.675781 17.953125 16.542969 17.953125 16.390625 L 17.953125 13.921875 C 17.953125 13.765625 17.898438 13.636719 17.789062 13.527344 C 17.679688 13.417969 17.550781 13.363281 17.394531 13.363281 Z M 4.535156 13.363281 " fill-opacity="1" fill-rule="nonzero"/><path fill="#7b34e9" d="M 10.25 15.523438 L 4.789062 15.523438 C 4.6875 15.523438 4.601562 15.488281 4.53125 15.417969 C 4.457031 15.34375 4.421875 15.257812 4.421875 15.15625 C 4.421875 15.054688 4.457031 14.964844 4.53125 14.894531 C 4.601562 14.824219 4.6875 14.785156 4.789062 14.785156 L 10.25 14.785156 C 10.351562 14.785156 10.4375 14.824219 10.511719 14.894531 C 10.582031 14.964844 10.621094 15.054688 10.621094 15.15625 C 10.621094 15.257812 10.582031 15.34375 10.511719 15.417969 C 10.4375 15.488281 10.351562 15.523438 10.25 15.523438 Z M 10.25 15.523438 " fill-opacity="1" fill-rule="nonzero"/><path fill="#7b34e9" d="M 13.046875 15.523438 L 12.363281 15.523438 C 12.261719 15.523438 12.171875 15.488281 12.101562 15.417969 C 12.03125 15.34375 11.992188 15.257812 11.992188 15.15625 C 11.992188 15.054688 12.03125 14.964844 12.101562 14.894531 C 12.171875 14.824219 12.261719 14.785156 12.363281 14.785156 L 13.046875 14.785156 C 13.148438 14.785156 13.234375 14.824219 13.304688 14.894531 C 13.378906 14.964844 13.414062 15.054688 13.414062 15.15625 C 13.414062 15.257812 13.378906 15.34375 13.304688 15.417969 C 13.234375 15.488281 13.148438 15.523438 13.046875 15.523438 Z M 13.046875 15.523438 " fill-opacity="1" fill-rule="nonzero"/><path fill="#7b34e9" d="M 15.09375 15.523438 L 14.410156 15.523438 C 14.308594 15.523438 14.222656 15.488281 14.148438 15.417969 C 14.078125 15.34375 14.039062 15.257812 14.039062 15.15625 C 14.039062 15.054688 14.078125 14.964844 14.148438 14.894531 C 14.222656 14.824219 14.308594 14.785156 14.410156 14.785156 L 15.09375 14.785156 C 15.195312 14.785156 15.28125 14.824219 15.355469 14.894531 C 15.425781 14.964844 15.460938 15.054688 15.460938 15.15625 C 15.460938 15.257812 15.425781 15.34375 15.355469 15.417969 C 15.28125 15.488281 15.195312 15.523438 15.09375 15.523438 Z M 15.09375 15.523438 " fill-opacity="1" fill-rule="nonzero"/><g clip-path="url(#7e1cfd793d)"><path fill="#7b34e9" d="M 17.394531 22.007812 L 4.535156 22.007812 C 4.363281 22.007812 4.199219 21.976562 4.039062 21.910156 C 3.878906 21.84375 3.738281 21.75 3.617188 21.628906 C 3.496094 21.507812 3.402344 21.367188 3.339844 21.210938 C 3.273438 21.050781 3.238281 20.886719 3.238281 20.714844 L 3.238281 18.242188 C 3.238281 18.070312 3.273438 17.90625 3.335938 17.746094 C 3.402344 17.589844 3.496094 17.449219 3.617188 17.328125 C 3.738281 17.207031 3.878906 17.113281 4.039062 17.046875 C 4.199219 16.980469 4.363281 16.949219 4.535156 16.949219 L 17.394531 16.949219 C 17.566406 16.949219 17.734375 16.980469 17.890625 17.046875 C 18.050781 17.113281 18.191406 17.207031 18.3125 17.328125 C 18.433594 17.449219 18.527344 17.589844 18.59375 17.746094 C 18.660156 17.90625 18.691406 18.070312 18.691406 18.242188 L 18.691406 20.714844 C 18.691406 20.886719 18.660156 21.050781 18.59375 21.210938 C 18.527344 21.367188 18.433594 21.507812 18.3125 21.628906 C 18.191406 21.75 18.050781 21.84375 17.890625 21.910156 C 17.734375 21.976562 17.566406 22.007812 17.394531 22.007812 Z M 4.535156 17.6875 C 4.378906 17.6875 4.25 17.742188 4.140625 17.851562 C 4.03125 17.957031 3.976562 18.089844 3.976562 18.242188 L 3.976562 20.714844 C 3.976562 20.867188 4.03125 21 4.140625 21.105469 C 4.25 21.214844 4.378906 21.269531 4.535156 21.269531 L 17.394531 21.269531 C 17.550781 21.269531 17.679688 21.214844 17.789062 21.105469 C 17.898438 21 17.953125 20.867188 17.953125 20.714844 L 17.953125 18.242188 C 17.953125 18.089844 17.898438 17.957031 17.789062 17.851562 C 17.679688 17.742188 17.550781 17.6875 17.394531 17.6875 Z M 4.535156 17.6875 " fill-opacity="1" fill-rule="nonzero"/></g><path fill="#7b34e9" d="M 10.25 19.847656 L 4.789062 19.847656 C 4.6875 19.847656 4.601562 19.8125 4.53125 19.738281 C 4.457031 19.667969 4.421875 19.582031 4.421875 19.480469 C 4.421875 19.375 4.457031 19.289062 4.53125 19.21875 C 4.601562 19.144531 4.6875 19.109375 4.789062 19.109375 L 10.25 19.109375 C 10.351562 19.109375 10.4375 19.144531 10.511719 19.21875 C 10.582031 19.289062 10.621094 19.375 10.621094 19.480469 C 10.621094 19.582031 10.582031 19.667969 10.511719 19.738281 C 10.4375 19.8125 10.351562 19.847656 10.25 19.847656 Z M 10.25 19.847656 " fill-opacity="1" fill-rule="nonzero"/><path fill="#7b34e9" d="M 13.046875 19.847656 L 12.363281 19.847656 C 12.261719 19.847656 12.171875 19.8125 12.101562 19.738281 C 12.03125 19.667969 11.992188 19.582031 11.992188 19.480469 C 11.992188 19.375 12.03125 19.289062 12.101562 19.21875 C 12.171875 19.144531 12.261719 19.109375 12.363281 19.109375 L 13.046875 19.109375 C 13.148438 19.109375 13.234375 19.144531 13.304688 19.21875 C 13.378906 19.289062 13.414062 19.375 13.414062 19.480469 C 13.414062 19.582031 13.378906 19.667969 13.304688 19.738281 C 13.234375 19.8125 13.148438 19.847656 13.046875 19.847656 Z M 13.046875 19.847656 " fill-opacity="1" fill-rule="nonzero"/><path fill="#7b34e9" d="M 15.09375 19.847656 L 14.410156 19.847656 C 14.308594 19.847656 14.222656 19.8125 14.148438 19.738281 C 14.078125 19.667969 14.039062 19.582031 14.039062 19.480469 C 14.039062 19.375 14.078125 19.289062 14.148438 19.21875 C 14.222656 19.144531 14.308594 19.109375 14.410156 19.109375 L 15.09375 19.109375 C 15.195312 19.109375 15.28125 19.144531 15.355469 19.21875 C 15.425781 19.289062 15.460938 19.375 15.460938 19.480469 C 15.460938 19.582031 15.425781 19.667969 15.355469 19.738281 C 15.28125 19.8125 15.195312 19.847656 15.09375 19.847656 Z M 15.09375 19.847656 " fill-opacity="1" fill-rule="nonzero"/><path fill="#7b34e9" d="M 17.140625 19.847656 L 16.460938 19.847656 C 16.359375 19.847656 16.269531 19.8125 16.199219 19.738281 C 16.125 19.667969 16.089844 19.582031 16.089844 19.480469 C 16.089844 19.375 16.125 19.289062 16.199219 19.21875 C 16.269531 19.144531 16.359375 19.109375 16.460938 19.109375 L 17.140625 19.109375 C 17.242188 19.109375 17.332031 19.144531 17.402344 19.21875 C 17.476562 19.289062 17.511719 19.375 17.511719 19.480469 C 17.511719 19.582031 17.476562 19.667969 17.402344 19.738281 C 17.332031 19.8125 17.242188 19.847656 17.140625 19.847656 Z M 17.140625 19.847656 " fill-opacity="1" fill-rule="nonzero"/><path fill="#7b34e9" d="M 17.085938 13.363281 C 16.984375 13.363281 16.898438 13.328125 16.824219 13.253906 C 16.753906 13.183594 16.71875 13.097656 16.71875 12.996094 C 16.71875 12.617188 16.679688 12.242188 16.605469 11.871094 C 16.53125 11.503906 16.421875 11.140625 16.277344 10.792969 C 16.132812 10.445312 15.957031 10.113281 15.746094 9.800781 C 15.539062 9.484375 15.300781 9.195312 15.03125 8.925781 C 14.765625 8.660156 14.476562 8.421875 14.160156 8.210938 C 13.847656 8.003906 13.515625 7.824219 13.167969 7.679688 C 12.816406 7.535156 12.457031 7.425781 12.085938 7.351562 C 11.71875 7.28125 11.34375 7.242188 10.964844 7.242188 C 10.585938 7.242188 10.214844 7.28125 9.84375 7.351562 C 9.472656 7.425781 9.113281 7.535156 8.765625 7.679688 C 8.414062 7.824219 8.082031 8.003906 7.769531 8.210938 C 7.457031 8.421875 7.164062 8.660156 6.898438 8.925781 C 6.632812 9.195312 6.394531 9.484375 6.183594 9.800781 C 5.972656 10.113281 5.796875 10.445312 5.652344 10.792969 C 5.507812 11.140625 5.398438 11.503906 5.324219 11.871094 C 5.25 12.242188 5.214844 12.617188 5.214844 12.996094 C 5.214844 13.097656 5.175781 13.183594 5.105469 13.253906 C 5.035156 13.328125 4.945312 13.363281 4.84375 13.363281 C 4.742188 13.363281 4.65625 13.328125 4.582031 13.253906 C 4.511719 13.183594 4.476562 13.097656 4.476562 12.996094 C 4.476562 9.414062 7.386719 6.503906 10.964844 6.503906 C 14.542969 6.503906 17.457031 9.414062 17.457031 12.996094 C 17.457031 13.097656 17.417969 13.183594 17.347656 13.253906 C 17.277344 13.328125 17.1875 13.363281 17.085938 13.363281 Z M 17.085938 13.363281 " fill-opacity="1" fill-rule="nonzero"/><path fill="#7b34e9" d="M 10.964844 7.683594 C 10.863281 7.683594 10.777344 7.648438 10.703125 7.574219 C 10.632812 7.503906 10.597656 7.414062 10.597656 7.3125 L 10.597656 6.875 C 10.597656 6.769531 10.632812 6.683594 10.703125 6.613281 C 10.777344 6.539062 10.863281 6.503906 10.964844 6.503906 C 11.066406 6.503906 11.15625 6.539062 11.226562 6.613281 C 11.296875 6.683594 11.335938 6.769531 11.335938 6.875 L 11.335938 7.3125 C 11.335938 7.414062 11.296875 7.503906 11.226562 7.574219 C 11.15625 7.648438 11.066406 7.683594 10.964844 7.683594 Z M 10.964844 7.683594 " fill-opacity="1" fill-rule="nonzero"/><path fill="#7b34e9" d="M 14.980469 9.347656 C 14.816406 9.347656 14.703125 9.269531 14.640625 9.117188 C 14.578125 8.964844 14.605469 8.832031 14.71875 8.714844 L 15.03125 8.40625 C 15.105469 8.332031 15.191406 8.296875 15.292969 8.296875 C 15.394531 8.296875 15.484375 8.332031 15.554688 8.40625 C 15.625 8.476562 15.664062 8.5625 15.664062 8.667969 C 15.664062 8.769531 15.625 8.855469 15.554688 8.925781 L 15.242188 9.238281 C 15.171875 9.3125 15.085938 9.347656 14.980469 9.347656 Z M 14.980469 9.347656 " fill-opacity="1" fill-rule="nonzero"/><path fill="#7b34e9" d="M 6.949219 9.347656 C 6.847656 9.347656 6.757812 9.3125 6.6875 9.238281 L 6.375 8.925781 C 6.304688 8.855469 6.269531 8.769531 6.269531 8.667969 C 6.269531 8.5625 6.304688 8.476562 6.375 8.40625 C 6.449219 8.332031 6.535156 8.296875 6.636719 8.296875 C 6.738281 8.296875 6.828125 8.332031 6.898438 8.40625 L 7.210938 8.714844 C 7.328125 8.832031 7.351562 8.964844 7.289062 9.117188 C 7.226562 9.269531 7.113281 9.347656 6.949219 9.347656 Z M 6.949219 9.347656 " fill-opacity="1" fill-rule="nonzero"/><path fill="#7b34e9" d="M 12.703125 11.773438 L 10.964844 11.773438 C 10.863281 11.773438 10.777344 11.738281 10.703125 11.664062 C 10.632812 11.59375 10.597656 11.503906 10.597656 11.402344 L 10.597656 9.933594 C 10.597656 9.832031 10.632812 9.746094 10.703125 9.671875 C 10.777344 9.601562 10.863281 9.566406 10.964844 9.566406 C 11.066406 9.566406 11.15625 9.601562 11.226562 9.671875 C 11.296875 9.746094 11.335938 9.832031 11.335938 9.933594 L 11.335938 11.035156 L 12.703125 11.035156 C 12.804688 11.035156 12.894531 11.070312 12.964844 11.140625 C 13.039062 11.214844 13.074219 11.300781 13.074219 11.402344 C 13.074219 11.503906 13.039062 11.59375 12.964844 11.664062 C 12.894531 11.738281 12.804688 11.773438 12.703125 11.773438 Z M 12.703125 11.773438 " fill-opacity="1" fill-rule="nonzero"/></svg>