<svg xmlns="http://www.w3.org/2000/svg" xmlns:xlink="http://www.w3.org/1999/xlink" width="45" zoomAndPan="magnify" viewBox="0 0 33.75 42" height="56" preserveAspectRatio="xMidYMid meet" version="1.0"><defs><clipPath id="aa31ba2ca6"><path d="M 0.269531 0.316406 L 33 0.316406 L 33 40.609375 L 0.269531 40.609375 Z M 0.269531 0.316406 " clip-rule="nonzero"/></clipPath></defs><g clip-path="url(#aa31ba2ca6)"><path fill="#bff747" d="M 13.855469 23.84375 L 22.925781 14.761719 C 23.125 14.574219 23.359375 14.480469 23.632812 14.476562 C 23.90625 14.476562 24.140625 14.570312 24.339844 14.757812 C 24.433594 14.851562 24.503906 14.960938 24.554688 15.082031 C 24.605469 15.203125 24.632812 15.332031 24.632812 15.464844 C 24.632812 15.597656 24.609375 15.726562 24.558594 15.847656 C 24.507812 15.96875 24.4375 16.078125 24.34375 16.171875 L 14.449219 26.078125 C 14.253906 26.273438 14.019531 26.371094 13.742188 26.371094 L 13.738281 26.371094 C 13.464844 26.371094 13.230469 26.277344 13.035156 26.082031 C 12.996094 26.042969 12.957031 25.996094 12.925781 25.949219 L 8.847656 21.109375 C 8.769531 21 8.714844 20.882812 8.683594 20.753906 C 8.652344 20.621094 8.648438 20.492188 8.667969 20.359375 C 8.6875 20.230469 8.734375 20.105469 8.804688 19.992188 C 8.875 19.878906 8.964844 19.785156 9.070312 19.707031 C 9.179688 19.628906 9.296875 19.574219 9.425781 19.542969 C 9.558594 19.511719 9.6875 19.507812 9.820312 19.53125 C 9.949219 19.554688 10.074219 19.597656 10.1875 19.671875 C 10.296875 19.742188 10.394531 19.832031 10.472656 19.9375 Z M 32.972656 23.09375 C 32.996094 26.070312 31.265625 29.582031 28.101562 32.980469 C 26.738281 34.441406 25.246094 35.753906 23.621094 36.917969 L 23.554688 36.964844 C 23.523438 36.980469 23.496094 37 23.472656 37.019531 L 23.40625 37.074219 C 21.472656 38.46875 19.378906 39.5625 17.128906 40.355469 L 16.847656 40.449219 L 16.558594 40.359375 C 15.875 40.140625 15.203125 39.886719 14.546875 39.597656 C 14.503906 39.578125 14.460938 39.558594 14.417969 39.542969 L 14.363281 39.519531 C 11.003906 37.953125 8.035156 35.839844 5.464844 33.167969 C 4.117188 31.792969 2.964844 30.273438 2.007812 28.605469 L 1.976562 28.535156 C 1.960938 28.503906 1.941406 28.472656 1.921875 28.445312 L 1.882812 28.382812 C 0.988281 26.828125 0.503906 25.15625 0.433594 23.363281 L 0.316406 9.050781 L 0.386719 9.011719 L 16.511719 0.316406 L 16.574219 0.351562 L 32.851562 8.785156 Z M 31.015625 9.914062 L 16.53125 2.414062 L 2.175781 10.152344 L 2.285156 23.351562 C 2.355469 24.824219 2.761719 26.195312 3.5 27.472656 C 3.554688 27.558594 3.601562 27.644531 3.644531 27.738281 C 4.523438 29.253906 5.574219 30.636719 6.800781 31.882812 C 9.195312 34.375 11.960938 36.351562 15.09375 37.816406 C 15.175781 37.847656 15.257812 37.882812 15.335938 37.921875 C 15.832031 38.132812 16.347656 38.335938 16.828125 38.496094 C 18.785156 37.769531 20.609375 36.796875 22.304688 35.582031 C 22.390625 35.511719 22.480469 35.445312 22.578125 35.386719 C 24.085938 34.300781 25.476562 33.074219 26.746094 31.714844 C 29.585938 28.664062 31.140625 25.609375 31.117188 23.109375 Z M 31.015625 9.914062 " fill-opacity="1" fill-rule="nonzero"/></g></svg>