<svg xmlns="http://www.w3.org/2000/svg" xmlns:xlink="http://www.w3.org/1999/xlink" width="21" zoomAndPan="magnify" viewBox="0 0 15.75 18.75" height="25" preserveAspectRatio="xMidYMid meet" version="1.0"><defs><clipPath id="6c5d22e757"><path d="M 0 2.109375 L 15.503906 2.109375 L 15.503906 15.398438 L 0 15.398438 Z M 0 2.109375 " clip-rule="nonzero"/></clipPath></defs><path fill="#9058ff" d="M 3.425781 11.996094 C 3.363281 12.035156 3.328125 12.109375 3.34375 12.183594 C 3.359375 12.257812 3.417969 12.316406 3.492188 12.328125 C 4.566406 12.515625 5.558594 12.609375 6.460938 12.609375 C 7.15625 12.609375 7.796875 12.554688 8.378906 12.445312 C 9.789062 12.175781 10.835938 11.59375 11.488281 10.710938 C 11.96875 10.0625 12.210938 9.308594 12.195312 8.53125 C 12.175781 7.78125 11.917969 7.050781 11.449219 6.414062 C 11.078125 5.910156 10.574219 5.496094 9.949219 5.179688 C 9.308594 4.851562 8.695312 4.710938 8.292969 4.648438 C 7.160156 4.476562 5.519531 4.613281 4.328125 5.519531 C 3.5625 6.097656 3.117188 6.890625 2.996094 7.871094 C 2.902344 8.636719 2.9375 9.644531 4.035156 10.613281 C 4.1875 10.746094 4.253906 10.882812 4.242188 11.035156 C 4.207031 11.4375 3.640625 11.863281 3.425781 11.996094 Z M 4.273438 10.34375 C 3.308594 9.488281 3.265625 8.636719 3.355469 7.914062 C 3.460938 7.035156 3.863281 6.324219 4.542969 5.808594 C 5.648438 4.96875 7.175781 4.84375 8.238281 5.007812 C 8.695312 5.078125 10.25 5.398438 11.15625 6.628906 C 11.582031 7.203125 11.816406 7.863281 11.832031 8.539062 C 11.847656 9.234375 11.628906 9.910156 11.195312 10.496094 C 10.601562 11.304688 9.628906 11.839844 8.3125 12.089844 C 7.109375 12.316406 5.652344 12.300781 3.976562 12.042969 C 4.242188 11.816406 4.566406 11.464844 4.601562 11.066406 C 4.625 10.796875 4.515625 10.554688 4.273438 10.34375 Z M 4.273438 10.34375 " fill-opacity="1" fill-rule="nonzero"/><path fill="#9058ff" d="M 5.273438 9.527344 C 5.726562 9.480469 6.097656 9.070312 6.105469 8.617188 C 6.109375 8.160156 5.730469 7.742188 5.277344 7.707031 C 4.816406 7.667969 4.375 8.035156 4.328125 8.492188 C 4.285156 8.90625 4.441406 9.152344 4.578125 9.289062 C 4.734375 9.445312 4.957031 9.535156 5.179688 9.535156 C 5.210938 9.53125 5.242188 9.53125 5.273438 9.527344 Z M 4.832031 9.03125 C 4.714844 8.917969 4.664062 8.742188 4.6875 8.527344 C 4.710938 8.269531 4.984375 8.046875 5.246094 8.066406 C 5.507812 8.085938 5.746094 8.347656 5.742188 8.613281 C 5.738281 8.882812 5.503906 9.140625 5.234375 9.167969 C 5.085938 9.183594 4.933594 9.132812 4.832031 9.03125 Z M 4.832031 9.03125 " fill-opacity="1" fill-rule="nonzero"/><path fill="#9058ff" d="M 7.546875 9.492188 C 7.578125 9.492188 7.609375 9.488281 7.640625 9.484375 C 8.09375 9.4375 8.464844 9.027344 8.46875 8.574219 C 8.476562 8.117188 8.097656 7.699219 7.640625 7.664062 C 7.183594 7.625 6.738281 7.992188 6.695312 8.449219 C 6.652344 8.863281 6.804688 9.109375 6.941406 9.246094 C 7.101562 9.402344 7.320312 9.492188 7.546875 9.492188 Z M 7.054688 8.484375 C 7.078125 8.226562 7.351562 8.003906 7.613281 8.023438 C 7.875 8.042969 8.113281 8.304688 8.109375 8.570312 C 8.105469 8.839844 7.867188 9.097656 7.601562 9.125 C 7.453125 9.140625 7.300781 9.089844 7.195312 8.988281 C 7.082031 8.875 7.03125 8.699219 7.054688 8.484375 Z M 7.054688 8.484375 " fill-opacity="1" fill-rule="nonzero"/><path fill="#9058ff" d="M 9.914062 9.492188 C 9.945312 9.492188 9.976562 9.488281 10.007812 9.484375 C 10.460938 9.4375 10.832031 9.027344 10.835938 8.574219 C 10.84375 8.117188 10.460938 7.699219 10.007812 7.664062 C 9.550781 7.625 9.105469 7.992188 9.058594 8.449219 C 9.019531 8.863281 9.171875 9.109375 9.308594 9.246094 C 9.46875 9.402344 9.6875 9.492188 9.914062 9.492188 Z M 9.421875 8.484375 C 9.445312 8.238281 9.695312 8.023438 9.945312 8.023438 C 9.957031 8.023438 9.96875 8.023438 9.980469 8.023438 C 10.242188 8.042969 10.480469 8.304688 10.476562 8.570312 C 10.472656 8.839844 10.234375 9.097656 9.96875 9.125 C 9.820312 9.140625 9.664062 9.089844 9.5625 8.988281 C 9.449219 8.875 9.398438 8.699219 9.421875 8.484375 Z M 9.421875 8.484375 " fill-opacity="1" fill-rule="nonzero"/><g clip-path="url(#6c5d22e757)"><path fill="#9058ff" d="M 13.855469 7.230469 L 13.734375 7.230469 C 13.285156 5.574219 12.421875 4.226562 11.234375 3.324219 C 10.140625 2.496094 8.828125 2.074219 7.445312 2.109375 C 6.078125 2.144531 4.746094 2.640625 3.6875 3.503906 C 2.5625 4.421875 1.789062 5.707031 1.445312 7.230469 L 1.300781 7.230469 C 0.585938 7.230469 0.0078125 7.808594 0.0078125 8.523438 L 0.0078125 10.175781 C 0.0078125 10.863281 0.550781 11.429688 1.234375 11.46875 C 1.328125 12.335938 1.632812 13.050781 2.140625 13.597656 C 2.628906 14.125 3.300781 14.472656 4.082031 14.601562 C 4.175781 14.984375 4.523438 15.269531 4.9375 15.269531 L 6.132812 15.269531 C 6.621094 15.269531 7.015625 14.875 7.015625 14.386719 C 7.015625 13.898438 6.617188 13.503906 6.132812 13.503906 L 4.9375 13.503906 C 4.503906 13.503906 4.140625 13.816406 4.070312 14.230469 C 2.671875 13.972656 1.777344 12.976562 1.597656 11.46875 L 1.863281 11.46875 C 2.117188 11.46875 2.328125 11.261719 2.328125 11.003906 L 2.328125 7.695312 C 2.328125 7.4375 2.121094 7.230469 1.863281 7.230469 L 1.816406 7.230469 C 2.152344 5.820312 2.875 4.632812 3.914062 3.785156 C 4.910156 2.972656 6.167969 2.503906 7.453125 2.472656 C 8.757812 2.4375 9.988281 2.832031 11.019531 3.613281 C 12.117188 4.449219 12.925781 5.695312 13.359375 7.230469 L 13.277344 7.230469 C 13.03125 7.230469 12.828125 7.429688 12.828125 7.675781 L 12.828125 11.019531 C 12.828125 11.269531 13.03125 11.46875 13.277344 11.46875 L 13.855469 11.46875 C 14.570312 11.46875 15.152344 10.886719 15.152344 10.175781 L 15.152344 8.523438 C 15.152344 7.808594 14.570312 7.230469 13.855469 7.230469 Z M 4.9375 13.863281 L 6.132812 13.863281 C 6.417969 13.863281 6.652344 14.097656 6.652344 14.386719 C 6.652344 14.675781 6.417969 14.910156 6.132812 14.910156 L 4.9375 14.910156 C 4.648438 14.910156 4.414062 14.675781 4.414062 14.386719 C 4.414062 14.097656 4.648438 13.863281 4.9375 13.863281 Z M 1.964844 7.695312 L 1.964844 11.003906 C 1.964844 11.0625 1.917969 11.109375 1.863281 11.109375 L 1.300781 11.109375 C 0.785156 11.109375 0.367188 10.6875 0.367188 10.175781 L 0.367188 8.523438 C 0.367188 8.007812 0.785156 7.589844 1.300781 7.589844 L 1.863281 7.589844 C 1.917969 7.589844 1.964844 7.636719 1.964844 7.695312 Z M 14.789062 10.175781 C 14.789062 10.6875 14.371094 11.109375 13.855469 11.109375 L 13.277344 11.109375 C 13.230469 11.109375 13.191406 11.070312 13.191406 11.019531 L 13.191406 7.675781 C 13.191406 7.628906 13.230469 7.589844 13.277344 7.589844 L 13.855469 7.589844 C 14.371094 7.589844 14.789062 8.007812 14.789062 8.523438 Z M 14.789062 10.175781 " fill-opacity="1" fill-rule="nonzero"/></g></svg>