<svg xmlns="http://www.w3.org/2000/svg" xmlns:xlink="http://www.w3.org/1999/xlink" width="47" zoomAndPan="magnify" viewBox="0 0 35.25 42" height="56" preserveAspectRatio="xMidYMid meet" version="1.0"><defs><clipPath id="d62433adf1"><path d="M 0.0429688 8.535156 L 33.742188 8.535156 L 33.742188 31.976562 L 0.0429688 31.976562 Z M 0.0429688 8.535156 " clip-rule="nonzero"/></clipPath></defs><g clip-path="url(#d62433adf1)"><path fill="#9058ff" d="M 12.867188 19.445312 C 13.308594 19.445312 13.664062 19.800781 13.664062 20.242188 C 13.664062 20.679688 13.308594 21.039062 12.867188 21.039062 L 12.332031 21.039062 C 11.890625 21.039062 11.535156 20.679688 11.535156 20.242188 C 11.535156 19.800781 11.890625 19.445312 12.332031 19.445312 Z M 15.816406 21.039062 C 15.375 21.039062 15.019531 20.679688 15.019531 20.242188 C 15.019531 19.800781 15.375 19.445312 15.816406 19.445312 L 21.753906 19.445312 C 22.195312 19.445312 22.550781 19.800781 22.550781 20.242188 C 22.550781 20.679688 22.195312 21.039062 21.753906 21.039062 Z M 11.183594 24.855469 L 5.554688 24.855469 C 5.113281 24.855469 4.757812 24.5 4.757812 24.058594 L 4.757812 23.628906 L 1.96875 26.417969 L 4.757812 29.203125 L 4.757812 28.769531 C 4.757812 28.332031 5.113281 27.972656 5.554688 27.972656 L 15.351562 27.972656 C 17.199219 27.972656 18.734375 26.621094 19.027344 24.859375 L 11.183594 24.859375 Z M 20.636719 24.855469 C 20.332031 27.5 18.078125 29.566406 15.351562 29.566406 L 6.351562 29.566406 L 6.351562 31.125 C 6.351562 31.332031 6.273438 31.535156 6.117188 31.6875 C 5.804688 32 5.300781 32 4.988281 31.6875 L 0.28125 26.976562 C -0.03125 26.667969 -0.03125 26.160156 0.28125 25.851562 L 4.984375 21.148438 C 5.128906 20.996094 5.332031 20.90625 5.554688 20.90625 C 5.996094 20.90625 6.351562 21.261719 6.351562 21.703125 L 6.351562 23.261719 L 8.445312 23.261719 C 8.183594 22.800781 8.03125 22.269531 8.03125 21.703125 L 8.03125 18.777344 C 8.03125 17.910156 8.386719 17.121094 8.957031 16.550781 C 9.527344 15.980469 10.316406 15.625 11.183594 15.625 L 13.453125 15.625 C 13.59375 14.402344 14.148438 13.304688 14.976562 12.476562 C 15.941406 11.511719 17.269531 10.914062 18.738281 10.914062 L 27.738281 10.914062 L 27.738281 9.355469 C 27.738281 9.152344 27.816406 8.949219 27.972656 8.792969 C 28.28125 8.484375 28.789062 8.484375 29.097656 8.792969 L 33.808594 13.503906 C 34.117188 13.816406 34.117188 14.320312 33.808594 14.628906 L 29.105469 19.335938 C 28.960938 19.484375 28.757812 19.574219 28.535156 19.574219 C 28.09375 19.574219 27.738281 19.21875 27.738281 18.777344 L 27.738281 17.222656 L 25.644531 17.222656 C 25.90625 17.679688 26.058594 18.210938 26.058594 18.777344 L 26.058594 21.703125 C 26.058594 22.574219 25.703125 23.359375 25.132812 23.933594 C 24.5625 24.503906 23.773438 24.855469 22.90625 24.855469 Z M 22.90625 15.625 L 28.535156 15.625 C 28.976562 15.625 29.332031 15.984375 29.332031 16.421875 L 29.332031 16.855469 L 32.121094 14.066406 L 29.332031 11.277344 L 29.332031 11.710938 C 29.332031 12.152344 28.976562 12.507812 28.535156 12.507812 L 18.738281 12.507812 C 17.710938 12.507812 16.78125 12.925781 16.105469 13.601562 C 15.566406 14.140625 15.191406 14.84375 15.0625 15.625 Z M 22.90625 15.625 " fill-opacity="1" fill-rule="evenodd"/></g></svg>