<svg xmlns="http://www.w3.org/2000/svg" xmlns:xlink="http://www.w3.org/1999/xlink" width="17" zoomAndPan="magnify" viewBox="0 0 12.75 18.75" height="25" preserveAspectRatio="xMidYMid meet" version="1.0"><defs><clipPath id="68c0cb63b2"><path d="M 7 5 L 11.769531 5 L 11.769531 11 L 7 11 Z M 7 5 " clip-rule="nonzero"/></clipPath></defs><path fill="#9058ff" d="M 10.636719 13.253906 L 2.359375 13.253906 C 2.289062 13.253906 2.242188 13.207031 2.242188 13.136719 C 2.242188 12.742188 2.105469 12.511719 1.964844 12.511719 C 1.828125 12.511719 1.6875 12.742188 1.6875 13.136719 C 1.6875 13.207031 1.617188 13.253906 1.570312 13.253906 L 0.324219 13.253906 C 0.140625 13.253906 0 13.089844 0 12.929688 L 0 12.417969 C 0 12.375 0.046875 12.304688 0.117188 12.304688 L 0.507812 12.304688 C 0.53125 12.304688 0.554688 12.28125 0.554688 12.257812 L 0.554688 11.355469 C 0.554688 11.308594 0.53125 11.285156 0.507812 11.285156 L 0.117188 11.285156 C 0.046875 11.285156 0 11.242188 0 11.171875 L 0 10.152344 C 0 10.085938 0.046875 10.039062 0.117188 10.039062 L 0.507812 10.039062 C 0.53125 10.039062 0.554688 10.015625 0.554688 9.96875 L 0.554688 9.066406 C 0.554688 9.042969 0.53125 9.019531 0.507812 9.019531 L 0.117188 9.019531 C 0.046875 9.019531 0 8.953125 0 8.90625 L 0 8.417969 C 0 8.234375 0.140625 8.074219 0.324219 8.074219 L 1.570312 8.074219 C 1.617188 8.074219 1.6875 8.140625 1.6875 8.1875 C 1.6875 8.582031 1.828125 8.8125 1.964844 8.8125 C 2.105469 8.8125 2.242188 8.582031 2.242188 8.1875 C 2.242188 8.140625 2.289062 8.074219 2.359375 8.074219 L 7.492188 8.074219 C 7.5625 8.074219 7.605469 8.140625 7.605469 8.1875 C 7.605469 8.257812 7.5625 8.304688 7.492188 8.304688 L 2.472656 8.304688 C 2.429688 8.8125 2.195312 9.042969 1.964844 9.042969 C 1.734375 9.042969 1.480469 8.8125 1.457031 8.304688 L 0.324219 8.304688 C 0.277344 8.304688 0.230469 8.351562 0.230469 8.417969 L 0.230469 8.789062 L 0.507812 8.789062 C 0.671875 8.789062 0.785156 8.90625 0.785156 9.066406 L 0.785156 9.96875 C 0.785156 10.128906 0.671875 10.269531 0.507812 10.269531 L 0.230469 10.269531 L 0.230469 11.054688 L 0.507812 11.054688 C 0.671875 11.054688 0.785156 11.195312 0.785156 11.355469 L 0.785156 12.257812 C 0.785156 12.417969 0.671875 12.535156 0.507812 12.535156 L 0.230469 12.535156 L 0.230469 12.929688 C 0.230469 12.976562 0.277344 13.019531 0.324219 13.019531 L 1.457031 13.019531 C 1.480469 12.511719 1.734375 12.28125 1.964844 12.28125 C 2.195312 12.28125 2.429688 12.511719 2.472656 13.019531 L 10.636719 13.019531 C 10.683594 13.019531 10.726562 12.976562 10.726562 12.929688 L 10.726562 11.171875 C 10.289062 11.125 10.082031 10.894531 10.082031 10.664062 C 10.082031 10.429688 10.289062 10.199219 10.726562 10.152344 L 10.726562 9.785156 C 10.726562 9.714844 10.773438 9.667969 10.84375 9.667969 C 10.914062 9.667969 10.960938 9.714844 10.960938 9.785156 L 10.960938 10.269531 C 10.960938 10.339844 10.914062 10.386719 10.84375 10.386719 C 10.496094 10.386719 10.3125 10.523438 10.3125 10.664062 C 10.3125 10.800781 10.496094 10.941406 10.84375 10.941406 C 10.914062 10.941406 10.960938 10.984375 10.960938 11.054688 L 10.960938 12.929688 C 10.960938 13.089844 10.796875 13.253906 10.636719 13.253906 Z M 10.636719 13.253906 " fill-opacity="1" fill-rule="evenodd"/><path fill="#9058ff" d="M 9.964844 13.992188 C 9.941406 13.992188 9.917969 13.992188 9.871094 13.992188 L 7.191406 13.253906 C 7.121094 13.230469 7.097656 13.183594 7.097656 13.113281 C 7.121094 13.066406 7.167969 13.019531 7.214844 13.019531 L 10.335938 13.019531 C 10.382812 13.019531 10.40625 13.042969 10.429688 13.066406 C 10.449219 13.089844 10.449219 13.136719 10.449219 13.160156 L 10.289062 13.761719 C 10.242188 13.898438 10.105469 13.992188 9.964844 13.992188 Z M 8.070312 13.253906 L 9.941406 13.761719 C 9.988281 13.785156 10.058594 13.738281 10.058594 13.691406 L 10.195312 13.253906 Z M 1.964844 9.042969 C 1.734375 9.042969 1.480469 8.8125 1.457031 8.304688 L 1.15625 8.304688 C 1.132812 8.304688 1.085938 8.304688 1.0625 8.257812 C 1.039062 8.234375 1.039062 8.1875 1.039062 8.164062 L 1.292969 7.285156 C 1.292969 7.261719 1.292969 7.242188 1.292969 7.242188 C 1.273438 7.242188 1.273438 7.21875 1.25 7.21875 L 0.878906 7.125 C 0.808594 7.101562 0.785156 7.03125 0.785156 6.964844 L 0.925781 6.5 C 0.949219 6.40625 0.996094 6.339844 1.085938 6.292969 C 1.15625 6.269531 1.25 6.246094 1.316406 6.269531 L 2.519531 6.59375 C 2.542969 6.617188 2.566406 6.617188 2.589844 6.664062 C 2.589844 6.6875 2.613281 6.707031 2.589844 6.730469 C 2.496094 7.078125 2.566406 7.285156 2.636719 7.355469 C 2.683594 7.402344 2.726562 7.425781 2.773438 7.402344 C 2.890625 7.378906 3.050781 7.21875 3.144531 6.894531 C 3.144531 6.871094 3.167969 6.847656 3.191406 6.824219 C 3.214844 6.800781 3.261719 6.800781 3.285156 6.800781 L 7.515625 7.980469 C 7.582031 8.003906 7.605469 8.050781 7.605469 8.117188 C 7.605469 8.117188 7.582031 8.140625 7.582031 8.140625 C 7.605469 8.164062 7.605469 8.1875 7.605469 8.1875 C 7.605469 8.257812 7.5625 8.304688 7.492188 8.304688 L 2.472656 8.304688 C 2.429688 8.8125 2.195312 9.042969 1.964844 9.042969 Z M 1.316406 8.074219 L 1.570312 8.074219 C 1.617188 8.074219 1.6875 8.140625 1.6875 8.1875 C 1.6875 8.582031 1.828125 8.8125 1.964844 8.8125 C 2.105469 8.8125 2.242188 8.582031 2.242188 8.1875 C 2.242188 8.140625 2.289062 8.074219 2.359375 8.074219 L 7.027344 8.074219 L 3.328125 7.054688 C 3.214844 7.378906 3.050781 7.5625 2.84375 7.632812 C 2.707031 7.65625 2.566406 7.632812 2.472656 7.519531 C 2.335938 7.378906 2.289062 7.101562 2.335938 6.800781 L 1.273438 6.5 C 1.25 6.476562 1.203125 6.5 1.179688 6.5 C 1.179688 6.523438 1.15625 6.546875 1.132812 6.570312 L 1.039062 6.917969 L 1.316406 6.984375 C 1.386719 7.007812 1.457031 7.054688 1.480469 7.125 C 1.527344 7.195312 1.527344 7.261719 1.503906 7.332031 Z M 1.316406 8.074219 " fill-opacity="1" fill-rule="evenodd"/><path fill="#9058ff" d="M 0.507812 10.269531 L 0.117188 10.269531 C 0.046875 10.269531 0 10.199219 0 10.152344 L 0 8.90625 C 0 8.835938 0.046875 8.789062 0.117188 8.789062 L 0.507812 8.789062 C 0.671875 8.789062 0.785156 8.90625 0.785156 9.066406 L 0.785156 9.96875 C 0.785156 10.128906 0.671875 10.269531 0.507812 10.269531 Z M 0.230469 10.039062 L 0.507812 10.039062 C 0.53125 10.039062 0.554688 10.015625 0.554688 9.96875 L 0.554688 9.066406 C 0.554688 9.042969 0.53125 9.019531 0.507812 9.019531 L 0.230469 9.019531 Z M 0.230469 10.039062 " fill-opacity="1" fill-rule="evenodd"/><path fill="#9058ff" d="M 0.507812 12.535156 L 0.117188 12.535156 C 0.046875 12.535156 0 12.488281 0 12.417969 L 0 11.171875 C 0 11.125 0.046875 11.054688 0.117188 11.054688 L 0.507812 11.054688 C 0.671875 11.054688 0.785156 11.195312 0.785156 11.355469 L 0.785156 12.257812 C 0.785156 12.417969 0.671875 12.535156 0.507812 12.535156 Z M 0.230469 12.304688 L 0.507812 12.304688 C 0.53125 12.304688 0.554688 12.28125 0.554688 12.257812 L 0.554688 11.355469 C 0.554688 11.308594 0.53125 11.285156 0.507812 11.285156 L 0.230469 11.285156 Z M 0.230469 12.304688 " fill-opacity="1" fill-rule="evenodd"/><path fill="#9058ff" d="M 1.964844 11.839844 C 1.894531 11.839844 1.851562 11.796875 1.851562 11.726562 L 1.851562 11.425781 C 1.851562 11.355469 1.894531 11.308594 1.964844 11.308594 C 2.011719 11.308594 2.082031 11.355469 2.082031 11.425781 L 2.082031 11.726562 C 2.082031 11.796875 2.011719 11.839844 1.964844 11.839844 Z M 1.964844 10.964844 C 1.894531 10.964844 1.851562 10.917969 1.851562 10.847656 L 1.851562 10.476562 C 1.851562 10.40625 1.894531 10.363281 1.964844 10.363281 C 2.011719 10.363281 2.082031 10.40625 2.082031 10.476562 L 2.082031 10.847656 C 2.082031 10.917969 2.011719 10.964844 1.964844 10.964844 Z M 1.964844 10.039062 C 1.894531 10.039062 1.851562 9.96875 1.851562 9.921875 L 1.851562 9.597656 C 1.851562 9.550781 1.894531 9.484375 1.964844 9.484375 C 2.011719 9.484375 2.082031 9.550781 2.082031 9.597656 L 2.082031 9.921875 C 2.082031 9.96875 2.011719 10.039062 1.964844 10.039062 Z M 1.964844 10.039062 " fill-opacity="1" fill-rule="evenodd"/><path fill="#9058ff" d="M 8.300781 9.851562 L 3.167969 9.851562 C 3.097656 9.851562 3.050781 9.785156 3.050781 9.738281 L 3.050781 8.996094 C 3.050781 8.929688 3.097656 8.882812 3.167969 8.882812 L 8 8.882812 C 8.070312 8.882812 8.117188 8.929688 8.117188 8.996094 C 8.117188 9.066406 8.070312 9.113281 8 9.113281 L 3.285156 9.113281 L 3.285156 9.621094 L 8.300781 9.621094 C 8.371094 9.621094 8.417969 9.667969 8.417969 9.738281 C 8.417969 9.785156 8.371094 9.851562 8.300781 9.851562 Z M 8.300781 9.851562 " fill-opacity="1" fill-rule="evenodd"/><path fill="#9058ff" d="M 9.386719 10.753906 L 5.292969 10.753906 C 5.226562 10.753906 5.179688 10.707031 5.179688 10.640625 C 5.179688 10.570312 5.226562 10.523438 5.292969 10.523438 L 9.386719 10.523438 C 9.457031 10.523438 9.503906 10.570312 9.503906 10.640625 C 9.503906 10.707031 9.457031 10.753906 9.386719 10.753906 Z M 4.324219 10.753906 L 3.167969 10.753906 C 3.097656 10.753906 3.050781 10.707031 3.050781 10.640625 C 3.050781 10.570312 3.097656 10.523438 3.167969 10.523438 L 4.324219 10.523438 C 4.371094 10.523438 4.4375 10.570312 4.4375 10.640625 C 4.4375 10.707031 4.371094 10.753906 4.324219 10.753906 Z M 4.324219 10.753906 " fill-opacity="1" fill-rule="evenodd"/><path fill="#9058ff" d="M 9.386719 11.609375 L 7.167969 11.609375 C 7.121094 11.609375 7.074219 11.542969 7.074219 11.496094 C 7.074219 11.425781 7.121094 11.378906 7.167969 11.378906 L 9.386719 11.378906 C 9.457031 11.378906 9.503906 11.425781 9.503906 11.496094 C 9.503906 11.542969 9.457031 11.609375 9.386719 11.609375 Z M 6.195312 11.609375 L 3.167969 11.609375 C 3.097656 11.609375 3.050781 11.542969 3.050781 11.496094 C 3.050781 11.425781 3.097656 11.378906 3.167969 11.378906 L 6.195312 11.378906 C 6.265625 11.378906 6.3125 11.425781 6.3125 11.496094 C 6.3125 11.542969 6.265625 11.609375 6.195312 11.609375 Z M 6.195312 11.609375 " fill-opacity="1" fill-rule="evenodd"/><path fill="#9058ff" d="M 9.386719 12.441406 L 5.640625 12.441406 C 5.574219 12.441406 5.527344 12.398438 5.527344 12.328125 C 5.527344 12.28125 5.574219 12.210938 5.640625 12.210938 L 9.386719 12.210938 C 9.457031 12.210938 9.503906 12.28125 9.503906 12.328125 C 9.503906 12.398438 9.457031 12.441406 9.386719 12.441406 Z M 4.671875 12.441406 L 3.167969 12.441406 C 3.097656 12.441406 3.050781 12.398438 3.050781 12.328125 C 3.050781 12.28125 3.097656 12.210938 3.167969 12.210938 L 4.671875 12.210938 C 4.738281 12.210938 4.785156 12.28125 4.785156 12.328125 C 4.785156 12.398438 4.738281 12.441406 4.671875 12.441406 Z M 4.671875 12.441406 " fill-opacity="1" fill-rule="evenodd"/><g clip-path="url(#68c0cb63b2)"><path fill="#9058ff" d="M 9.917969 10.269531 L 9.292969 10.269531 C 9.15625 10.269531 9.039062 10.152344 9.039062 10.015625 L 9.039062 9.597656 C 8.996094 9.597656 8.949219 9.574219 8.902344 9.550781 L 8.601562 9.832031 C 8.507812 9.921875 8.347656 9.921875 8.253906 9.832031 L 7.816406 9.390625 C 7.746094 9.34375 7.722656 9.273438 7.722656 9.207031 C 7.722656 9.136719 7.746094 9.089844 7.816406 9.042969 L 8.09375 8.742188 C 8.070312 8.695312 8.046875 8.652344 8.023438 8.605469 L 7.628906 8.605469 C 7.492188 8.605469 7.375 8.488281 7.375 8.351562 L 7.375 7.726562 C 7.375 7.585938 7.492188 7.472656 7.628906 7.472656 L 8.023438 7.472656 C 8.046875 7.425781 8.070312 7.378906 8.09375 7.332031 L 7.816406 7.03125 C 7.699219 6.941406 7.699219 6.777344 7.816406 6.6875 L 8.253906 6.246094 C 8.347656 6.128906 8.507812 6.128906 8.601562 6.246094 L 8.902344 6.523438 C 8.949219 6.5 8.996094 6.476562 9.039062 6.453125 L 9.039062 6.0625 C 9.039062 5.921875 9.15625 5.808594 9.292969 5.808594 L 9.917969 5.808594 C 10.058594 5.808594 10.171875 5.921875 10.171875 6.0625 L 10.171875 6.453125 C 10.21875 6.476562 10.265625 6.5 10.3125 6.523438 L 10.613281 6.246094 C 10.707031 6.128906 10.867188 6.128906 10.960938 6.246094 L 11.398438 6.6875 C 11.445312 6.730469 11.46875 6.777344 11.46875 6.847656 C 11.46875 6.917969 11.445312 6.984375 11.398438 7.03125 L 11.121094 7.332031 C 11.144531 7.378906 11.167969 7.425781 11.167969 7.472656 L 11.582031 7.472656 C 11.722656 7.472656 11.839844 7.585938 11.839844 7.726562 L 11.839844 8.351562 C 11.839844 8.488281 11.722656 8.605469 11.582031 8.605469 L 11.167969 8.605469 C 11.167969 8.652344 11.144531 8.695312 11.121094 8.742188 L 11.398438 9.042969 C 11.445312 9.089844 11.46875 9.136719 11.46875 9.207031 C 11.46875 9.273438 11.445312 9.34375 11.398438 9.390625 L 10.960938 9.832031 C 10.867188 9.921875 10.707031 9.921875 10.613281 9.832031 L 10.3125 9.550781 C 10.265625 9.574219 10.21875 9.597656 10.171875 9.597656 L 10.171875 10.015625 C 10.171875 10.152344 10.058594 10.269531 9.917969 10.269531 Z M 8.878906 9.296875 C 8.878906 9.296875 8.902344 9.296875 8.925781 9.296875 C 9.015625 9.34375 9.085938 9.390625 9.179688 9.414062 C 9.25 9.4375 9.273438 9.460938 9.273438 9.53125 L 9.273438 10.015625 C 9.273438 10.039062 9.273438 10.039062 9.292969 10.039062 L 9.917969 10.039062 C 9.917969 10.039062 9.941406 10.039062 9.941406 10.015625 L 9.941406 9.53125 C 9.941406 9.484375 9.964844 9.4375 10.011719 9.414062 C 10.105469 9.390625 10.195312 9.34375 10.289062 9.296875 C 10.335938 9.273438 10.382812 9.296875 10.429688 9.320312 L 10.773438 9.667969 C 10.773438 9.691406 10.796875 9.691406 10.796875 9.667969 L 11.238281 9.230469 C 11.238281 9.230469 11.238281 9.230469 11.238281 9.207031 L 10.890625 8.859375 C 10.867188 8.8125 10.84375 8.765625 10.867188 8.71875 C 10.914062 8.628906 10.960938 8.535156 10.984375 8.441406 C 11.003906 8.398438 11.050781 8.375 11.097656 8.375 L 11.582031 8.375 C 11.605469 8.375 11.605469 8.351562 11.605469 8.351562 L 11.605469 7.726562 C 11.605469 7.703125 11.605469 7.703125 11.582031 7.703125 L 11.097656 7.703125 C 11.050781 7.703125 11.003906 7.65625 10.984375 7.609375 C 10.960938 7.519531 10.914062 7.449219 10.867188 7.355469 C 10.84375 7.308594 10.867188 7.261719 10.890625 7.21875 L 11.238281 6.871094 C 11.238281 6.871094 11.238281 6.871094 11.238281 6.847656 L 10.796875 6.40625 C 10.796875 6.386719 10.773438 6.386719 10.773438 6.40625 L 10.429688 6.753906 C 10.382812 6.777344 10.335938 6.800781 10.289062 6.777344 C 10.195312 6.730469 10.105469 6.6875 10.011719 6.664062 C 9.964844 6.640625 9.941406 6.59375 9.941406 6.546875 L 9.941406 6.0625 C 9.941406 6.039062 9.917969 6.039062 9.917969 6.039062 L 9.292969 6.039062 C 9.273438 6.039062 9.273438 6.039062 9.273438 6.0625 L 9.273438 6.546875 C 9.273438 6.59375 9.25 6.640625 9.179688 6.664062 C 9.085938 6.6875 9.015625 6.730469 8.925781 6.777344 C 8.878906 6.800781 8.832031 6.777344 8.785156 6.753906 L 8.4375 6.40625 C 8.4375 6.386719 8.417969 6.386719 8.417969 6.40625 L 7.976562 6.847656 C 7.953125 6.847656 7.953125 6.871094 7.976562 6.871094 L 8.324219 7.21875 C 8.347656 7.261719 8.371094 7.308594 8.347656 7.355469 C 8.300781 7.449219 8.253906 7.519531 8.230469 7.609375 C 8.207031 7.65625 8.160156 7.703125 8.117188 7.703125 L 7.628906 7.703125 C 7.605469 7.703125 7.605469 7.703125 7.605469 7.726562 L 7.605469 8.351562 C 7.605469 8.351562 7.605469 8.375 7.628906 8.375 L 8.117188 8.375 C 8.160156 8.375 8.207031 8.398438 8.230469 8.441406 C 8.253906 8.535156 8.300781 8.628906 8.347656 8.71875 C 8.371094 8.765625 8.347656 8.8125 8.324219 8.859375 L 7.976562 9.207031 C 7.953125 9.207031 7.953125 9.207031 7.953125 9.207031 C 7.953125 9.230469 7.953125 9.230469 7.976562 9.230469 L 8.417969 9.667969 C 8.417969 9.691406 8.4375 9.691406 8.4375 9.667969 L 8.785156 9.320312 C 8.808594 9.296875 8.832031 9.296875 8.878906 9.296875 Z M 8.878906 9.296875 " fill-opacity="1" fill-rule="evenodd"/></g><path fill="#9058ff" d="M 9.59375 9.019531 C 9.0625 9.019531 8.625 8.582031 8.625 8.027344 C 8.625 7.496094 9.0625 7.054688 9.59375 7.054688 C 10.148438 7.054688 10.589844 7.496094 10.589844 8.027344 C 10.589844 8.582031 10.148438 9.019531 9.59375 9.019531 Z M 9.59375 7.285156 C 9.203125 7.285156 8.855469 7.632812 8.855469 8.027344 C 8.855469 8.441406 9.203125 8.789062 9.59375 8.789062 C 10.011719 8.789062 10.359375 8.441406 10.359375 8.027344 C 10.359375 7.632812 10.011719 7.285156 9.59375 7.285156 Z M 9.59375 7.285156 " fill-opacity="1" fill-rule="evenodd"/></svg>