<svg xmlns="http://www.w3.org/2000/svg" xmlns:xlink="http://www.w3.org/1999/xlink" width="58" zoomAndPan="magnify" viewBox="0 0 43.5 42" height="56" preserveAspectRatio="xMidYMid meet" version="1.0"><defs><clipPath id="cbe8e8d082"><path d="M 0.261719 4 L 40 4 L 40 38.929688 L 0.261719 38.929688 Z M 0.261719 4 " clip-rule="nonzero"/></clipPath><clipPath id="c0df4629d7"><path d="M 1 1.570312 L 42.015625 1.570312 L 42.015625 37 L 1 37 Z M 1 1.570312 " clip-rule="nonzero"/></clipPath></defs><g clip-path="url(#cbe8e8d082)"><path fill="#bff747" d="M 28.46875 33.457031 L 9.804688 33.457031 C 9.6875 33.460938 9.585938 33.5 9.503906 33.585938 C 9.421875 33.667969 9.378906 33.765625 9.378906 33.882812 L 9.378906 38.738281 C 9.378906 38.855469 9.421875 38.953125 9.503906 39.039062 C 9.585938 39.121094 9.6875 39.164062 9.804688 39.164062 L 28.46875 39.164062 C 28.585938 39.164062 28.6875 39.121094 28.769531 39.039062 C 28.851562 38.953125 28.894531 38.855469 28.894531 38.738281 L 28.894531 33.882812 C 28.894531 33.765625 28.851562 33.667969 28.769531 33.585938 C 28.6875 33.5 28.585938 33.460938 28.46875 33.457031 Z M 9.179688 19.070312 C 9.175781 17.46875 9.539062 15.957031 10.269531 14.535156 L 6.488281 12.351562 C 5.371094 14.453125 4.816406 16.691406 4.820312 19.070312 Z M 14.605469 10.203125 C 15.867188 9.554688 17.210938 9.195312 18.628906 9.125 L 18.628906 4.761719 C 16.429688 4.835938 14.363281 5.390625 12.421875 6.421875 Z M 26.730469 6.929688 L 24.550781 10.710938 C 25.035156 11.027344 25.492188 11.382812 25.917969 11.777344 C 26.515625 10.398438 27.398438 9.238281 28.570312 8.300781 C 27.996094 7.792969 27.382812 7.339844 26.730469 6.929688 Z M 38.027344 11.636719 C 38.273438 11.882812 38.496094 12.152344 38.691406 12.441406 C 38.882812 12.734375 39.046875 13.039062 39.179688 13.363281 C 39.316406 13.683594 39.414062 14.015625 39.484375 14.359375 C 39.550781 14.703125 39.585938 15.046875 39.585938 15.398438 C 39.585938 15.746094 39.550781 16.09375 39.484375 16.433594 C 39.414062 16.777344 39.316406 17.109375 39.179688 17.433594 C 39.046875 17.753906 38.882812 18.0625 38.691406 18.351562 C 38.496094 18.640625 38.273438 18.910156 38.027344 19.15625 C 37.78125 19.40625 37.511719 19.625 37.222656 19.820312 C 36.933594 20.011719 36.625 20.175781 36.304688 20.3125 C 35.980469 20.445312 35.648438 20.546875 35.304688 20.613281 C 34.960938 20.683594 34.617188 20.714844 34.269531 20.714844 C 33.917969 20.714844 33.574219 20.683594 33.230469 20.613281 C 32.886719 20.546875 32.554688 20.445312 32.230469 20.3125 C 31.910156 20.175781 31.601562 20.011719 31.3125 19.820312 C 31.023438 19.625 30.753906 19.40625 30.507812 19.15625 C 30.261719 18.910156 30.039062 18.640625 29.84375 18.351562 C 29.652344 18.0625 29.488281 17.753906 29.355469 17.433594 C 29.21875 17.109375 29.121094 16.777344 29.050781 16.433594 C 28.984375 16.09375 28.949219 15.746094 28.949219 15.398438 C 28.949219 15.046875 28.984375 14.703125 29.050781 14.359375 C 29.121094 14.015625 29.21875 13.683594 29.355469 13.363281 C 29.488281 13.039062 29.652344 12.734375 29.84375 12.441406 C 30.039062 12.152344 30.261719 11.882812 30.507812 11.636719 C 30.753906 11.390625 31.023438 11.167969 31.3125 10.976562 C 31.601562 10.78125 31.910156 10.617188 32.230469 10.484375 C 32.554688 10.351562 32.886719 10.25 33.230469 10.179688 C 33.574219 10.113281 33.917969 10.078125 34.269531 10.078125 C 34.617188 10.078125 34.960938 10.113281 35.304688 10.179688 C 35.648438 10.25 35.980469 10.351562 36.304688 10.484375 C 36.625 10.617188 36.933594 10.78125 37.222656 10.976562 C 37.511719 11.167969 37.78125 11.390625 38.027344 11.636719 Z M 35.277344 14.386719 C 35 14.105469 34.664062 13.96875 34.269531 13.96875 C 32.996094 13.96875 32.359375 15.511719 33.257812 16.40625 C 34.125 17.277344 35.613281 16.710938 35.695312 15.488281 L 37.125 15.105469 C 37.261719 15.070312 37.363281 14.988281 37.433594 14.867188 C 37.503906 14.746094 37.523438 14.617188 37.484375 14.484375 C 37.449219 14.347656 37.371094 14.242188 37.25 14.171875 C 37.128906 14.101562 37 14.085938 36.863281 14.121094 L 35.394531 14.515625 C 35.359375 14.472656 35.320312 14.425781 35.277344 14.386719 Z M 37.695312 18.105469 C 37.597656 18.011719 37.476562 17.960938 37.339844 17.964844 C 37.199219 17.964844 37.082031 18.015625 36.984375 18.113281 C 36.882812 18.210938 36.835938 18.328125 36.832031 18.46875 C 36.832031 18.605469 36.878906 18.726562 36.976562 18.828125 L 37.097656 18.949219 C 37.199219 19.050781 37.320312 19.101562 37.460938 19.105469 C 37.601562 19.105469 37.726562 19.054688 37.824219 18.957031 C 37.925781 18.855469 37.976562 18.734375 37.972656 18.589844 C 37.972656 18.449219 37.921875 18.328125 37.820312 18.230469 Z M 31.558594 18.105469 C 31.457031 18.007812 31.339844 17.957031 31.199219 17.957031 C 31.058594 17.957031 30.9375 18.007812 30.835938 18.105469 L 30.714844 18.230469 C 30.613281 18.328125 30.5625 18.449219 30.558594 18.589844 C 30.558594 18.734375 30.609375 18.855469 30.707031 18.957031 C 30.808594 19.054688 30.929688 19.105469 31.074219 19.105469 C 31.214844 19.101562 31.335938 19.050781 31.433594 18.949219 L 31.558594 18.828125 C 31.65625 18.726562 31.707031 18.605469 31.707031 18.464844 C 31.707031 18.324219 31.65625 18.207031 31.558594 18.105469 Z M 31.558594 11.96875 L 31.433594 11.84375 C 31.335938 11.742188 31.214844 11.6875 31.074219 11.6875 C 30.929688 11.683594 30.808594 11.734375 30.707031 11.835938 C 30.605469 11.9375 30.554688 12.058594 30.554688 12.203125 C 30.558594 12.347656 30.613281 12.464844 30.714844 12.566406 L 30.839844 12.6875 C 30.9375 12.789062 31.058594 12.839844 31.199219 12.839844 C 31.339844 12.84375 31.460938 12.792969 31.5625 12.691406 C 31.664062 12.59375 31.714844 12.472656 31.710938 12.328125 C 31.710938 12.1875 31.660156 12.066406 31.558594 11.96875 Z M 36.976562 12.6875 C 37.078125 12.785156 37.195312 12.835938 37.335938 12.835938 C 37.476562 12.835938 37.597656 12.785156 37.695312 12.6875 L 37.820312 12.566406 C 37.921875 12.464844 37.972656 12.34375 37.972656 12.203125 C 37.972656 12.0625 37.925781 11.941406 37.824219 11.839844 C 37.722656 11.738281 37.601562 11.691406 37.460938 11.691406 C 37.320312 11.691406 37.199219 11.742188 37.097656 11.84375 L 36.976562 11.96875 C 36.878906 12.066406 36.828125 12.1875 36.828125 12.328125 C 36.828125 12.46875 36.878906 12.589844 36.976562 12.6875 Z M 38.78125 14.886719 L 38.609375 14.886719 C 38.46875 14.886719 38.347656 14.9375 38.25 15.039062 C 38.148438 15.136719 38.097656 15.257812 38.097656 15.398438 C 38.097656 15.539062 38.148438 15.65625 38.25 15.757812 C 38.347656 15.855469 38.46875 15.90625 38.609375 15.90625 L 38.78125 15.90625 C 38.921875 15.90625 39.042969 15.855469 39.140625 15.757812 C 39.242188 15.65625 39.289062 15.539062 39.289062 15.398438 C 39.289062 15.257812 39.242188 15.136719 39.140625 15.039062 C 39.042969 14.9375 38.921875 14.886719 38.78125 14.886719 Z M 34.265625 19.230469 C 34.125 19.230469 34.007812 19.277344 33.90625 19.378906 C 33.808594 19.476562 33.757812 19.597656 33.757812 19.738281 L 33.757812 19.910156 C 33.757812 20.050781 33.808594 20.171875 33.90625 20.269531 C 34.007812 20.371094 34.125 20.421875 34.265625 20.421875 C 34.40625 20.421875 34.527344 20.371094 34.628906 20.269531 C 34.726562 20.171875 34.777344 20.050781 34.777344 19.910156 L 34.777344 19.738281 C 34.777344 19.597656 34.726562 19.476562 34.628906 19.378906 C 34.527344 19.277344 34.40625 19.230469 34.265625 19.230469 Z M 30.4375 15.398438 C 30.4375 15.257812 30.386719 15.136719 30.285156 15.035156 C 30.1875 14.9375 30.066406 14.886719 29.925781 14.886719 L 29.753906 14.886719 C 29.613281 14.886719 29.492188 14.9375 29.394531 15.035156 C 29.292969 15.136719 29.246094 15.257812 29.246094 15.398438 C 29.246094 15.539062 29.292969 15.65625 29.394531 15.757812 C 29.492188 15.855469 29.613281 15.90625 29.753906 15.90625 L 29.925781 15.90625 C 30.066406 15.90625 30.1875 15.855469 30.285156 15.757812 C 30.386719 15.65625 30.4375 15.539062 30.4375 15.398438 Z M 34.777344 11.054688 L 34.777344 10.882812 C 34.777344 10.742188 34.726562 10.621094 34.628906 10.523438 C 34.527344 10.421875 34.40625 10.375 34.269531 10.375 C 34.128906 10.375 34.007812 10.421875 33.90625 10.523438 C 33.808594 10.621094 33.757812 10.742188 33.757812 10.882812 L 33.757812 11.054688 C 33.757812 11.195312 33.808594 11.316406 33.90625 11.417969 C 34.007812 11.515625 34.128906 11.566406 34.269531 11.566406 C 34.40625 11.566406 34.527344 11.515625 34.628906 11.417969 C 34.726562 11.316406 34.777344 11.195312 34.777344 11.054688 Z M 28.46875 23.039062 L 9.804688 23.039062 C 9.6875 23.039062 9.585938 23.082031 9.503906 23.164062 C 9.421875 23.246094 9.378906 23.347656 9.378906 23.464844 L 9.378906 28.316406 C 9.378906 28.433594 9.421875 28.535156 9.503906 28.617188 C 9.585938 28.699219 9.6875 28.742188 9.804688 28.742188 L 28.46875 28.742188 C 28.585938 28.742188 28.6875 28.699219 28.769531 28.617188 C 28.851562 28.535156 28.894531 28.433594 28.894531 28.316406 L 28.894531 23.464844 C 28.894531 23.347656 28.851562 23.246094 28.769531 23.164062 C 28.6875 23.082031 28.585938 23.039062 28.46875 23.039062 Z M 19.324219 24.3125 C 19.480469 24.3125 19.617188 24.371094 19.726562 24.480469 C 19.835938 24.589844 19.894531 24.726562 19.894531 24.882812 L 19.894531 26.898438 C 19.894531 27.054688 19.835938 27.191406 19.726562 27.300781 C 19.617188 27.414062 19.480469 27.46875 19.324219 27.46875 L 11.011719 27.46875 C 10.855469 27.46875 10.71875 27.414062 10.609375 27.300781 C 10.496094 27.191406 10.441406 27.054688 10.441406 26.898438 L 10.441406 24.882812 C 10.441406 24.726562 10.496094 24.589844 10.609375 24.480469 C 10.71875 24.371094 10.855469 24.3125 11.011719 24.3125 Z M 21.789062 25.890625 C 21.789062 25.734375 21.84375 25.597656 21.957031 25.488281 C 22.066406 25.378906 22.203125 25.320312 22.359375 25.320312 L 27.113281 25.320312 C 27.273438 25.320312 27.40625 25.375 27.519531 25.484375 C 27.632812 25.597656 27.691406 25.730469 27.691406 25.890625 C 27.691406 26.050781 27.632812 26.183594 27.519531 26.296875 C 27.40625 26.40625 27.273438 26.460938 27.113281 26.460938 L 22.359375 26.460938 C 22.203125 26.460938 22.066406 26.40625 21.957031 26.292969 C 21.84375 26.183594 21.789062 26.046875 21.789062 25.890625 Z M 34.671875 26.683594 L 31.328125 31.5625 L 33.1875 31.5625 L 33.1875 35.515625 L 36.152344 35.515625 L 36.152344 31.5625 L 38.011719 31.5625 Z M 3.605469 35.515625 L 6.949219 30.640625 L 5.085938 30.640625 L 5.085938 26.683594 L 2.125 26.683594 L 2.125 30.640625 L 0.261719 30.640625 Z M 19.894531 35.304688 L 19.894531 37.320312 C 19.894531 37.476562 19.835938 37.609375 19.726562 37.722656 C 19.613281 37.832031 19.480469 37.886719 19.324219 37.886719 L 11.011719 37.886719 C 10.855469 37.886719 10.71875 37.832031 10.609375 37.722656 C 10.496094 37.609375 10.441406 37.476562 10.441406 37.320312 L 10.441406 35.304688 C 10.441406 35.144531 10.496094 35.011719 10.609375 34.902344 C 10.71875 34.789062 10.855469 34.734375 11.011719 34.734375 L 19.324219 34.734375 C 19.480469 34.734375 19.617188 34.789062 19.726562 34.902344 C 19.835938 35.011719 19.894531 35.144531 19.894531 35.304688 Z M 22.359375 36.878906 C 22.199219 36.882812 22.0625 36.828125 21.953125 36.714844 C 21.839844 36.605469 21.78125 36.46875 21.78125 36.3125 C 21.78125 36.152344 21.839844 36.015625 21.953125 35.90625 C 22.0625 35.792969 22.199219 35.738281 22.359375 35.742188 L 27.113281 35.742188 C 27.273438 35.738281 27.40625 35.792969 27.519531 35.90625 C 27.632812 36.015625 27.691406 36.152344 27.691406 36.3125 C 27.691406 36.46875 27.632812 36.605469 27.519531 36.714844 C 27.40625 36.828125 27.273438 36.882812 27.113281 36.878906 Z M 22.359375 36.878906 " fill-opacity="1" fill-rule="evenodd"/></g><g clip-path="url(#c0df4629d7)"><path fill="#abb1b1" d="M 18.753906 35.871094 L 17.121094 35.871094 L 17.121094 36.75 L 18.753906 36.75 Z M 34.679688 15.398438 C 34.679688 15.285156 34.636719 15.1875 34.558594 15.105469 C 34.476562 15.027344 34.382812 14.984375 34.265625 14.984375 C 34.152344 14.984375 34.058594 15.027344 33.976562 15.105469 C 33.898438 15.1875 33.855469 15.285156 33.855469 15.398438 C 33.855469 15.511719 33.898438 15.605469 33.976562 15.6875 C 34.058594 15.769531 34.152344 15.808594 34.269531 15.808594 C 34.382812 15.808594 34.476562 15.765625 34.558594 15.6875 C 34.636719 15.605469 34.679688 15.511719 34.679688 15.398438 Z M 2.160156 19.59375 C 2.15625 17.34375 2.585938 15.175781 3.449219 13.09375 C 4.308594 11.015625 5.539062 9.179688 7.132812 7.589844 C 13.554688 1.164062 23.898438 0.933594 30.597656 7.066406 C 30.945312 6.914062 31.300781 6.785156 31.667969 6.675781 C 29.988281 5.042969 28.066406 3.789062 25.898438 2.910156 C 23.730469 2.03125 21.476562 1.59375 19.136719 1.597656 C 9.199219 1.597656 1.140625 9.65625 1.140625 19.59375 C 1.140625 19.734375 1.191406 19.855469 1.289062 19.953125 C 1.390625 20.054688 1.507812 20.101562 1.648438 20.101562 C 1.789062 20.101562 1.910156 20.054688 2.011719 19.953125 C 2.109375 19.855469 2.160156 19.734375 2.160156 19.59375 Z M 10.777344 13.65625 L 6.996094 11.476562 C 8.164062 9.613281 9.679688 8.097656 11.542969 6.929688 L 13.726562 10.710938 C 12.535156 11.484375 11.550781 12.46875 10.777344 13.660156 Z M 19.648438 4.761719 C 21.84375 4.835938 23.914062 5.390625 25.855469 6.421875 L 23.671875 10.203125 C 22.40625 9.554688 21.066406 9.195312 19.648438 9.125 Z M 39.980469 9.683594 C 40.355469 10.058594 40.691406 10.464844 40.988281 10.90625 C 41.28125 11.347656 41.53125 11.8125 41.734375 12.304688 C 41.9375 12.792969 42.089844 13.300781 42.195312 13.820312 C 42.296875 14.339844 42.347656 14.867188 42.347656 15.398438 C 42.347656 15.925781 42.296875 16.453125 42.195312 16.972656 C 42.089844 17.492188 41.9375 18 41.734375 18.488281 C 41.53125 18.980469 41.28125 19.445312 40.988281 19.886719 C 40.691406 20.328125 40.355469 20.738281 39.980469 21.113281 C 39.605469 21.488281 39.199219 21.820312 38.757812 22.117188 C 38.316406 22.410156 37.851562 22.660156 37.359375 22.863281 C 36.871094 23.066406 36.363281 23.21875 35.84375 23.324219 C 35.324219 23.425781 34.796875 23.480469 34.265625 23.480469 C 33.738281 23.480469 33.210938 23.425781 32.691406 23.324219 C 32.171875 23.21875 31.664062 23.066406 31.175781 22.863281 C 30.683594 22.660156 30.21875 22.410156 29.777344 22.117188 C 29.335938 21.820312 28.929688 21.488281 28.550781 21.113281 C 28.175781 20.738281 27.84375 20.328125 27.546875 19.886719 C 27.253906 19.445312 27.003906 18.980469 26.800781 18.488281 C 26.597656 18 26.445312 17.492188 26.339844 16.972656 C 26.238281 16.453125 26.1875 15.925781 26.1875 15.398438 C 26.1875 14.867188 26.238281 14.339844 26.339844 13.820312 C 26.445312 13.300781 26.597656 12.792969 26.800781 12.304688 C 27.003906 11.8125 27.253906 11.347656 27.546875 10.90625 C 27.84375 10.464844 28.175781 10.058594 28.550781 9.683594 C 28.929688 9.308594 29.335938 8.972656 29.777344 8.675781 C 30.21875 8.382812 30.683594 8.132812 31.175781 7.929688 C 31.664062 7.726562 32.171875 7.574219 32.691406 7.46875 C 33.210938 7.367188 33.738281 7.316406 34.265625 7.316406 C 34.796875 7.316406 35.324219 7.367188 35.84375 7.46875 C 36.363281 7.574219 36.871094 7.726562 37.359375 7.929688 C 37.851562 8.132812 38.316406 8.382812 38.757812 8.675781 C 39.199219 8.972656 39.605469 9.308594 39.980469 9.683594 Z M 29.785156 10.917969 C 30.082031 10.621094 30.402344 10.359375 30.746094 10.128906 C 31.09375 9.898438 31.457031 9.703125 31.84375 9.542969 C 32.226562 9.382812 32.625 9.261719 33.03125 9.183594 C 33.441406 9.101562 33.851562 9.058594 34.269531 9.058594 C 34.683594 9.058594 35.097656 9.101562 35.503906 9.183594 C 35.910156 9.261719 36.308594 9.382812 36.691406 9.542969 C 37.078125 9.703125 37.441406 9.898438 37.789062 10.128906 C 38.132812 10.359375 38.453125 10.621094 38.75 10.917969 C 39.042969 11.210938 39.304688 11.53125 39.535156 11.875 C 39.765625 12.222656 39.960938 12.585938 40.121094 12.972656 C 40.28125 13.355469 40.402344 13.753906 40.480469 14.160156 C 40.5625 14.570312 40.605469 14.980469 40.605469 15.398438 C 40.605469 15.8125 40.5625 16.226562 40.480469 16.632812 C 40.402344 17.042969 40.28125 17.4375 40.121094 17.820312 C 39.960938 18.207031 39.765625 18.570312 39.535156 18.917969 C 39.304688 19.261719 39.042969 19.582031 38.75 19.878906 C 38.453125 20.171875 38.132812 20.433594 37.789062 20.664062 C 37.441406 20.898438 37.078125 21.09375 36.691406 21.25 C 36.308594 21.410156 35.910156 21.53125 35.503906 21.613281 C 35.097656 21.691406 34.683594 21.734375 34.269531 21.734375 C 33.851562 21.734375 33.441406 21.691406 33.03125 21.613281 C 32.625 21.53125 32.226562 21.410156 31.84375 21.25 C 31.457031 21.09375 31.09375 20.898438 30.746094 20.664062 C 30.402344 20.433594 30.082031 20.171875 29.785156 19.878906 C 29.492188 19.582031 29.230469 19.261719 29 18.917969 C 28.769531 18.570312 28.574219 18.207031 28.414062 17.820312 C 28.253906 17.4375 28.132812 17.042969 28.050781 16.632812 C 27.972656 16.226562 27.929688 15.8125 27.929688 15.398438 C 27.929688 14.980469 27.972656 14.570312 28.050781 14.160156 C 28.132812 13.753906 28.253906 13.355469 28.414062 12.972656 C 28.574219 12.585938 28.769531 12.222656 29 11.875 C 29.230469 11.53125 29.492188 11.210938 29.785156 10.917969 Z M 19.136719 21.277344 C 18.867188 21.277344 18.605469 21.230469 18.351562 21.132812 C 18.097656 21.035156 17.871094 20.898438 17.667969 20.71875 C 17.464844 20.539062 17.300781 20.328125 17.175781 20.089844 C 17.050781 19.847656 16.972656 19.59375 16.941406 19.324219 C 16.910156 19.054688 16.929688 18.789062 16.996094 18.527344 C 17.0625 18.265625 17.175781 18.023438 17.328125 17.800781 C 17.484375 17.578125 17.675781 17.394531 17.898438 17.242188 C 18.125 17.089844 18.367188 16.984375 18.632812 16.921875 L 18.628906 11.496094 C 18.628906 11.355469 18.679688 11.238281 18.777344 11.136719 C 18.878906 11.039062 18.996094 10.988281 19.136719 10.988281 C 19.277344 10.988281 19.398438 11.039062 19.496094 11.136719 C 19.597656 11.238281 19.648438 11.355469 19.648438 11.496094 L 19.644531 16.921875 C 19.90625 16.984375 20.152344 17.089844 20.375 17.242188 C 20.601562 17.394531 20.789062 17.578125 20.945312 17.800781 C 21.101562 18.023438 21.210938 18.265625 21.277344 18.527344 C 21.347656 18.789062 21.363281 19.054688 21.332031 19.324219 C 21.300781 19.59375 21.222656 19.847656 21.097656 20.089844 C 20.972656 20.328125 20.808594 20.539062 20.605469 20.71875 C 20.40625 20.898438 20.175781 21.035156 19.921875 21.132812 C 19.671875 21.230469 19.410156 21.277344 19.136719 21.277344 Z M 17.121094 25.453125 L 17.121094 26.328125 L 18.753906 26.328125 L 18.753906 25.453125 Z M 14.351562 25.453125 L 14.351562 26.328125 L 15.984375 26.328125 L 15.984375 25.453125 Z M 11.582031 26.328125 L 13.214844 26.328125 L 13.214844 25.453125 L 11.582031 25.453125 Z M 25.367188 32.320312 L 25.367188 29.882812 L 12.90625 29.882812 L 12.90625 32.320312 Z M 13.214844 36.75 L 13.214844 35.871094 L 11.582031 35.871094 L 11.582031 36.75 Z M 15.984375 36.75 L 15.984375 35.871094 L 14.351562 35.871094 L 14.351562 36.75 Z M 15.984375 36.75 " fill-opacity="1" fill-rule="evenodd"/></g></svg>