<svg xmlns="http://www.w3.org/2000/svg" xmlns:xlink="http://www.w3.org/1999/xlink" width="89" zoomAndPan="magnify" viewBox="0 0 66.75 71.249999" height="95" preserveAspectRatio="xMidYMid meet" version="1.0"><defs><clipPath id="891fa9e171"><path d="M 20 22 L 61 22 L 61 61 L 20 61 Z M 20 22 " clip-rule="nonzero"/></clipPath><clipPath id="a3efeb282d"><path d="M 0.222656 12.144531 L 52.253906 -0.0429688 L 65.792969 57.769531 L 13.761719 69.953125 Z M 0.222656 12.144531 " clip-rule="nonzero"/></clipPath><clipPath id="f15b9b8849"><path d="M 0.222656 12.144531 L 52.253906 -0.0429688 L 65.792969 57.769531 L 13.761719 69.953125 Z M 0.222656 12.144531 " clip-rule="nonzero"/></clipPath><clipPath id="b348230553"><path d="M 11 13 L 18 13 L 18 20 L 11 20 Z M 11 13 " clip-rule="nonzero"/></clipPath><clipPath id="6e765e7716"><path d="M 0.222656 12.144531 L 52.253906 -0.0429688 L 65.792969 57.769531 L 13.761719 69.953125 Z M 0.222656 12.144531 " clip-rule="nonzero"/></clipPath><clipPath id="74f5e8a19d"><path d="M 0.222656 12.144531 L 52.253906 -0.0429688 L 65.792969 57.769531 L 13.761719 69.953125 Z M 0.222656 12.144531 " clip-rule="nonzero"/></clipPath><clipPath id="98907c3323"><path d="M 5 24 L 14 24 L 14 28 L 5 28 Z M 5 24 " clip-rule="nonzero"/></clipPath><clipPath id="7a75b79a8c"><path d="M 0.222656 12.144531 L 52.253906 -0.0429688 L 65.792969 57.769531 L 13.761719 69.953125 Z M 0.222656 12.144531 " clip-rule="nonzero"/></clipPath><clipPath id="9e4f8c5bd3"><path d="M 0.222656 12.144531 L 52.253906 -0.0429688 L 65.792969 57.769531 L 13.761719 69.953125 Z M 0.222656 12.144531 " clip-rule="nonzero"/></clipPath><clipPath id="655737bcf7"><path d="M 6 34 L 14 34 L 14 39 L 6 39 Z M 6 34 " clip-rule="nonzero"/></clipPath><clipPath id="34882111c1"><path d="M 0.222656 12.144531 L 52.253906 -0.0429688 L 65.792969 57.769531 L 13.761719 69.953125 Z M 0.222656 12.144531 " clip-rule="nonzero"/></clipPath><clipPath id="be186e5249"><path d="M 0.222656 12.144531 L 52.253906 -0.0429688 L 65.792969 57.769531 L 13.761719 69.953125 Z M 0.222656 12.144531 " clip-rule="nonzero"/></clipPath><clipPath id="ef29c4d02d"><path d="M 33 6 L 37 6 L 37 14 L 33 14 Z M 33 6 " clip-rule="nonzero"/></clipPath><clipPath id="2499feaddb"><path d="M 0.222656 12.144531 L 52.253906 -0.0429688 L 65.792969 57.769531 L 13.761719 69.953125 Z M 0.222656 12.144531 " clip-rule="nonzero"/></clipPath><clipPath id="7e676284a9"><path d="M 0.222656 12.144531 L 52.253906 -0.0429688 L 65.792969 57.769531 L 13.761719 69.953125 Z M 0.222656 12.144531 " clip-rule="nonzero"/></clipPath><clipPath id="40ee8f42f8"><path d="M 22 6 L 26 6 L 26 15 L 22 15 Z M 22 6 " clip-rule="nonzero"/></clipPath><clipPath id="194010c798"><path d="M 0.222656 12.144531 L 52.253906 -0.0429688 L 65.792969 57.769531 L 13.761719 69.953125 Z M 0.222656 12.144531 " clip-rule="nonzero"/></clipPath><clipPath id="9dc919a82d"><path d="M 0.222656 12.144531 L 52.253906 -0.0429688 L 65.792969 57.769531 L 13.761719 69.953125 Z M 0.222656 12.144531 " clip-rule="nonzero"/></clipPath></defs><g clip-path="url(#891fa9e171)"><g clip-path="url(#a3efeb282d)"><g clip-path="url(#f15b9b8849)"><path fill="#bff747" d="M 53.996094 60.398438 C 53.648438 60.480469 53.347656 60.394531 53.09375 60.148438 L 38.058594 45.542969 L 32.363281 59.824219 C 32.285156 60.019531 32.15625 60.171875 31.980469 60.285156 C 31.800781 60.398438 31.609375 60.449219 31.398438 60.4375 C 31.1875 60.421875 31 60.351562 30.839844 60.214844 C 30.675781 60.082031 30.566406 59.914062 30.515625 59.710938 L 20.996094 23.488281 C 20.949219 23.324219 20.953125 23.160156 20.996094 22.996094 C 21.039062 22.828125 21.121094 22.683594 21.238281 22.5625 C 21.359375 22.441406 21.5 22.355469 21.664062 22.308594 C 21.828125 22.257812 21.992188 22.253906 22.15625 22.292969 L 58.746094 30.855469 C 58.949219 30.902344 59.121094 31.007812 59.257812 31.167969 C 59.398438 31.324219 59.472656 31.511719 59.492188 31.71875 C 59.511719 31.929688 59.464844 32.125 59.355469 32.304688 C 59.25 32.484375 59.097656 32.617188 58.90625 32.699219 L 44.726562 38.730469 L 59.753906 53.328125 C 59.847656 53.417969 59.921875 53.523438 59.972656 53.644531 C 60.023438 53.761719 60.050781 53.886719 60.050781 54.015625 C 60.054688 54.148438 60.03125 54.273438 59.980469 54.390625 C 59.933594 54.511719 59.863281 54.617188 59.773438 54.710938 L 54.46875 60.132812 C 54.335938 60.265625 54.179688 60.355469 53.996094 60.398438 Z M 37.46875 42.878906 L 37.488281 42.875 C 37.828125 42.800781 38.121094 42.886719 38.371094 43.128906 L 53.753906 58.070312 L 57.695312 54.046875 L 42.316406 39.109375 C 42.199219 38.996094 42.117188 38.859375 42.066406 38.707031 C 42.015625 38.550781 42.007812 38.390625 42.035156 38.230469 C 42.066406 38.070312 42.132812 37.925781 42.234375 37.800781 C 42.335938 37.671875 42.460938 37.578125 42.609375 37.511719 L 55.394531 32.074219 L 23.292969 24.5625 L 31.648438 56.351562 L 36.785156 43.46875 C 36.910156 43.152344 37.136719 42.957031 37.46875 42.878906 Z M 37.46875 42.878906 " fill-opacity="1" fill-rule="nonzero"/></g></g></g><g clip-path="url(#b348230553)"><g clip-path="url(#6e765e7716)"><g clip-path="url(#74f5e8a19d)"><path fill="#bff747" d="M 16.980469 19.160156 C 16.636719 19.242188 16.335938 19.160156 16.078125 18.910156 L 11.984375 14.933594 C 11.890625 14.84375 11.816406 14.738281 11.761719 14.617188 C 11.710938 14.5 11.683594 14.375 11.679688 14.246094 C 11.675781 14.113281 11.699219 13.988281 11.746094 13.867188 C 11.792969 13.746094 11.863281 13.636719 11.953125 13.542969 C 12.046875 13.449219 12.152344 13.378906 12.269531 13.328125 C 12.390625 13.277344 12.515625 13.25 12.644531 13.25 C 12.777344 13.246094 12.902344 13.269531 13.023438 13.320312 C 13.144531 13.371094 13.25 13.441406 13.34375 13.53125 L 17.4375 17.511719 C 17.714844 17.78125 17.800781 18.101562 17.699219 18.472656 C 17.597656 18.84375 17.359375 19.074219 16.980469 19.160156 Z M 16.980469 19.160156 " fill-opacity="1" fill-rule="nonzero"/></g></g></g><g clip-path="url(#98907c3323)"><g clip-path="url(#7a75b79a8c)"><g clip-path="url(#9e4f8c5bd3)"><path fill="#bff747" d="M 12.566406 27.378906 C 12.414062 27.414062 12.257812 27.414062 12.105469 27.375 L 6.5625 25.972656 C 6.304688 25.90625 6.105469 25.753906 5.96875 25.523438 C 5.835938 25.296875 5.800781 25.050781 5.863281 24.792969 C 5.929688 24.53125 6.078125 24.332031 6.304688 24.195312 C 6.535156 24.058594 6.777344 24.019531 7.039062 24.082031 L 12.585938 25.484375 C 12.804688 25.539062 12.980469 25.65625 13.117188 25.832031 C 13.257812 26.011719 13.324219 26.214844 13.320312 26.4375 C 13.320312 26.664062 13.246094 26.863281 13.105469 27.039062 C 12.964844 27.214844 12.785156 27.328125 12.566406 27.378906 Z M 12.566406 27.378906 " fill-opacity="1" fill-rule="nonzero"/></g></g></g><g clip-path="url(#655737bcf7)"><g clip-path="url(#34882111c1)"><g clip-path="url(#be186e5249)"><path fill="#bff747" d="M 7.351562 38.238281 C 7.09375 38.304688 6.847656 38.269531 6.613281 38.132812 C 6.382812 37.996094 6.234375 37.796875 6.164062 37.535156 C 6.097656 37.273438 6.132812 37.027344 6.269531 36.796875 C 6.40625 36.566406 6.605469 36.414062 6.867188 36.347656 L 12.378906 34.796875 C 12.636719 34.722656 12.886719 34.753906 13.121094 34.886719 C 13.355469 35.019531 13.507812 35.214844 13.582031 35.472656 C 13.65625 35.730469 13.625 35.980469 13.492188 36.214844 C 13.363281 36.449219 13.167969 36.605469 12.90625 36.675781 L 7.394531 38.226562 Z M 7.351562 38.238281 " fill-opacity="1" fill-rule="nonzero"/></g></g></g><g clip-path="url(#ef29c4d02d)"><g clip-path="url(#2499feaddb)"><g clip-path="url(#7e676284a9)"><path fill="#bff747" d="M 34.265625 13.925781 C 34.101562 13.964844 33.933594 13.960938 33.773438 13.910156 C 33.609375 13.863281 33.464844 13.777344 33.347656 13.65625 C 33.226562 13.535156 33.144531 13.390625 33.101562 13.226562 C 33.058594 13.0625 33.058594 12.898438 33.101562 12.734375 L 34.515625 7.203125 C 34.546875 7.078125 34.605469 6.964844 34.679688 6.859375 C 34.757812 6.757812 34.855469 6.671875 34.964844 6.605469 C 35.078125 6.539062 35.195312 6.496094 35.324219 6.480469 C 35.453125 6.460938 35.582031 6.46875 35.707031 6.5 C 35.832031 6.53125 35.945312 6.589844 36.050781 6.667969 C 36.152344 6.742188 36.238281 6.839844 36.304688 6.949219 C 36.371094 7.0625 36.410156 7.183594 36.429688 7.308594 C 36.445312 7.4375 36.441406 7.566406 36.40625 7.691406 L 34.988281 13.214844 C 34.890625 13.597656 34.652344 13.835938 34.265625 13.925781 Z M 34.265625 13.925781 " fill-opacity="1" fill-rule="nonzero"/></g></g></g><g clip-path="url(#40ee8f42f8)"><g clip-path="url(#194010c798)"><g clip-path="url(#9dc919a82d)"><path fill="#bff747" d="M 24.921875 14.234375 C 24.667969 14.296875 24.429688 14.257812 24.203125 14.125 C 23.980469 13.992188 23.832031 13.800781 23.761719 13.550781 L 22.214844 8.0625 C 22.140625 7.804688 22.171875 7.554688 22.300781 7.320312 C 22.433594 7.085938 22.628906 6.929688 22.890625 6.859375 C 23.148438 6.785156 23.394531 6.8125 23.632812 6.945312 C 23.867188 7.078125 24.019531 7.273438 24.09375 7.53125 L 25.640625 13.019531 C 25.714844 13.28125 25.683594 13.527344 25.550781 13.761719 C 25.421875 13.996094 25.226562 14.152344 24.964844 14.222656 Z M 24.921875 14.234375 " fill-opacity="1" fill-rule="nonzero"/></g></g></g></svg>