<svg xmlns="http://www.w3.org/2000/svg" xmlns:xlink="http://www.w3.org/1999/xlink" width="85" zoomAndPan="magnify" viewBox="0 0 63.75 58.499998" height="78" preserveAspectRatio="xMidYMid meet" version="1.0"><defs><clipPath id="8834377e80"><path d="M 0.144531 0 L 63.355469 0 L 63.355469 58 L 0.144531 58 Z M 0.144531 0 " clip-rule="nonzero"/></clipPath></defs><g clip-path="url(#8834377e80)"><path fill="#bff747" d="M 5.679688 10.84375 C 5.679688 7.253906 8.601562 4.332031 12.191406 4.332031 C 13.238281 4.332031 14.28125 4.585938 15.207031 5.070312 C 15.589844 5.273438 15.738281 5.746094 15.539062 6.128906 C 15.335938 6.515625 14.863281 6.664062 14.476562 6.460938 C 13.769531 6.089844 12.996094 5.902344 12.191406 5.902344 C 9.46875 5.902344 7.25 8.117188 7.25 10.84375 C 7.25 13.566406 9.464844 15.785156 12.191406 15.785156 C 14.914062 15.785156 17.132812 13.566406 17.132812 10.84375 C 17.132812 10.746094 17.128906 10.648438 17.125 10.550781 C 17.097656 10.117188 17.429688 9.746094 17.863281 9.722656 C 18.296875 9.699219 18.667969 10.027344 18.691406 10.460938 C 18.699219 10.589844 18.703125 10.71875 18.703125 10.84375 C 18.703125 14.433594 15.78125 17.355469 12.191406 17.355469 C 8.601562 17.355469 5.679688 14.433594 5.679688 10.84375 Z M 18.144531 5.257812 L 12.382812 11.015625 L 10.480469 9.117188 C 10.175781 8.808594 9.675781 8.808594 9.371094 9.117188 C 9.0625 9.421875 9.0625 9.921875 9.371094 10.226562 L 11.828125 12.683594 C 11.972656 12.832031 12.175781 12.914062 12.382812 12.914062 C 12.589844 12.914062 12.789062 12.832031 12.9375 12.683594 L 19.253906 6.367188 C 19.558594 6.0625 19.558594 5.566406 19.253906 5.257812 C 18.949219 4.949219 18.449219 4.949219 18.144531 5.257812 Z M 20.84375 16.332031 L 20.84375 5.355469 C 20.84375 4.921875 21.195312 4.570312 21.628906 4.570312 L 51.824219 4.570312 C 52.257812 4.570312 52.609375 4.921875 52.609375 5.355469 L 52.609375 16.332031 C 52.609375 16.765625 52.257812 17.117188 51.824219 17.117188 L 21.628906 17.117188 C 21.195312 17.117188 20.84375 16.765625 20.84375 16.332031 Z M 22.417969 15.546875 L 51.039062 15.546875 L 51.039062 6.140625 L 22.417969 6.140625 Z M 26.28125 8.195312 L 24.023438 8.195312 L 24.023438 9.765625 L 26.28125 9.765625 Z M 27.964844 9.765625 L 48.277344 9.765625 L 48.277344 8.195312 L 27.964844 8.195312 Z M 24.023438 13.105469 L 31.1875 13.105469 L 31.1875 11.535156 L 24.023438 11.535156 Z M 17.863281 23.757812 C 17.429688 23.785156 17.097656 24.15625 17.121094 24.585938 C 17.128906 24.683594 17.128906 24.78125 17.128906 24.878906 C 17.128906 27.601562 14.914062 29.820312 12.191406 29.820312 C 9.464844 29.820312 7.25 27.605469 7.25 24.878906 C 7.25 22.15625 9.464844 19.9375 12.191406 19.9375 C 12.996094 19.9375 13.765625 20.128906 14.476562 20.5 C 14.859375 20.699219 15.335938 20.550781 15.535156 20.167969 C 15.738281 19.78125 15.589844 19.308594 15.207031 19.105469 C 14.28125 18.625 13.238281 18.367188 12.191406 18.367188 C 8.597656 18.367188 5.679688 21.289062 5.679688 24.878906 C 5.679688 28.46875 8.597656 31.390625 12.191406 31.390625 C 15.78125 31.390625 18.703125 28.46875 18.703125 24.878906 C 18.703125 24.753906 18.699219 24.625 18.691406 24.496094 C 18.667969 24.0625 18.292969 23.734375 17.863281 23.757812 Z M 18.144531 19.292969 L 12.382812 25.054688 L 10.480469 23.152344 C 10.175781 22.847656 9.675781 22.847656 9.371094 23.152344 C 9.0625 23.460938 9.0625 23.957031 9.371094 24.265625 L 11.828125 26.722656 C 11.972656 26.867188 12.175781 26.953125 12.382812 26.953125 C 12.589844 26.953125 12.789062 26.871094 12.9375 26.722656 L 19.253906 20.40625 C 19.558594 20.097656 19.558594 19.601562 19.253906 19.292969 C 18.949219 18.988281 18.449219 18.988281 18.144531 19.292969 Z M 26.28125 22.230469 L 24.023438 22.230469 L 24.023438 23.800781 L 26.28125 23.800781 Z M 24.023438 27.140625 L 31.1875 27.140625 L 31.1875 25.570312 L 24.023438 25.570312 Z M 63.25 50.324219 L 63.261719 56.96875 C 63.261719 57.175781 63.179688 57.378906 63.035156 57.527344 C 62.886719 57.671875 62.6875 57.757812 62.476562 57.757812 L 45.234375 57.792969 C 44.800781 57.792969 44.449219 57.441406 44.449219 57.007812 L 44.433594 50.363281 C 44.433594 50.152344 44.515625 49.953125 44.664062 49.804688 C 44.8125 49.65625 45.011719 49.574219 45.21875 49.574219 L 46.773438 49.570312 C 46.746094 48.785156 46.6875 48.34375 46.332031 47.917969 C 46.132812 47.671875 45.929688 47.433594 45.726562 47.195312 C 44.789062 46.089844 43.820312 44.949219 42.898438 43.207031 L 4.695312 43.207031 C 2.199219 43.207031 0.167969 41.175781 0.167969 38.675781 L 0.167969 34.933594 C 0.167969 34.5 0.519531 34.148438 0.953125 34.148438 L 1.445312 34.148438 L 1.445312 2.671875 C 1.445312 1.203125 2.640625 0.0078125 4.113281 0.0078125 L 54.183594 0.0078125 C 55.652344 0.0078125 56.847656 1.203125 56.847656 2.671875 L 56.847656 29.476562 C 57.4375 29.566406 57.980469 29.832031 58.410156 30.261719 C 58.75 30.601562 58.992188 31.007812 59.121094 31.453125 C 59.519531 31.234375 59.976562 31.109375 60.460938 31.109375 L 60.46875 31.109375 C 62.007812 31.109375 63.261719 32.359375 63.265625 33.902344 L 63.28125 41.855469 C 63.285156 44.414062 62.785156 45.195312 62.128906 45.949219 C 61.746094 46.390625 61.417969 46.773438 61.453125 48.722656 L 61.464844 49.539062 L 62.464844 49.539062 C 62.898438 49.539062 63.25 49.890625 63.253906 50.324219 Z M 3.015625 34.144531 L 22.011719 34.144531 C 22.445312 34.144531 22.796875 34.496094 22.796875 34.929688 L 22.796875 35.636719 C 22.796875 36.441406 23.453125 37.097656 24.261719 37.097656 L 34.03125 37.097656 C 34.839844 37.097656 35.496094 36.441406 35.496094 35.636719 L 35.496094 34.929688 C 35.496094 34.496094 35.847656 34.144531 36.28125 34.144531 L 39.660156 34.144531 C 40.789062 33.441406 42.519531 33.355469 43.769531 34.144531 L 45.589844 34.144531 L 45.585938 31.15625 L 21.632812 31.15625 C 21.199219 31.15625 20.847656 30.800781 20.847656 30.367188 L 20.847656 19.390625 C 20.847656 18.957031 21.199219 18.605469 21.632812 18.605469 L 51.828125 18.605469 C 52.261719 18.605469 52.613281 18.957031 52.613281 19.390625 L 52.613281 28.390625 C 53.601562 28.464844 54.453125 29.0625 54.890625 29.910156 C 55.011719 29.828125 55.144531 29.761719 55.277344 29.699219 L 55.277344 2.671875 C 55.277344 2.070312 54.785156 1.578125 54.183594 1.578125 L 4.109375 1.578125 C 3.507812 1.578125 3.015625 2.070312 3.015625 2.671875 Z M 45.59375 35.714844 L 45.308594 35.714844 L 45.59375 36.046875 Z M 48.363281 21.457031 L 48.367188 21.457031 C 49.621094 21.457031 50.683594 22.285156 51.039062 23.417969 L 51.039062 20.175781 L 22.417969 20.175781 L 22.417969 29.582031 L 45.582031 29.582031 L 45.570312 24.257812 C 45.570312 24.101562 45.585938 23.949219 45.609375 23.800781 L 27.964844 23.800781 L 27.964844 22.226562 L 46.445312 22.226562 C 46.964844 21.730469 47.644531 21.453125 48.363281 21.453125 Z M 4.695312 41.632812 L 42.0625 41.632812 C 41.285156 40.292969 40.300781 38.886719 39.074219 37.371094 C 38.640625 36.839844 38.46875 36.261719 38.542969 35.714844 L 37.0625 35.714844 C 37.023438 37.351562 35.675781 38.671875 34.03125 38.671875 L 24.261719 38.671875 C 22.613281 38.671875 21.269531 37.351562 21.226562 35.714844 L 1.738281 35.714844 L 1.738281 38.675781 C 1.738281 40.304688 3.066406 41.632812 4.695312 41.632812 Z M 48.347656 49.566406 L 59.890625 49.542969 L 59.875 48.75 C 59.835938 46.386719 60.3125 45.644531 60.941406 44.921875 C 61.335938 44.464844 61.710938 44.035156 61.707031 41.859375 L 61.691406 33.90625 C 61.691406 33.578125 61.5625 33.273438 61.328125 33.039062 C 61.09375 32.808594 60.789062 32.679688 60.464844 32.679688 L 60.460938 32.679688 C 59.785156 32.679688 59.234375 33.230469 59.238281 33.910156 C 59.238281 33.910156 59.238281 33.910156 59.238281 33.914062 L 59.242188 36.378906 C 59.242188 36.8125 58.890625 37.164062 58.457031 37.164062 C 58.023438 37.164062 57.671875 36.8125 57.671875 36.378906 L 57.664062 32.238281 C 57.664062 31.914062 57.53125 31.605469 57.300781 31.375 C 57.066406 31.144531 56.761719 31.015625 56.433594 31.015625 C 56.105469 31.015625 55.800781 31.144531 55.566406 31.378906 C 55.375 31.570312 55.253906 31.816406 55.21875 32.082031 L 55.277344 35.851562 C 55.285156 36.285156 54.9375 36.644531 54.503906 36.648438 C 54.5 36.648438 54.496094 36.648438 54.492188 36.648438 C 54.0625 36.648438 53.714844 36.308594 53.707031 35.875 L 53.652344 32.40625 C 53.640625 32.355469 53.636719 32.300781 53.636719 32.246094 C 53.636719 32.167969 53.640625 32.09375 53.644531 32.015625 L 53.632812 31.1875 C 53.621094 30.503906 53.074219 29.953125 52.40625 29.953125 L 52.402344 29.953125 C 52.078125 29.953125 51.769531 30.082031 51.539062 30.316406 C 51.304688 30.546875 51.179688 30.855469 51.179688 31.183594 L 51.1875 35.265625 C 51.1875 35.699219 50.835938 36.050781 50.402344 36.054688 C 49.96875 36.054688 49.617188 35.703125 49.613281 35.269531 L 49.59375 24.25 C 49.59375 23.574219 49.042969 23.023438 48.367188 23.023438 L 48.363281 23.023438 C 48.035156 23.023438 47.730469 23.152344 47.496094 23.386719 C 47.265625 23.621094 47.136719 23.929688 47.136719 24.253906 L 47.148438 30.367188 L 47.160156 34.925781 L 47.164062 38.152344 C 47.164062 38.480469 46.960938 38.773438 46.65625 38.886719 C 46.347656 39.003906 46 38.914062 45.785156 38.667969 L 43.277344 35.765625 C 42.515625 34.890625 40.960938 35.054688 40.324219 35.589844 C 40.070312 35.800781 39.984375 35.996094 40.289062 36.375 C 41.933594 38.402344 43.167969 40.253906 44.0625 42.035156 C 44.066406 42.039062 44.070312 42.046875 44.074219 42.050781 C 44.082031 42.070312 44.09375 42.089844 44.101562 42.109375 C 44.996094 43.902344 45.929688 45.003906 46.921875 46.171875 C 47.128906 46.414062 47.332031 46.660156 47.539062 46.910156 C 48.230469 47.75 48.3125 48.628906 48.339844 49.558594 Z M 61.6875 56.1875 L 61.679688 51.113281 L 47.582031 51.140625 L 46.007812 51.140625 L 46.019531 56.214844 L 61.691406 56.1875 Z M 61.6875 56.1875 " fill-opacity="1" fill-rule="nonzero"/></g></svg>