<svg xmlns="http://www.w3.org/2000/svg" xmlns:xlink="http://www.w3.org/1999/xlink" width="78" zoomAndPan="magnify" viewBox="0 0 58.5 58.499999" height="78" preserveAspectRatio="xMidYMid meet" version="1.0"><path fill="#bbe463" d="M 45.054688 33.691406 C 40.34375 44.59375 31.480469 49.488281 28.929688 50.785156 C 26.378906 49.488281 17.519531 44.59375 12.808594 33.691406 C 8.703125 24.1875 10.140625 15.65625 10.792969 12.652344 C 12.425781 13.097656 15.277344 13.628906 18.695312 12.976562 C 24.417969 11.882812 27.84375 8.203125 28.929688 6.929688 C 30.019531 8.203125 33.445312 11.882812 39.167969 12.976562 C 42.585938 13.628906 45.4375 13.097656 47.070312 12.652344 C 47.71875 15.65625 49.160156 24.1875 45.054688 33.691406 Z M 45.054688 33.691406 " fill-opacity="1" fill-rule="nonzero"/><path fill="#13191d" d="M 34.179688 26.054688 L 34.179688 23.953125 C 34.179688 22.503906 33.589844 21.191406 32.640625 20.242188 C 31.691406 19.292969 30.378906 18.707031 28.929688 18.707031 C 26.035156 18.707031 23.683594 21.054688 23.683594 23.953125 L 23.683594 26.050781 C 22.925781 26.347656 22.382812 27.082031 22.382812 27.945312 L 22.382812 36.980469 C 22.382812 38.101562 23.292969 39.007812 24.414062 39.007812 L 33.449219 39.007812 C 34.570312 39.007812 35.476562 38.101562 35.476562 36.980469 L 35.476562 27.945312 C 35.476562 27.082031 34.9375 26.347656 34.179688 26.054688 Z M 29.613281 35.535156 L 28.246094 35.535156 C 27.675781 35.535156 27.246094 35.011719 27.359375 34.449219 L 27.984375 31.351562 C 27.691406 31.089844 27.503906 30.710938 27.503906 30.285156 C 27.503906 29.496094 28.144531 28.859375 28.929688 28.859375 C 29.71875 28.859375 30.359375 29.496094 30.359375 30.285156 C 30.359375 30.710938 30.171875 31.089844 29.878906 31.351562 L 30.503906 34.449219 C 30.617188 35.011719 30.1875 35.535156 29.613281 35.535156 Z M 31.011719 25.917969 L 26.851562 25.917969 L 26.851562 23.921875 C 26.851562 22.773438 27.78125 21.839844 28.929688 21.839844 C 29.503906 21.839844 30.023438 22.074219 30.402344 22.449219 C 30.777344 22.828125 31.011719 23.347656 31.011719 23.921875 Z M 31.011719 25.917969 " fill-opacity="1" fill-rule="nonzero"/><path fill="#bbe463" d="M 5.160156 14.476562 C 6.609375 12.085938 8.414062 9.929688 10.5 8.074219 C 12.585938 6.21875 14.949219 4.691406 17.488281 3.535156 C 20.078125 2.359375 22.875 1.585938 25.699219 1.261719 C 28.621094 0.929688 31.597656 1.046875 34.480469 1.632812 C 37.265625 2.203125 39.960938 3.195312 42.445312 4.582031 C 43.765625 5.320312 45.027344 6.167969 46.207031 7.109375 C 45.394531 8.359375 45.535156 10.054688 46.636719 11.152344 C 47.734375 12.253906 49.429688 12.394531 50.679688 11.578125 C 50.867188 11.457031 51.042969 11.316406 51.207031 11.152344 C 51.28125 11.078125 51.351562 11.003906 51.414062 10.925781 C 52.464844 9.652344 52.394531 7.769531 51.207031 6.582031 C 50.019531 5.394531 48.132812 5.324219 46.863281 6.375 C 46.707031 6.246094 46.546875 6.125 46.386719 6 C 44.085938 4.238281 41.523438 2.835938 38.804688 1.835938 C 36 0.808594 33.027344 0.234375 30.042969 0.117188 C 27.027344 0 23.984375 0.355469 21.078125 1.179688 C 18.28125 1.972656 15.597656 3.199219 13.167969 4.792969 C 10.761719 6.378906 8.582031 8.324219 6.75 10.550781 C 4.898438 12.796875 3.398438 15.304688 2.292969 18 C 1.164062 20.753906 0.484375 23.679688 0.253906 26.640625 C 0.0195312 29.664062 0.265625 32.730469 0.980469 35.679688 C 1.300781 36.996094 1.714844 38.292969 2.222656 39.550781 C 2.308594 39.492188 2.402344 39.4375 2.496094 39.386719 C 2.695312 39.28125 2.902344 39.195312 3.113281 39.132812 C 2.089844 36.546875 1.449219 33.808594 1.234375 31.035156 C 1.011719 28.097656 1.242188 25.128906 1.941406 22.261719 C 2.609375 19.519531 3.699219 16.890625 5.160156 14.476562 Z M 5.160156 14.476562 " fill-opacity="1" fill-rule="nonzero"/><path fill="#bbe463" d="M 56.300781 19.984375 C 56.101562 19.371094 55.878906 18.765625 55.640625 18.164062 C 55.550781 18.222656 55.460938 18.277344 55.367188 18.328125 C 55.164062 18.4375 54.957031 18.523438 54.746094 18.582031 C 55.519531 20.519531 56.066406 22.542969 56.386719 24.601562 C 56.605469 26.007812 56.707031 27.433594 56.707031 28.859375 C 56.703125 31.78125 56.253906 34.6875 55.347656 37.46875 C 54.480469 40.136719 53.199219 42.660156 51.578125 44.949219 C 49.976562 47.203125 48.027344 49.230469 45.832031 50.910156 C 43.609375 52.609375 41.132812 53.980469 38.507812 54.941406 C 35.78125 55.9375 32.90625 56.507812 30.003906 56.613281 C 27.082031 56.722656 24.152344 56.382812 21.339844 55.585938 C 18.617188 54.8125 16.03125 53.625 13.667969 52.070312 C 12.972656 51.613281 12.300781 51.125 11.652344 50.609375 C 12.46875 49.355469 12.324219 47.660156 11.226562 46.5625 C 10.125 45.460938 8.429688 45.320312 7.175781 46.136719 C 6.992188 46.257812 6.816406 46.398438 6.65625 46.5625 C 6.582031 46.636719 6.511719 46.714844 6.445312 46.792969 C 5.398438 48.0625 5.46875 49.945312 6.65625 51.132812 C 7.84375 52.320312 9.726562 52.390625 10.996094 51.34375 C 12.851562 52.824219 14.890625 54.082031 17.058594 55.0625 C 19.777344 56.289062 22.660156 57.082031 25.625 57.429688 C 28.644531 57.78125 31.722656 57.644531 34.703125 57.039062 C 37.570312 56.460938 40.351562 55.425781 42.910156 54.003906 C 45.429688 52.597656 47.742188 50.808594 49.734375 48.71875 C 51.722656 46.636719 53.402344 44.253906 54.683594 41.679688 C 55.996094 39.042969 56.90625 36.210938 57.351562 33.296875 C 57.574219 31.828125 57.691406 30.347656 57.695312 28.859375 L 57.695312 28.855469 C 57.691406 25.851562 57.226562 22.84375 56.300781 19.984375 Z M 56.300781 19.984375 " fill-opacity="1" fill-rule="nonzero"/></svg>