<svg xmlns="http://www.w3.org/2000/svg" xmlns:xlink="http://www.w3.org/1999/xlink" width="98" zoomAndPan="magnify" viewBox="0 0 73.5 58.499998" height="78" preserveAspectRatio="xMidYMid meet" version="1.0"><defs><clipPath id="b524d6f451"><path d="M 0.0625 0 L 72 0 L 72 57 L 0.0625 57 Z M 0.0625 0 " clip-rule="nonzero"/></clipPath><clipPath id="f1d1efb136"><path d="M 0.0625 56 L 37 56 L 37 58 L 0.0625 58 Z M 0.0625 56 " clip-rule="nonzero"/></clipPath></defs><g clip-path="url(#b524d6f451)"><path fill="#bff747" d="M 69.238281 13.605469 C 66.25 7.253906 61.210938 2.878906 55.046875 1.28125 C 50.292969 0.046875 45.285156 0.585938 40.5625 2.839844 L 32.238281 2.839844 C 31.921875 2.839844 31.664062 3.09375 31.664062 3.410156 C 31.664062 3.726562 31.921875 3.980469 32.238281 3.980469 L 38.460938 3.980469 C 35.714844 5.636719 33.183594 7.855469 31.054688 10.503906 L 0.632812 10.503906 C 0.320312 10.503906 0.0625 10.761719 0.0625 11.074219 C 0.0625 11.390625 0.320312 11.648438 0.632812 11.648438 L 30.171875 11.648438 C 28.707031 13.648438 27.472656 15.84375 26.492188 18.1875 L 23.40625 18.1875 C 23.089844 18.1875 22.835938 18.445312 22.835938 18.757812 C 22.835938 19.074219 23.089844 19.332031 23.40625 19.332031 L 26.035156 19.332031 C 25.605469 20.460938 25.226562 21.640625 24.910156 22.859375 C 24.652344 23.855469 24.445312 24.863281 24.28125 25.867188 L 0.632812 25.867188 C 0.320312 25.867188 0.0625 26.125 0.0625 26.4375 C 0.0625 26.753906 0.320312 27.007812 0.632812 27.007812 L 24.113281 27.007812 C 23.46875 31.914062 23.929688 36.792969 25.453125 41.222656 L 0.632812 41.222656 C 0.320312 41.222656 0.0625 41.480469 0.0625 41.792969 C 0.0625 42.109375 0.320312 42.363281 0.632812 42.363281 L 25.863281 42.363281 C 26.800781 44.777344 28.042969 46.96875 29.566406 48.902344 L 0.632812 48.902344 C 0.320312 48.902344 0.0625 49.15625 0.0625 49.472656 C 0.0625 49.785156 0.320312 50.042969 0.632812 50.042969 L 30.535156 50.042969 C 33.339844 53.160156 36.867188 55.347656 40.757812 56.355469 C 42.429688 56.789062 44.109375 56.996094 45.785156 56.996094 C 56.832031 56.996094 67.480469 47.957031 70.898438 34.773438 C 72.800781 27.4375 72.210938 19.921875 69.238281 13.605469 Z M 42.183594 50.867188 C 37.9375 49.761719 34.421875 46.753906 32.199219 42.363281 L 33.519531 42.363281 C 33.835938 42.363281 34.09375 42.109375 34.09375 41.792969 C 34.09375 41.476562 33.835938 41.222656 33.519531 41.222656 L 31.664062 41.222656 C 30.789062 39.210938 30.203125 37.015625 29.921875 34.6875 L 37.460938 34.6875 C 37.777344 34.6875 38.03125 34.429688 38.03125 34.117188 C 38.03125 33.800781 37.777344 33.542969 37.460938 33.542969 L 29.804688 33.542969 C 29.640625 31.398438 29.738281 29.207031 30.097656 27.007812 L 37.746094 27.007812 C 38.0625 27.007812 38.316406 26.753906 38.316406 26.4375 C 38.316406 26.121094 38.0625 25.867188 37.746094 25.867188 L 30.304688 25.867188 C 30.410156 25.34375 30.523438 24.832031 30.648438 24.34375 C 31.109375 22.589844 31.71875 20.90625 32.460938 19.332031 L 40.175781 19.332031 C 40.492188 19.332031 40.746094 19.074219 40.746094 18.757812 C 40.746094 18.445312 40.492188 18.1875 40.175781 18.1875 L 33.027344 18.1875 C 34.339844 15.683594 35.980469 13.488281 37.914062 11.648438 L 45.304688 11.648438 C 45.617188 11.648438 45.875 11.390625 45.875 11.074219 C 45.875 10.761719 45.617188 10.503906 45.304688 10.503906 L 39.203125 10.503906 C 42.546875 7.765625 46.324219 6.316406 50.054688 6.316406 C 51.253906 6.316406 52.449219 6.464844 53.621094 6.769531 C 58.203125 7.957031 61.933594 11.351562 64.117188 16.328125 C 66.320312 21.351562 66.691406 27.371094 65.160156 33.289062 C 62.003906 45.445312 51.699219 53.328125 42.183594 50.867188 Z M 42.183594 50.867188 " fill-opacity="1" fill-rule="nonzero"/></g><path fill="#bff747" d="M 22.136719 34.6875 C 22.453125 34.6875 22.710938 34.429688 22.710938 34.117188 C 22.710938 33.800781 22.453125 33.542969 22.136719 33.542969 L 10.753906 33.542969 C 10.441406 33.542969 10.183594 33.800781 10.183594 34.117188 C 10.183594 34.429688 10.441406 34.6875 10.753906 34.6875 Z M 22.136719 34.6875 " fill-opacity="1" fill-rule="nonzero"/><path fill="#bff747" d="M 10.753906 3.980469 L 25.570312 3.980469 C 25.882812 3.980469 26.140625 3.726562 26.140625 3.410156 C 26.140625 3.09375 25.882812 2.839844 25.570312 2.839844 L 10.753906 2.839844 C 10.441406 2.839844 10.183594 3.09375 10.183594 3.410156 C 10.183594 3.726562 10.441406 3.980469 10.753906 3.980469 Z M 10.753906 3.980469 " fill-opacity="1" fill-rule="nonzero"/><g clip-path="url(#f1d1efb136)"><path fill="#bff747" d="M 36.054688 56.578125 L 0.632812 56.578125 C 0.320312 56.578125 0.0625 56.835938 0.0625 57.148438 C 0.0625 57.464844 0.320312 57.71875 0.632812 57.71875 L 36.054688 57.71875 C 36.371094 57.71875 36.625 57.464844 36.625 57.148438 C 36.625 56.835938 36.371094 56.578125 36.054688 56.578125 Z M 36.054688 56.578125 " fill-opacity="1" fill-rule="nonzero"/></g><path fill="#bff747" d="M 55.578125 27.828125 L 42.597656 21.0625 C 42.34375 20.929688 42.03125 21.007812 41.867188 21.242188 C 41.703125 21.480469 41.738281 21.800781 41.953125 21.992188 L 49.421875 28.726562 L 43.902344 35.320312 C 43.71875 35.535156 43.722656 35.855469 43.914062 36.066406 C 44.023438 36.191406 44.179688 36.257812 44.339844 36.257812 C 44.449219 36.257812 44.558594 36.226562 44.65625 36.160156 L 55.632812 28.808594 C 55.800781 28.695312 55.898438 28.503906 55.886719 28.300781 C 55.875 28.101562 55.757812 27.921875 55.578125 27.828125 Z M 55.578125 27.828125 " fill-opacity="1" fill-rule="nonzero"/></svg>