<svg xmlns="http://www.w3.org/2000/svg" xmlns:xlink="http://www.w3.org/1999/xlink" width="52" zoomAndPan="magnify" viewBox="0 0 39 40.499999" height="54" preserveAspectRatio="xMidYMid meet" version="1.0"><defs><clipPath id="e4db7cbe09"><path d="M 0.238281 32 L 38.019531 32 L 38.019531 37.785156 L 0.238281 37.785156 Z M 0.238281 32 " clip-rule="nonzero"/></clipPath><clipPath id="7250daf608"><path d="M 0.238281 7 L 13 7 L 13 20 L 0.238281 20 Z M 0.238281 7 " clip-rule="nonzero"/></clipPath></defs><g clip-path="url(#e4db7cbe09)"><path fill="#bff747" d="M 35.847656 37.613281 L 2.644531 37.613281 C 1.308594 37.613281 0.238281 36.523438 0.238281 35.207031 C 0.238281 33.871094 1.308594 32.777344 2.644531 32.777344 L 35.847656 32.777344 C 37.183594 32.777344 38.277344 33.871094 38.277344 35.207031 C 38.277344 36.523438 37.183594 37.613281 35.847656 37.613281 Z M 2.644531 33.535156 C 1.730469 33.535156 0.972656 34.273438 0.972656 35.207031 C 0.972656 36.121094 1.730469 36.855469 2.644531 36.855469 L 35.847656 36.855469 C 36.761719 36.855469 37.519531 36.121094 37.519531 35.207031 C 37.519531 34.273438 36.761719 33.535156 35.847656 33.535156 Z M 2.644531 33.535156 " fill-opacity="1" fill-rule="evenodd"/></g><path fill="#bff747" d="M 28.761719 16.710938 L 24.859375 16.710938 C 24.660156 16.710938 24.484375 16.558594 24.484375 16.355469 C 24.484375 16.15625 24.660156 15.976562 24.859375 15.976562 L 28.761719 15.976562 C 28.960938 15.976562 29.140625 15.800781 29.140625 15.597656 L 29.140625 14.839844 C 29.140625 14.640625 29.316406 14.460938 29.519531 14.460938 C 29.71875 14.460938 29.898438 14.640625 29.898438 14.839844 L 29.898438 15.597656 C 29.898438 16.222656 29.386719 16.710938 28.761719 16.710938 Z M 28.761719 16.710938 " fill-opacity="1" fill-rule="evenodd"/><path fill="#bff747" d="M 23.746094 17.871094 C 22.921875 17.871094 22.230469 17.179688 22.230469 16.355469 C 22.230469 15.53125 22.921875 14.863281 23.746094 14.863281 C 24.570312 14.863281 25.238281 15.507812 25.238281 16.355469 C 25.238281 17.179688 24.570312 17.871094 23.746094 17.871094 Z M 23.746094 15.621094 C 23.324219 15.621094 22.988281 15.933594 22.988281 16.355469 C 22.988281 16.78125 23.324219 17.113281 23.746094 17.113281 C 24.148438 17.113281 24.484375 16.78125 24.484375 16.355469 C 24.484375 15.933594 24.171875 15.621094 23.746094 15.621094 Z M 23.746094 15.621094 " fill-opacity="1" fill-rule="evenodd"/><path fill="#bff747" d="M 18.53125 15.21875 L 17.171875 15.21875 C 16.550781 15.21875 16.015625 14.683594 16.015625 14.0625 L 16.015625 12.769531 C 16.015625 12.121094 16.527344 11.585938 17.171875 11.585938 L 18.511719 11.585938 C 18.710938 11.585938 18.890625 11.765625 18.890625 11.964844 C 18.890625 12.167969 18.710938 12.324219 18.511719 12.324219 L 17.171875 12.324219 C 16.949219 12.324219 16.75 12.523438 16.75 12.769531 L 16.75 14.0625 C 16.75 14.285156 16.949219 14.460938 17.171875 14.460938 L 18.53125 14.460938 C 18.734375 14.460938 18.890625 14.640625 18.890625 14.839844 C 18.890625 15.042969 18.734375 15.21875 18.53125 15.21875 Z M 18.53125 15.21875 " fill-opacity="1" fill-rule="evenodd"/><path fill="#bff747" d="M 34.554688 33.535156 C 34.355469 33.535156 34.175781 33.359375 34.175781 33.15625 L 34.175781 29.082031 C 34.175781 26.984375 33.261719 25.894531 31.769531 24.800781 C 31.613281 24.691406 31.570312 24.445312 31.679688 24.289062 C 31.8125 24.132812 32.035156 24.089844 32.214844 24.199219 C 33.617188 25.246094 34.933594 26.539062 34.933594 29.082031 L 34.933594 33.15625 C 34.933594 33.359375 34.753906 33.535156 34.554688 33.535156 Z M 12.160156 33.535156 C 11.960938 33.535156 11.78125 33.359375 11.78125 33.15625 L 11.78125 29.082031 C 11.78125 26.539062 13.09375 25.226562 14.523438 24.199219 C 14.699219 24.089844 14.921875 24.132812 15.035156 24.289062 C 15.167969 24.46875 15.125 24.691406 14.96875 24.800781 C 13.453125 25.894531 12.515625 26.984375 12.515625 29.082031 L 12.515625 33.15625 C 12.515625 33.359375 12.359375 33.535156 12.160156 33.535156 Z M 12.160156 33.535156 " fill-opacity="1" fill-rule="evenodd"/><path fill="#bff747" d="M 28.179688 11.429688 C 27.980469 11.429688 27.800781 11.277344 27.800781 11.074219 L 27.800781 10.917969 C 27.800781 10.296875 27.578125 9.828125 27.15625 9.515625 C 26.421875 9.023438 25.085938 9.070312 23.679688 9.625 C 21.765625 10.429688 19.757812 10.183594 18.890625 10.003906 L 18.890625 11.074219 C 18.890625 11.277344 18.710938 11.429688 18.511719 11.429688 C 18.308594 11.429688 18.132812 11.277344 18.132812 11.074219 L 18.132812 9.539062 C 18.132812 9.425781 18.199219 9.316406 18.289062 9.226562 C 18.375 9.160156 18.488281 9.136719 18.597656 9.179688 C 18.644531 9.179688 21.117188 9.894531 23.390625 8.9375 C 25.0625 8.265625 26.621094 8.265625 27.558594 8.914062 C 28.203125 9.335938 28.558594 10.027344 28.558594 10.917969 L 28.558594 11.074219 C 28.558594 11.277344 28.382812 11.429688 28.179688 11.429688 Z M 28.179688 11.429688 " fill-opacity="1" fill-rule="evenodd"/><path fill="#bff747" d="M 20.226562 21.125 C 20.027344 21.125 19.847656 20.945312 19.847656 20.746094 L 19.847656 18.25 C 19.847656 18.050781 20.027344 17.871094 20.226562 17.871094 C 20.425781 17.871094 20.605469 18.050781 20.605469 18.25 L 20.605469 20.746094 C 20.605469 20.945312 20.425781 21.125 20.226562 21.125 Z M 20.226562 21.125 " fill-opacity="1" fill-rule="evenodd"/><path fill="#bff747" d="M 26.511719 21.125 C 26.308594 21.125 26.132812 20.945312 26.132812 20.746094 L 26.132812 18.226562 C 26.132812 18.027344 26.308594 17.847656 26.511719 17.847656 C 26.710938 17.847656 26.890625 18.027344 26.890625 18.226562 L 26.890625 20.746094 C 26.890625 20.945312 26.710938 21.125 26.511719 21.125 Z M 26.511719 21.125 " fill-opacity="1" fill-rule="evenodd"/><path fill="#bff747" d="M 23.703125 19.585938 L 22.988281 19.585938 C 20.316406 19.585938 18.132812 17.402344 18.132812 14.730469 L 18.132812 11.074219 C 18.132812 10.875 18.308594 10.695312 18.511719 10.695312 C 18.710938 10.695312 18.890625 10.875 18.890625 11.074219 L 18.890625 14.730469 C 18.890625 16.980469 20.714844 18.828125 22.988281 18.828125 L 23.703125 18.828125 C 25.953125 18.828125 27.800781 16.980469 27.800781 14.730469 L 27.800781 11.074219 C 27.800781 10.875 27.980469 10.695312 28.179688 10.695312 C 28.382812 10.695312 28.558594 10.875 28.558594 11.074219 L 28.558594 14.730469 C 28.558594 17.402344 26.375 19.585938 23.703125 19.585938 Z M 23.703125 19.585938 " fill-opacity="1" fill-rule="evenodd"/><path fill="#bff747" d="M 21.050781 13.546875 C 20.851562 13.546875 20.671875 13.390625 20.671875 13.191406 L 20.671875 12.902344 C 20.671875 12.703125 20.851562 12.523438 21.050781 12.523438 C 21.25 12.523438 21.40625 12.703125 21.40625 12.902344 L 21.40625 13.191406 C 21.429688 13.390625 21.25 13.546875 21.050781 13.546875 Z M 21.050781 13.546875 " fill-opacity="1" fill-rule="evenodd"/><path fill="#bff747" d="M 25.664062 13.546875 C 25.464844 13.546875 25.285156 13.390625 25.285156 13.191406 L 25.285156 12.902344 C 25.285156 12.703125 25.464844 12.523438 25.664062 12.523438 C 25.863281 12.523438 26.042969 12.703125 26.042969 12.902344 L 26.042969 13.191406 C 26.042969 13.390625 25.863281 13.546875 25.664062 13.546875 Z M 25.664062 13.546875 " fill-opacity="1" fill-rule="evenodd"/><path fill="#bff747" d="M 29.519531 15.21875 L 28.179688 15.21875 C 27.980469 15.21875 27.800781 15.042969 27.800781 14.839844 C 27.800781 14.640625 27.980469 14.460938 28.179688 14.460938 L 29.519531 14.460938 C 29.742188 14.460938 29.917969 14.285156 29.917969 14.0625 L 29.917969 12.769531 C 29.917969 12.523438 29.742188 12.324219 29.519531 12.324219 L 28.179688 12.324219 C 27.980469 12.324219 27.800781 12.167969 27.800781 11.964844 C 27.800781 11.765625 27.980469 11.585938 28.179688 11.585938 L 29.519531 11.585938 C 30.140625 11.585938 30.675781 12.121094 30.675781 12.769531 L 30.675781 14.0625 C 30.675781 14.683594 30.140625 15.21875 29.519531 15.21875 Z M 29.519531 15.21875 " fill-opacity="1" fill-rule="evenodd"/><path fill="#bff747" d="M 29.25 12.34375 C 29.207031 12.34375 29.183594 12.324219 29.160156 12.324219 C 28.960938 12.277344 28.828125 12.054688 28.894531 11.878906 C 29.160156 10.875 29.875 7.53125 28.070312 6.507812 C 27.914062 6.417969 27.824219 6.238281 27.890625 6.0625 C 27.980469 5.839844 28.027344 5.546875 28.003906 5.347656 C 27.492188 5.480469 26.53125 5.617188 25.6875 5.238281 C 25.597656 5.191406 25.53125 5.125 25.484375 5.035156 C 25.464844 4.925781 25.464844 4.835938 25.507812 4.746094 C 25.507812 4.703125 25.820312 3.988281 25.394531 3.1875 C 24.929688 3.609375 24.035156 4.324219 22.878906 4.457031 C 22.074219 4.566406 19.378906 5.015625 18.109375 6.953125 C 17.328125 8.132812 17.21875 9.714844 17.796875 11.632812 C 17.796875 11.65625 17.796875 11.675781 17.796875 11.699219 C 17.796875 11.699219 17.820312 11.722656 17.820312 11.722656 C 17.820312 11.742188 17.820312 11.765625 17.84375 11.789062 C 17.910156 11.964844 17.796875 12.1875 17.597656 12.257812 C 17.394531 12.324219 17.195312 12.210938 17.128906 12.011719 C 17.128906 11.988281 17.128906 11.988281 17.105469 11.964844 C 17.105469 11.921875 17.085938 11.878906 17.0625 11.808594 C 16.4375 9.695312 16.59375 7.910156 17.484375 6.527344 C 18.933594 4.34375 21.917969 3.832031 22.789062 3.722656 C 24.148438 3.566406 25.128906 2.363281 25.152344 2.339844 C 25.21875 2.25 25.328125 2.207031 25.441406 2.207031 C 25.550781 2.207031 25.664062 2.25 25.730469 2.339844 C 26.464844 3.253906 26.398438 4.167969 26.289062 4.679688 C 27.15625 4.902344 28.113281 4.546875 28.113281 4.546875 C 28.269531 4.5 28.449219 4.546875 28.539062 4.679688 C 28.851562 5.058594 28.761719 5.660156 28.671875 6.015625 C 29.539062 6.640625 29.988281 7.753906 29.988281 9.246094 C 30.007812 10.382812 29.761719 11.5 29.609375 12.054688 C 29.5625 12.234375 29.40625 12.34375 29.25 12.34375 Z M 29.25 12.34375 " fill-opacity="1" fill-rule="evenodd"/><path fill="#bff747" d="M 16.394531 13.769531 L 15.191406 13.769531 C 14.988281 13.769531 14.8125 13.617188 14.8125 13.414062 C 14.8125 13.214844 14.988281 13.035156 15.191406 13.035156 L 16.394531 13.035156 C 16.59375 13.035156 16.75 13.214844 16.75 13.414062 C 16.75 13.617188 16.59375 13.769531 16.394531 13.769531 Z M 16.394531 13.769531 " fill-opacity="1" fill-rule="evenodd"/><path fill="#bff747" d="M 31.5 13.769531 L 30.296875 13.769531 C 30.097656 13.769531 29.917969 13.617188 29.917969 13.414062 C 29.917969 13.214844 30.097656 13.035156 30.296875 13.035156 L 31.5 13.035156 C 31.703125 13.035156 31.878906 13.214844 31.878906 13.414062 C 31.878906 13.617188 31.703125 13.769531 31.5 13.769531 Z M 31.5 13.769531 " fill-opacity="1" fill-rule="evenodd"/><path fill="#bff747" d="M 14.675781 10.207031 C 14.65625 10.207031 14.632812 10.207031 14.609375 10.207031 C 14.410156 10.183594 14.277344 9.984375 14.296875 9.78125 L 14.8125 6.304688 C 15.054688 4.703125 15.726562 3.253906 16.726562 2.183594 C 17.820312 1.046875 19.222656 0.421875 20.785156 0.421875 L 25.910156 0.421875 C 27.46875 0.421875 28.871094 1.046875 29.964844 2.183594 C 30.945312 3.253906 31.636719 4.703125 31.859375 6.304688 L 32.371094 9.78125 C 32.414062 9.984375 32.257812 10.183594 32.058594 10.207031 C 31.859375 10.25 31.679688 10.09375 31.636719 9.894531 L 31.121094 6.417969 C 30.742188 3.808594 28.984375 1.160156 25.910156 1.160156 L 20.785156 1.160156 C 17.707031 1.160156 15.949219 3.808594 15.546875 6.417969 L 15.035156 9.894531 C 15.011719 10.09375 14.855469 10.207031 14.675781 10.207031 Z M 14.675781 10.207031 " fill-opacity="1" fill-rule="evenodd"/><path fill="#bff747" d="M 14.566406 11.945312 C 13.875 11.945312 13.316406 11.410156 13.316406 10.71875 C 13.316406 10.027344 13.875 9.46875 14.566406 9.46875 C 15.257812 9.46875 15.792969 10.027344 15.792969 10.71875 C 15.792969 11.410156 15.257812 11.945312 14.566406 11.945312 Z M 14.566406 10.207031 C 14.277344 10.207031 14.054688 10.429688 14.054688 10.71875 C 14.054688 11.007812 14.277344 11.207031 14.566406 11.207031 C 14.832031 11.207031 15.054688 10.984375 15.054688 10.71875 C 15.054688 10.449219 14.832031 10.207031 14.566406 10.207031 Z M 14.566406 10.207031 " fill-opacity="1" fill-rule="evenodd"/><path fill="#bff747" d="M 15.191406 13.769531 C 15.011719 13.769531 14.855469 13.660156 14.832031 13.503906 L 14.410156 11.65625 C 14.367188 11.453125 14.476562 11.253906 14.675781 11.207031 C 14.878906 11.164062 15.078125 11.277344 15.125 11.476562 L 15.546875 13.324219 C 15.589844 13.527344 15.480469 13.726562 15.277344 13.769531 C 15.234375 13.769531 15.210938 13.769531 15.191406 13.769531 Z M 15.191406 13.769531 " fill-opacity="1" fill-rule="evenodd"/><path fill="#bff747" d="M 31.5 13.769531 C 31.480469 13.769531 31.433594 13.769531 31.414062 13.769531 C 31.210938 13.726562 31.078125 13.527344 31.144531 13.324219 L 31.589844 11.476562 C 31.636719 11.277344 31.835938 11.140625 32.035156 11.207031 C 32.238281 11.253906 32.347656 11.453125 32.304688 11.65625 L 31.859375 13.503906 C 31.8125 13.660156 31.65625 13.769531 31.5 13.769531 Z M 31.5 13.769531 " fill-opacity="1" fill-rule="evenodd"/><path fill="#bff747" d="M 32.125 11.945312 C 31.433594 11.945312 30.878906 11.410156 30.878906 10.71875 C 30.878906 10.027344 31.433594 9.46875 32.125 9.46875 C 32.816406 9.46875 33.394531 10.027344 33.394531 10.71875 C 33.394531 11.410156 32.816406 11.945312 32.125 11.945312 Z M 32.125 10.207031 C 31.859375 10.207031 31.636719 10.449219 31.636719 10.71875 C 31.636719 10.984375 31.859375 11.207031 32.125 11.207031 C 32.414062 11.207031 32.636719 10.984375 32.636719 10.71875 C 32.636719 10.429688 32.414062 10.207031 32.125 10.207031 Z M 32.125 10.207031 " fill-opacity="1" fill-rule="evenodd"/><path fill="#bff747" d="M 31.992188 33.535156 C 31.792969 33.535156 31.613281 33.359375 31.613281 33.15625 L 31.613281 23.042969 C 31.613281 21.992188 30.742188 21.125 29.695312 21.125 L 17.039062 21.125 C 15.96875 21.125 15.101562 21.972656 15.101562 23.042969 L 15.101562 33.15625 C 15.101562 33.359375 14.945312 33.535156 14.746094 33.535156 C 14.542969 33.535156 14.367188 33.359375 14.367188 33.15625 L 14.367188 23.042969 C 14.367188 21.570312 15.570312 20.367188 17.039062 20.367188 L 29.695312 20.367188 C 31.144531 20.367188 32.371094 21.59375 32.371094 23.042969 L 32.371094 33.15625 C 32.371094 33.359375 32.191406 33.535156 31.992188 33.535156 Z M 31.992188 33.535156 " fill-opacity="1" fill-rule="evenodd"/><path fill="#bff747" d="M 23.367188 30.394531 C 21.472656 30.394531 19.9375 28.855469 19.9375 26.964844 C 19.9375 25.070312 21.472656 23.53125 23.367188 23.53125 C 25.261719 23.53125 26.800781 25.070312 26.800781 26.964844 C 26.800781 28.855469 25.261719 30.394531 23.367188 30.394531 Z M 23.367188 24.289062 C 21.875 24.289062 20.671875 25.46875 20.671875 26.964844 C 20.671875 28.433594 21.875 29.636719 23.367188 29.636719 C 24.839844 29.636719 26.042969 28.433594 26.042969 26.964844 C 26.042969 25.46875 24.839844 24.289062 23.367188 24.289062 Z M 23.367188 24.289062 " fill-opacity="1" fill-rule="evenodd"/><path fill="#bff747" d="M 9.707031 10.652344 L 5.386719 10.652344 C 5.183594 10.652344 5.007812 10.496094 5.007812 10.296875 C 5.007812 10.09375 5.183594 9.917969 5.386719 9.917969 L 9.707031 9.917969 C 9.910156 9.917969 10.066406 10.09375 10.066406 10.296875 C 10.066406 10.496094 9.910156 10.652344 9.707031 10.652344 Z M 9.707031 10.652344 " fill-opacity="1" fill-rule="evenodd"/><path fill="#bff747" d="M 3.558594 10.652344 L 3.15625 10.652344 C 2.957031 10.652344 2.777344 10.496094 2.777344 10.296875 C 2.777344 10.09375 2.957031 9.917969 3.15625 9.917969 L 3.558594 9.917969 C 3.757812 9.917969 3.914062 10.09375 3.914062 10.296875 C 3.914062 10.496094 3.757812 10.652344 3.558594 10.652344 Z M 3.558594 10.652344 " fill-opacity="1" fill-rule="evenodd"/><path fill="#bff747" d="M 9.707031 12.878906 L 5.386719 12.878906 C 5.183594 12.878906 5.007812 12.722656 5.007812 12.523438 C 5.007812 12.324219 5.183594 12.144531 5.386719 12.144531 L 9.707031 12.144531 C 9.910156 12.144531 10.066406 12.324219 10.066406 12.523438 C 10.066406 12.722656 9.910156 12.878906 9.707031 12.878906 Z M 9.707031 12.878906 " fill-opacity="1" fill-rule="evenodd"/><path fill="#bff747" d="M 3.558594 12.878906 L 3.15625 12.878906 C 2.957031 12.878906 2.777344 12.722656 2.777344 12.523438 C 2.777344 12.324219 2.957031 12.144531 3.15625 12.144531 L 3.558594 12.144531 C 3.757812 12.144531 3.914062 12.324219 3.914062 12.523438 C 3.914062 12.722656 3.757812 12.878906 3.558594 12.878906 Z M 3.558594 12.878906 " fill-opacity="1" fill-rule="evenodd"/><path fill="#bff747" d="M 9.707031 15.152344 L 5.386719 15.152344 C 5.183594 15.152344 5.007812 14.976562 5.007812 14.773438 C 5.007812 14.574219 5.183594 14.394531 5.386719 14.394531 L 9.707031 14.394531 C 9.910156 14.394531 10.066406 14.574219 10.066406 14.773438 C 10.066406 14.976562 9.910156 15.152344 9.707031 15.152344 Z M 9.707031 15.152344 " fill-opacity="1" fill-rule="evenodd"/><path fill="#bff747" d="M 3.558594 15.152344 L 3.15625 15.152344 C 2.957031 15.152344 2.777344 14.976562 2.777344 14.773438 C 2.777344 14.574219 2.957031 14.394531 3.15625 14.394531 L 3.558594 14.394531 C 3.757812 14.394531 3.914062 14.574219 3.914062 14.773438 C 3.914062 14.976562 3.757812 15.152344 3.558594 15.152344 Z M 3.558594 15.152344 " fill-opacity="1" fill-rule="evenodd"/><g clip-path="url(#7250daf608)"><path fill="#bff747" d="M 10.621094 19.898438 C 10.488281 19.898438 10.375 19.832031 10.308594 19.722656 L 8.503906 17.179688 L 1.953125 17.179688 C 1.039062 17.179688 0.304688 16.421875 0.304688 15.53125 L 0.304688 9.539062 C 0.304688 8.625 1.039062 7.886719 1.953125 7.886719 L 10.910156 7.886719 C 11.824219 7.886719 12.515625 8.625 12.515625 9.539062 L 12.515625 15.53125 C 12.515625 16.421875 11.847656 17.136719 10.980469 17.160156 L 10.980469 19.519531 C 10.980469 19.675781 10.890625 19.832031 10.734375 19.878906 C 10.6875 19.878906 10.644531 19.898438 10.621094 19.898438 Z M 1.953125 8.625 C 1.464844 8.625 1.039062 9.046875 1.039062 9.539062 L 1.039062 15.53125 C 1.039062 16.023438 1.464844 16.421875 1.953125 16.421875 L 8.707031 16.421875 C 8.816406 16.421875 8.929688 16.488281 8.996094 16.578125 L 10.242188 18.339844 L 10.242188 16.800781 C 10.242188 16.601562 10.421875 16.421875 10.621094 16.421875 L 10.910156 16.421875 C 11.402344 16.421875 11.78125 16.023438 11.78125 15.53125 L 11.78125 9.539062 C 11.78125 9.023438 11.402344 8.625 10.910156 8.625 Z M 1.953125 8.625 " fill-opacity="1" fill-rule="evenodd"/></g></svg>