<svg xmlns="http://www.w3.org/2000/svg" xmlns:xlink="http://www.w3.org/1999/xlink" width="76" zoomAndPan="magnify" viewBox="0 0 56.879997 58.499998" height="78" preserveAspectRatio="xMidYMid meet" version="1.0"><defs><clipPath id="07ac4e136f"><path d="M 1.78125 0 L 15 0 L 15 13 L 1.78125 13 Z M 1.78125 0 " clip-rule="nonzero"/></clipPath><clipPath id="916ae23f2d"><path d="M 44 0 L 56.578125 0 L 56.578125 13 L 44 13 Z M 44 0 " clip-rule="nonzero"/></clipPath><clipPath id="8fe5d67616"><path d="M 48 32 L 56.578125 32 L 56.578125 45 L 48 45 Z M 48 32 " clip-rule="nonzero"/></clipPath><clipPath id="564cc5552b"><path d="M 1.78125 32 L 10 32 L 10 45 L 1.78125 45 Z M 1.78125 32 " clip-rule="nonzero"/></clipPath></defs><g clip-path="url(#07ac4e136f)"><path fill="#bff747" d="M 13.230469 0.0195312 C 13.789062 0.148438 14.109375 0.484375 14.195312 1.019531 C 14.28125 1.554688 13.933594 2.050781 13.4375 2.238281 C 13.328125 2.277344 13.117188 2.296875 12.808594 2.296875 C 8.347656 2.300781 5.640625 2.300781 4.691406 2.296875 C 4.667969 2.296875 4.640625 2.300781 4.613281 2.308594 C 4.421875 2.359375 4.28125 2.472656 4.183594 2.644531 C 4.121094 2.753906 4.09375 2.933594 4.09375 3.179688 C 4.097656 5.941406 4.101562 8.488281 4.097656 10.816406 C 4.097656 11.160156 4.070312 11.394531 4.019531 11.519531 C 3.613281 12.488281 2.269531 12.472656 1.878906 11.496094 C 1.824219 11.351562 1.792969 11.144531 1.792969 10.878906 C 1.800781 9.433594 1.800781 6.863281 1.792969 3.171875 C 1.789062 2.710938 1.828125 2.347656 1.90625 2.082031 C 2.195312 1.078125 2.949219 0.34375 3.957031 0.0859375 C 4.164062 0.0351562 4.488281 0.0078125 4.925781 0.0078125 C 8.695312 0.00390625 11.441406 0.00390625 13.152344 0.0117188 C 13.179688 0.0117188 13.203125 0.0117188 13.230469 0.0195312 Z M 13.230469 0.0195312 " fill-opacity="1" fill-rule="nonzero"/></g><g clip-path="url(#916ae23f2d)"><path fill="#bff747" d="M 45.082031 0.0117188 C 46.796875 0.00390625 49.539062 0.00390625 53.316406 0.00390625 C 53.753906 0.00390625 54.078125 0.03125 54.285156 0.0859375 C 55.292969 0.339844 56.046875 1.074219 56.335938 2.082031 C 56.414062 2.34375 56.453125 2.707031 56.453125 3.167969 C 56.445312 6.867188 56.445312 9.4375 56.449219 10.882812 C 56.453125 11.148438 56.425781 11.355469 56.363281 11.5 C 55.976562 12.480469 54.632812 12.496094 54.222656 11.523438 C 54.171875 11.398438 54.144531 11.164062 54.144531 10.824219 C 54.140625 8.492188 54.144531 5.945312 54.148438 3.179688 C 54.148438 2.929688 54.117188 2.753906 54.054688 2.644531 C 53.960938 2.46875 53.816406 2.359375 53.625 2.308594 C 53.601562 2.300781 53.574219 2.296875 53.546875 2.296875 C 52.597656 2.300781 49.890625 2.300781 45.425781 2.296875 C 45.117188 2.300781 44.90625 2.28125 44.796875 2.238281 C 44.296875 2.054688 43.949219 1.554688 44.035156 1.019531 C 44.121094 0.484375 44.445312 0.152344 45.003906 0.0195312 C 45.03125 0.015625 45.058594 0.0117188 45.082031 0.0117188 Z M 45.082031 0.0117188 " fill-opacity="1" fill-rule="nonzero"/></g><path fill="#bff747" d="M 36.445312 14.707031 C 36.765625 14.964844 36.964844 15.316406 37.039062 15.753906 C 37.171875 16.535156 37 17.453125 36.695312 18.195312 C 36.539062 18.578125 36.320312 18.925781 36.035156 19.246094 C 35.855469 19.449219 35.660156 19.558594 35.449219 19.578125 C 35.4375 19.582031 35.425781 19.585938 35.414062 19.589844 C 35.40625 19.597656 35.398438 19.609375 35.394531 19.621094 C 35.074219 20.460938 34.699219 21.210938 34.269531 21.871094 C 34.066406 22.179688 33.792969 22.523438 33.445312 22.910156 C 33.429688 22.925781 33.421875 22.953125 33.417969 22.976562 C 33.386719 23.65625 33.40625 24.265625 33.484375 24.8125 C 33.5625 25.378906 33.832031 25.820312 34.292969 26.144531 C 34.324219 26.167969 34.359375 26.183594 34.394531 26.199219 C 37.007812 27.140625 39.515625 28.054688 41.917969 28.945312 C 41.984375 28.972656 42.214844 29.074219 42.609375 29.253906 C 43.84375 29.816406 44.878906 30.792969 45.351562 32.0625 C 45.484375 32.421875 45.585938 32.777344 45.65625 33.136719 C 45.660156 33.148438 45.65625 33.15625 45.65625 33.167969 C 45.652344 33.175781 45.644531 33.1875 45.636719 33.191406 C 45.632812 33.199219 45.621094 33.203125 45.613281 33.207031 C 45.601562 33.207031 45.589844 33.207031 45.582031 33.203125 C 45.28125 33.105469 44.996094 33.035156 44.71875 32.992188 C 44.699219 32.988281 44.40625 32.988281 43.84375 32.988281 C 36.511719 32.984375 26.515625 32.988281 13.851562 32.988281 C 13.410156 32.988281 13.074219 33.050781 12.699219 33.203125 C 12.691406 33.203125 12.683594 33.207031 12.675781 33.203125 C 12.664062 33.203125 12.65625 33.199219 12.648438 33.195312 C 12.644531 33.1875 12.640625 33.183594 12.636719 33.171875 C 12.632812 33.167969 12.632812 33.15625 12.632812 33.148438 C 12.945312 31.386719 13.898438 30.109375 15.496094 29.3125 C 15.777344 29.171875 16.101562 29.035156 16.460938 28.898438 C 18.78125 28.03125 21.046875 27.203125 23.257812 26.421875 C 23.410156 26.367188 23.523438 26.328125 23.601562 26.308594 C 24.460938 26.066406 24.785156 25.222656 24.820312 24.367188 C 24.835938 24.007812 24.84375 23.546875 24.835938 22.988281 C 24.835938 22.960938 24.828125 22.9375 24.8125 22.921875 C 24.195312 22.222656 23.703125 21.480469 23.332031 20.691406 C 23.226562 20.476562 23.074219 20.117188 22.867188 19.613281 C 22.863281 19.605469 22.855469 19.59375 22.847656 19.585938 C 22.835938 19.578125 22.824219 19.574219 22.8125 19.574219 C 22.339844 19.5 22.050781 19.097656 21.8125 18.691406 C 21.347656 17.898438 21.125 17.023438 21.15625 16.058594 C 21.167969 15.605469 21.371094 14.980469 21.78125 14.730469 C 21.789062 14.722656 21.796875 14.714844 21.804688 14.703125 C 21.808594 14.695312 21.8125 14.683594 21.8125 14.671875 C 21.8125 13.515625 21.8125 12.699219 21.808594 12.214844 C 21.800781 11.507812 21.839844 10.96875 21.917969 10.597656 C 22.371094 8.480469 23.835938 6.828125 25.789062 5.953125 C 26.867188 5.46875 28 5.304688 29.1875 5.464844 C 29.234375 5.46875 29.28125 5.472656 29.332031 5.46875 C 29.929688 5.425781 30.351562 5.414062 30.59375 5.4375 C 31.203125 5.496094 31.867188 5.679688 32.578125 5.992188 C 32.664062 6.027344 32.863281 6.136719 33.175781 6.316406 C 34.808594 7.261719 35.902344 8.746094 36.316406 10.558594 C 36.398438 10.910156 36.4375 11.398438 36.433594 12.027344 C 36.429688 13.503906 36.429688 14.386719 36.429688 14.671875 C 36.429688 14.679688 36.429688 14.6875 36.433594 14.691406 C 36.4375 14.695312 36.441406 14.699219 36.445312 14.707031 Z M 36.445312 14.707031 " fill-opacity="1" fill-rule="nonzero"/><g clip-path="url(#8fe5d67616)"><path fill="#bff747" d="M 48.460938 42.84375 L 48.460938 42.550781 C 48.460938 42.535156 48.46875 42.519531 48.480469 42.507812 C 48.492188 42.496094 48.507812 42.488281 48.523438 42.488281 C 49.707031 42.484375 51.269531 42.484375 53.21875 42.492188 C 53.71875 42.496094 54.007812 42.425781 54.136719 41.941406 C 54.140625 41.929688 54.144531 41.917969 54.144531 41.90625 C 54.148438 40.332031 54.148438 37.882812 54.144531 34.558594 C 54.140625 34.089844 54.179688 33.773438 54.257812 33.613281 C 54.417969 33.285156 54.703125 33.078125 55.113281 32.988281 C 55.632812 32.875 56.191406 33.25 56.382812 33.75 C 56.429688 33.875 56.453125 34.085938 56.453125 34.382812 C 56.445312 36.910156 56.445312 39.210938 56.457031 41.289062 C 56.460938 41.996094 56.425781 42.46875 56.351562 42.714844 C 56.042969 43.710938 55.3125 44.398438 54.308594 44.675781 C 54.078125 44.738281 53.765625 44.769531 53.378906 44.769531 C 51.851562 44.765625 51.050781 44.761719 50.972656 44.757812 C 50.957031 44.757812 50.945312 44.753906 50.929688 44.75 C 50.917969 44.742188 50.910156 44.734375 50.898438 44.726562 C 50.28125 44.003906 49.402344 43.308594 48.503906 42.910156 C 48.492188 42.902344 48.480469 42.894531 48.472656 42.882812 C 48.464844 42.871094 48.460938 42.855469 48.460938 42.84375 Z M 48.460938 42.84375 " fill-opacity="1" fill-rule="nonzero"/></g><g clip-path="url(#564cc5552b)"><path fill="#bff747" d="M 9.847656 44.75 C 9.847656 44.757812 9.847656 44.765625 9.84375 44.769531 C 9.835938 44.773438 9.832031 44.773438 9.824219 44.773438 C 7.214844 44.769531 5.589844 44.769531 4.941406 44.777344 C 4.511719 44.78125 4.175781 44.75 3.941406 44.675781 C 2.851562 44.339844 2.191406 43.671875 1.886719 42.578125 C 1.820312 42.339844 1.789062 41.949219 1.792969 41.398438 C 1.804688 39.503906 1.808594 37.054688 1.804688 34.046875 C 1.804688 33.839844 1.90625 33.617188 2.105469 33.371094 C 2.679688 32.671875 3.667969 32.929688 4.019531 33.710938 C 4.074219 33.828125 4.097656 34.011719 4.097656 34.265625 C 4.101562 37.96875 4.101562 40.429688 4.097656 41.65625 C 4.097656 42.070312 4.195312 42.34375 4.566406 42.480469 C 4.582031 42.484375 4.601562 42.488281 4.617188 42.488281 L 9.800781 42.488281 C 9.8125 42.488281 9.824219 42.492188 9.835938 42.503906 C 9.84375 42.511719 9.847656 42.523438 9.847656 42.535156 Z M 9.847656 44.75 " fill-opacity="1" fill-rule="nonzero"/></g><path fill="#bff747" d="M 37.246094 55.46875 C 37.25 55.472656 37.25 55.476562 37.253906 55.480469 C 37.253906 55.488281 37.253906 55.492188 37.25 55.496094 C 37.25 55.5 37.246094 55.503906 37.242188 55.507812 C 37.238281 55.511719 37.234375 55.511719 37.226562 55.511719 C 28.855469 55.507812 21.210938 55.507812 14.300781 55.511719 C 13.84375 55.511719 13.503906 55.480469 13.285156 55.414062 C 12.414062 55.160156 11.851562 54.601562 11.601562 53.734375 C 11.539062 53.523438 11.507812 53.199219 11.507812 52.761719 C 11.511719 48.15625 11.515625 43.046875 11.515625 37.429688 C 11.515625 36.96875 11.550781 36.632812 11.617188 36.414062 C 11.941406 35.40625 12.921875 34.65625 13.996094 34.65625 C 21.972656 34.65625 31.980469 34.65625 44.027344 34.65625 C 44.429688 34.65625 44.734375 34.6875 44.941406 34.753906 C 45.765625 35.011719 46.46875 35.6875 46.679688 36.550781 C 46.722656 36.738281 46.746094 37.023438 46.746094 37.402344 C 46.742188 39.199219 46.742188 40.785156 46.746094 42.164062 C 46.746094 42.167969 46.746094 42.175781 46.742188 42.179688 C 46.738281 42.183594 46.734375 42.191406 46.730469 42.195312 C 46.726562 42.199219 46.722656 42.199219 46.714844 42.199219 C 46.710938 42.203125 46.703125 42.203125 46.695312 42.199219 C 46.066406 42.039062 45.433594 41.945312 44.792969 41.921875 C 44.773438 41.921875 44.753906 41.910156 44.742188 41.898438 C 44.726562 41.882812 44.71875 41.867188 44.71875 41.847656 C 44.734375 40.542969 44.738281 39.085938 44.730469 37.476562 C 44.730469 37.179688 44.699219 36.992188 44.648438 36.921875 C 44.460938 36.667969 44.308594 36.632812 43.953125 36.632812 C 35.222656 36.628906 28.519531 36.628906 23.835938 36.628906 C 19.011719 36.632812 15.746094 36.632812 14.042969 36.636719 C 14.023438 36.636719 14.007812 36.640625 13.988281 36.644531 C 13.804688 36.695312 13.667969 36.796875 13.585938 36.949219 C 13.535156 37.046875 13.507812 37.214844 13.507812 37.449219 C 13.511719 47.394531 13.515625 52.574219 13.519531 52.984375 C 13.519531 53.277344 13.671875 53.460938 13.96875 53.53125 C 13.976562 53.53125 13.980469 53.53125 13.988281 53.53125 L 36.214844 53.53125 C 36.222656 53.53125 36.226562 53.535156 36.230469 53.539062 C 36.238281 53.542969 36.242188 53.546875 36.242188 53.554688 C 36.402344 54.027344 36.65625 54.554688 36.996094 55.132812 C 37.078125 55.269531 37.160156 55.382812 37.246094 55.46875 Z M 37.246094 55.46875 " fill-opacity="1" fill-rule="nonzero"/><path fill="#bff747" d="M 21.167969 38.890625 C 21.207031 38.890625 21.296875 38.886719 21.433594 38.871094 C 21.722656 38.847656 22 38.882812 22.265625 38.980469 C 23.371094 39.390625 23.988281 40.277344 23.972656 41.4375 C 23.96875 41.75 23.96875 42.078125 23.972656 42.414062 C 23.972656 42.441406 23.984375 42.460938 24 42.480469 C 24.113281 42.613281 24.179688 42.734375 24.191406 42.84375 C 24.246094 43.292969 24.132812 44.234375 23.578125 44.386719 C 23.566406 44.390625 23.554688 44.398438 23.542969 44.40625 C 23.535156 44.414062 23.527344 44.425781 23.523438 44.441406 C 23.34375 44.960938 23.140625 45.390625 22.757812 45.761719 C 22.75 45.769531 22.742188 45.78125 22.738281 45.792969 C 22.734375 45.800781 22.730469 45.816406 22.730469 45.828125 C 22.734375 46.261719 22.703125 46.585938 22.949219 46.859375 C 23.003906 46.921875 23.136719 46.988281 23.34375 47.058594 C 23.691406 47.175781 24.476562 47.46875 25.703125 47.933594 C 26.082031 48.078125 26.328125 48.203125 26.441406 48.3125 C 26.648438 48.507812 26.808594 48.738281 26.925781 49 C 27 49.160156 27.03125 49.398438 27.03125 49.726562 C 27.023438 50.269531 27.023438 50.636719 27.023438 50.820312 C 27.023438 50.839844 27.019531 50.863281 27.011719 50.886719 C 26.953125 51.023438 26.863281 51.132812 26.742188 51.207031 C 26.675781 51.25 26.539062 51.269531 26.335938 51.273438 C 26.164062 51.273438 24.4375 51.273438 21.164062 51.269531 C 17.890625 51.269531 16.167969 51.269531 15.996094 51.269531 C 15.789062 51.269531 15.65625 51.246094 15.589844 51.207031 C 15.46875 51.128906 15.378906 51.023438 15.320312 50.882812 C 15.308594 50.859375 15.304688 50.839844 15.308594 50.816406 C 15.308594 50.632812 15.304688 50.265625 15.300781 49.722656 C 15.300781 49.398438 15.332031 49.15625 15.40625 48.996094 C 15.523438 48.734375 15.6875 48.507812 15.890625 48.308594 C 16.003906 48.199219 16.25 48.074219 16.628906 47.929688 C 17.855469 47.464844 18.640625 47.175781 18.988281 47.058594 C 19.195312 46.988281 19.328125 46.921875 19.382812 46.859375 C 19.628906 46.585938 19.597656 46.261719 19.601562 45.828125 C 19.601562 45.816406 19.601562 45.804688 19.59375 45.792969 C 19.589844 45.78125 19.582031 45.769531 19.574219 45.761719 C 19.191406 45.390625 18.988281 44.957031 18.808594 44.4375 C 18.804688 44.425781 18.800781 44.414062 18.789062 44.40625 C 18.777344 44.398438 18.765625 44.390625 18.753906 44.386719 C 18.203125 44.234375 18.089844 43.292969 18.144531 42.84375 C 18.15625 42.734375 18.222656 42.613281 18.335938 42.480469 C 18.351562 42.460938 18.359375 42.441406 18.359375 42.414062 C 18.367188 42.074219 18.367188 41.75 18.359375 41.4375 C 18.347656 40.277344 18.964844 39.390625 20.070312 38.980469 C 20.339844 38.882812 20.617188 38.847656 20.902344 38.871094 C 21.039062 38.886719 21.128906 38.890625 21.167969 38.890625 Z M 21.167969 38.890625 " fill-opacity="1" fill-rule="nonzero"/><path fill="#bff747" d="M 36.710938 40.433594 C 36.710938 40.792969 36.445312 41.042969 36.101562 41.042969 C 32.164062 41.046875 29.855469 41.046875 29.179688 41.042969 C 29.074219 41.042969 28.960938 40.96875 28.839844 40.8125 C 28.824219 40.792969 28.816406 40.769531 28.816406 40.742188 C 28.816406 40.667969 28.8125 40.566406 28.8125 40.4375 C 28.8125 40.3125 28.8125 40.210938 28.816406 40.136719 C 28.816406 40.109375 28.824219 40.085938 28.839844 40.066406 C 28.960938 39.910156 29.070312 39.832031 29.175781 39.832031 C 29.855469 39.832031 32.164062 39.828125 36.101562 39.828125 C 36.445312 39.828125 36.710938 40.078125 36.710938 40.433594 Z M 36.710938 40.433594 " fill-opacity="1" fill-rule="nonzero"/><path fill="#bff747" d="M 40.652344 42.796875 C 40.65625 42.808594 40.65625 42.820312 40.648438 42.828125 C 40.644531 42.839844 40.636719 42.847656 40.625 42.851562 C 40.015625 43.066406 39.476562 43.394531 39.015625 43.835938 C 38.992188 43.859375 38.960938 43.871094 38.929688 43.871094 C 36.035156 43.871094 32.796875 43.871094 29.21875 43.871094 C 29.054688 43.871094 28.914062 43.773438 28.796875 43.578125 C 28.789062 43.5625 28.785156 43.546875 28.785156 43.53125 L 28.785156 42.984375 C 28.785156 42.96875 28.789062 42.953125 28.792969 42.941406 C 28.832031 42.832031 28.902344 42.75 29.003906 42.683594 C 29.054688 42.652344 29.164062 42.636719 29.324219 42.636719 C 35.03125 42.628906 38.734375 42.632812 40.441406 42.640625 C 40.542969 42.640625 40.617188 42.691406 40.652344 42.796875 Z M 40.652344 42.796875 " fill-opacity="1" fill-rule="nonzero"/><path fill="#bff747" d="M 51.617188 50.664062 C 51.617188 52.550781 50.867188 54.363281 49.53125 55.699219 C 48.195312 57.035156 46.382812 57.785156 44.496094 57.785156 C 42.605469 57.785156 40.792969 57.035156 39.457031 55.699219 C 38.121094 54.363281 37.371094 52.550781 37.371094 50.664062 C 37.371094 48.773438 38.121094 46.960938 39.457031 45.625 C 40.792969 44.289062 42.605469 43.539062 44.496094 43.539062 C 46.382812 43.539062 48.195312 44.289062 49.53125 45.625 C 50.867188 46.960938 51.617188 48.773438 51.617188 50.664062 Z M 43.183594 51.445312 C 42.636719 50.910156 42.175781 50.4375 41.710938 50.015625 C 41.183594 49.535156 40.78125 49.875 40.398438 50.300781 C 40.15625 50.570312 40.09375 50.84375 40.363281 51.113281 C 41.054688 51.804688 41.761719 52.503906 42.484375 53.214844 C 42.664062 53.394531 42.785156 53.496094 42.839844 53.519531 C 43.210938 53.664062 43.523438 53.609375 43.777344 53.355469 C 46.277344 50.859375 47.835938 49.304688 48.457031 48.695312 C 48.472656 48.679688 48.484375 48.660156 48.492188 48.640625 C 48.503906 48.617188 48.507812 48.59375 48.507812 48.574219 L 48.507812 48.226562 C 48.507812 48.207031 48.5 48.183594 48.488281 48.167969 C 48.277344 47.851562 47.835938 47.378906 47.410156 47.460938 C 47.277344 47.488281 47.128906 47.585938 46.960938 47.761719 C 46.523438 48.207031 45.285156 49.433594 43.25 51.445312 C 43.242188 51.453125 43.230469 51.457031 43.21875 51.457031 C 43.203125 51.457031 43.191406 51.453125 43.183594 51.445312 Z M 43.183594 51.445312 " fill-opacity="1" fill-rule="nonzero"/><path fill="#bff747" d="M 35.796875 46.222656 C 35.796875 46.285156 35.785156 46.347656 35.757812 46.40625 C 35.734375 46.460938 35.699219 46.511719 35.65625 46.558594 C 35.613281 46.601562 35.558594 46.636719 35.503906 46.660156 C 35.445312 46.683594 35.382812 46.695312 35.324219 46.695312 L 29.265625 46.695312 C 29.140625 46.695312 29.019531 46.644531 28.929688 46.558594 C 28.84375 46.46875 28.792969 46.347656 28.792969 46.222656 L 28.792969 45.929688 C 28.792969 45.804688 28.84375 45.683594 28.929688 45.59375 C 29.019531 45.507812 29.140625 45.457031 29.265625 45.457031 L 35.324219 45.457031 C 35.449219 45.457031 35.566406 45.507812 35.65625 45.59375 C 35.746094 45.683594 35.796875 45.804688 35.796875 45.929688 Z M 35.796875 46.222656 " fill-opacity="1" fill-rule="nonzero"/></svg>