<svg xmlns="http://www.w3.org/2000/svg" xmlns:xlink="http://www.w3.org/1999/xlink" width="103" zoomAndPan="magnify" viewBox="0 0 77.25 58.499999" height="78" preserveAspectRatio="xMidYMid meet" version="1.0"><defs><clipPath id="4c8123f496"><path d="M 5 16 L 72 16 L 72 52 L 5 52 Z M 5 16 " clip-rule="nonzero"/></clipPath><clipPath id="8f44ce70be"><path d="M 0 14.460938 L 66.792969 0.015625 L 76.214844 43.574219 L 9.421875 58.019531 Z M 0 14.460938 " clip-rule="nonzero"/></clipPath><clipPath id="e3e9116a05"><path d="M 0 14.460938 L 66.792969 0.015625 L 76.214844 43.574219 L 9.421875 58.019531 Z M 0 14.460938 " clip-rule="nonzero"/></clipPath><clipPath id="d0b1640e62"><path d="M 18 5 L 55 5 L 55 28 L 18 28 Z M 18 5 " clip-rule="nonzero"/></clipPath><clipPath id="7bf45d1e51"><path d="M 0 14.460938 L 66.792969 0.015625 L 76.214844 43.574219 L 9.421875 58.019531 Z M 0 14.460938 " clip-rule="nonzero"/></clipPath><clipPath id="b5f2350543"><path d="M 0 14.460938 L 66.792969 0.015625 L 76.214844 43.574219 L 9.421875 58.019531 Z M 0 14.460938 " clip-rule="nonzero"/></clipPath></defs><g clip-path="url(#4c8123f496)"><g clip-path="url(#8f44ce70be)"><g clip-path="url(#e3e9116a05)"><path fill="#bff747" d="M 40.683594 32.714844 C 44.96875 31.71875 50.238281 29.890625 54.941406 26.667969 C 56.234375 25.785156 57.472656 24.835938 58.550781 23.691406 C 59.566406 22.613281 59.710938 21.734375 59.078125 20.410156 C 58.558594 19.324219 58.003906 18.257812 57.46875 17.179688 C 57.230469 16.703125 57.234375 16.464844 57.910156 16.484375 C 61.410156 16.582031 64.863281 16.894531 68.085938 18.433594 C 68.640625 18.699219 69.152344 19.039062 69.613281 19.453125 C 71.207031 20.875 71.558594 22.667969 70.621094 24.585938 C 69.957031 25.941406 68.984375 27.058594 67.894531 28.082031 C 65.488281 30.347656 62.707031 32.074219 59.808594 33.621094 C 58.832031 34.144531 58.820312 34.125 59.210938 35.148438 C 61.425781 40.996094 56.402344 47.480469 50.339844 46.535156 C 46.804688 45.984375 44.589844 43.804688 43.464844 40.480469 C 43.296875 39.988281 43.148438 39.839844 42.625 39.96875 C 41.28125 40.304688 39.925781 40.585938 38.566406 40.855469 C 38.070312 40.957031 37.871094 41.089844 37.9375 41.691406 C 38.285156 44.96875 37.222656 47.726562 34.582031 49.730469 C 31.054688 52.40625 25.96875 51.558594 23.148438 47.929688 C 21.984375 46.4375 21.417969 44.738281 21.355469 42.875 C 21.339844 42.359375 21.167969 42.242188 20.699219 42.207031 C 17.578125 41.984375 14.476562 41.605469 11.464844 40.710938 C 9.835938 40.230469 8.257812 39.632812 6.882812 38.597656 C 4.878906 37.089844 4.460938 35.023438 5.707031 32.839844 C 6.648438 31.195312 8.070312 30.019531 9.558594 28.925781 C 11.234375 27.695312 13.042969 26.683594 14.90625 25.765625 C 15.4375 25.507812 15.632812 25.558594 15.59375 26.195312 C 15.519531 27.421875 15.511719 28.648438 15.441406 29.875 C 15.359375 31.226562 16.039062 32.0625 17.207031 32.546875 C 19.867188 33.652344 22.671875 34.097656 25.519531 34.261719 C 29.878906 34.515625 33.917969 34.175781 40.683594 32.714844 Z M 40.683594 32.714844 " fill-opacity="1" fill-rule="nonzero"/></g></g></g><g clip-path="url(#d0b1640e62)"><g clip-path="url(#7bf45d1e51)"><g clip-path="url(#b5f2350543)"><path fill="#bff747" d="M 37.4375 26.5625 C 32.949219 27.5 28.425781 27.902344 23.851562 27.367188 C 22.371094 27.195312 20.921875 26.882812 19.53125 26.324219 C 19.070312 26.140625 18.703125 25.945312 18.726562 25.304688 C 18.867188 21.46875 18.949219 17.628906 19.214844 13.800781 C 19.375 11.492188 20.984375 9.988281 23.304688 9.796875 C 25.335938 9.625 27.277344 10.011719 29.207031 10.550781 C 30.121094 10.804688 31.03125 11.074219 31.929688 11.363281 C 33.601562 11.898438 35.074219 11.667969 36.414062 10.453125 C 37.796875 9.199219 39.171875 7.925781 40.738281 6.890625 C 42.027344 6.039062 43.359375 5.289062 44.945312 5.152344 C 46.769531 4.996094 48.125 5.714844 49.011719 7.3125 C 50.460938 9.929688 51.746094 12.628906 53.089844 15.300781 C 53.492188 16.101562 53.84375 16.925781 54.277344 17.710938 C 54.492188 18.101562 54.414062 18.335938 54.136719 18.644531 C 52.605469 20.347656 50.714844 21.566406 48.707031 22.601562 C 45.136719 24.445312 41.375 25.75 37.4375 26.5625 Z M 37.4375 26.5625 " fill-opacity="1" fill-rule="nonzero"/></g></g></g></svg>