<svg xmlns="http://www.w3.org/2000/svg" xmlns:xlink="http://www.w3.org/1999/xlink" width="45" zoomAndPan="magnify" viewBox="0 0 33.75 42.749999" height="57" preserveAspectRatio="xMidYMid meet" version="1.0"><defs><clipPath id="a9dc691e4d"><path d="M 0 0.03125 L 33.5 0.03125 L 33.5 40.980469 L 0 40.980469 Z M 0 0.03125 " clip-rule="nonzero"/></clipPath></defs><g clip-path="url(#a9dc691e4d)"><path fill="#bff747" d="M 32.914062 5.109375 L 29.839844 4.925781 C 25.816406 4.691406 22.09375 3.472656 18.769531 1.304688 L 16.984375 0.140625 C 16.816406 0.03125 16.597656 0.03125 16.429688 0.140625 L 14.648438 1.304688 C 11.324219 3.46875 7.597656 4.6875 3.578125 4.925781 L 0.503906 5.109375 C 0.234375 5.125 0.0234375 5.34375 0.0234375 5.613281 L 0.0234375 19.847656 C 0.0234375 23.953125 1.53125 28.28125 4.265625 32.039062 C 6.933594 35.699219 10.542969 38.542969 14.429688 40.042969 C 14.820312 40.195312 15.175781 40.324219 15.519531 40.4375 L 16.546875 40.78125 C 16.597656 40.796875 16.652344 40.804688 16.707031 40.804688 C 16.761719 40.804688 16.816406 40.796875 16.867188 40.78125 L 17.898438 40.4375 C 18.242188 40.324219 18.597656 40.195312 18.984375 40.042969 C 22.875 38.542969 26.484375 35.703125 29.148438 32.039062 C 31.882812 28.28125 33.390625 23.953125 33.390625 19.847656 L 33.390625 5.613281 C 33.390625 5.347656 33.179688 5.125 32.914062 5.109375 Z M 32.375 19.847656 C 32.375 27.796875 26.464844 36.070312 18.621094 39.097656 C 18.246094 39.242188 17.90625 39.367188 17.578125 39.472656 L 16.707031 39.765625 L 15.839844 39.476562 C 15.511719 39.367188 15.167969 39.242188 14.792969 39.097656 C 6.953125 36.074219 1.039062 27.796875 1.039062 19.847656 L 1.039062 6.09375 L 3.636719 5.941406 C 7.835938 5.691406 11.730469 4.417969 15.203125 2.152344 L 16.707031 1.171875 L 18.214844 2.152344 C 21.6875 4.417969 25.578125 5.691406 29.78125 5.941406 L 32.375 6.09375 Z M 29.414062 8.40625 C 24.902344 8.136719 20.722656 6.769531 16.984375 4.335938 C 16.816406 4.222656 16.601562 4.222656 16.433594 4.335938 C 12.699219 6.769531 8.515625 8.140625 4.003906 8.40625 C 3.738281 8.421875 3.527344 8.640625 3.527344 8.910156 L 3.527344 19.863281 C 3.527344 23.25 4.804688 26.855469 7.128906 30.015625 C 9.382812 33.089844 12.402344 35.464844 15.621094 36.710938 C 15.957031 36.839844 16.257812 36.949219 16.550781 37.042969 C 16.601562 37.0625 16.65625 37.070312 16.707031 37.070312 C 16.761719 37.070312 16.816406 37.0625 16.867188 37.042969 C 17.15625 36.949219 17.460938 36.839844 17.792969 36.710938 C 21.015625 35.464844 24.03125 33.089844 26.289062 30.015625 C 28.613281 26.855469 29.890625 23.25 29.890625 19.863281 L 29.890625 8.910156 C 29.890625 8.640625 29.683594 8.421875 29.414062 8.40625 Z M 28.875 19.863281 C 28.875 26.304688 23.847656 33.285156 17.429688 35.761719 C 17.171875 35.863281 16.933594 35.949219 16.707031 36.027344 C 16.484375 35.949219 16.246094 35.863281 15.988281 35.761719 C 9.570312 33.285156 4.542969 26.304688 4.542969 19.863281 L 4.542969 9.382812 C 8.9375 9.050781 13.027344 7.699219 16.707031 5.363281 C 20.390625 7.699219 24.480469 9.050781 28.875 9.382812 Z M 12.398438 15.996094 L 12.398438 18.140625 L 11.882812 18.140625 C 11.105469 18.140625 10.476562 18.773438 10.476562 19.550781 L 10.476562 27.3125 C 10.476562 28.59375 11.515625 29.632812 12.796875 29.632812 L 20.621094 29.632812 C 21.898438 29.632812 22.941406 28.59375 22.941406 27.3125 L 22.941406 19.550781 C 22.941406 18.773438 22.308594 18.140625 21.53125 18.140625 L 21.019531 18.140625 L 21.019531 15.996094 C 21.019531 13.617188 19.085938 11.6875 16.707031 11.6875 C 14.332031 11.6875 12.398438 13.617188 12.398438 15.996094 Z M 21.925781 19.550781 L 21.925781 27.3125 C 21.925781 28.035156 21.339844 28.621094 20.621094 28.621094 L 12.796875 28.621094 C 12.078125 28.621094 11.488281 28.035156 11.488281 27.3125 L 11.488281 19.550781 C 11.488281 19.332031 11.667969 19.15625 11.882812 19.15625 L 21.53125 19.15625 C 21.75 19.15625 21.925781 19.332031 21.925781 19.550781 Z M 20.003906 15.996094 L 20.003906 18.140625 L 13.410156 18.140625 L 13.410156 15.996094 C 13.410156 14.179688 14.890625 12.699219 16.710938 12.699219 C 18.527344 12.699219 20.003906 14.179688 20.003906 15.996094 Z M 13.671875 24.625 C 13.46875 24.433594 13.460938 24.109375 13.652344 23.90625 C 13.847656 23.707031 14.167969 23.695312 14.371094 23.890625 L 15.785156 25.230469 L 19.011719 21.480469 C 19.195312 21.269531 19.515625 21.246094 19.726562 21.425781 C 19.941406 21.609375 19.964844 21.929688 19.78125 22.144531 L 16.207031 26.296875 C 16.117188 26.402344 15.988281 26.464844 15.847656 26.472656 C 15.839844 26.472656 15.832031 26.472656 15.824219 26.472656 C 15.691406 26.472656 15.566406 26.421875 15.472656 26.332031 Z M 13.671875 24.625 " fill-opacity="1" fill-rule="nonzero"/></g></svg>