<svg xmlns="http://www.w3.org/2000/svg" xmlns:xlink="http://www.w3.org/1999/xlink" width="52" zoomAndPan="magnify" viewBox="0 0 39 38.999999" height="52" preserveAspectRatio="xMidYMid meet" version="1.0"><defs><clipPath id="fc98e47951"><path d="M 0 33 L 38.25 33 L 38.25 38.25 L 0 38.25 Z M 0 33 " clip-rule="nonzero"/></clipPath></defs><g clip-path="url(#fc98e47951)"><path fill="#bff747" d="M 36.050781 38.078125 L 2.4375 38.078125 C 1.082031 38.078125 0 36.972656 0 35.644531 C 0 34.289062 1.082031 33.183594 2.4375 33.183594 L 36.050781 33.183594 C 37.402344 33.183594 38.507812 34.289062 38.507812 35.644531 C 38.507812 36.972656 37.402344 38.078125 36.050781 38.078125 Z M 2.4375 33.949219 C 1.511719 33.949219 0.746094 34.695312 0.746094 35.644531 C 0.746094 36.566406 1.511719 37.3125 2.4375 37.3125 L 36.050781 37.3125 C 36.972656 37.3125 37.742188 36.566406 37.742188 35.644531 C 37.742188 34.695312 36.972656 33.949219 36.050781 33.949219 Z M 2.4375 33.949219 " fill-opacity="1" fill-rule="evenodd"/></g><path fill="#bff747" d="M 28.875 16.917969 L 24.925781 16.917969 C 24.722656 16.917969 24.542969 16.761719 24.542969 16.558594 C 24.542969 16.355469 24.722656 16.175781 24.925781 16.175781 L 28.875 16.175781 C 29.078125 16.175781 29.257812 15.996094 29.257812 15.792969 L 29.257812 15.023438 C 29.257812 14.820312 29.4375 14.640625 29.640625 14.640625 C 29.84375 14.640625 30.027344 14.820312 30.027344 15.023438 L 30.027344 15.792969 C 30.027344 16.421875 29.507812 16.917969 28.875 16.917969 Z M 28.875 16.917969 " fill-opacity="1" fill-rule="evenodd"/><path fill="#bff747" d="M 23.800781 18.09375 C 22.964844 18.09375 22.265625 17.394531 22.265625 16.558594 C 22.265625 15.722656 22.964844 15.046875 23.800781 15.046875 C 24.632812 15.046875 25.3125 15.699219 25.3125 16.558594 C 25.3125 17.394531 24.632812 18.09375 23.800781 18.09375 Z M 23.800781 15.8125 C 23.371094 15.8125 23.03125 16.128906 23.03125 16.558594 C 23.03125 16.988281 23.371094 17.324219 23.800781 17.324219 C 24.207031 17.324219 24.542969 16.988281 24.542969 16.558594 C 24.542969 16.128906 24.226562 15.8125 23.800781 15.8125 Z M 23.800781 15.8125 " fill-opacity="1" fill-rule="evenodd"/><path fill="#bff747" d="M 18.519531 15.40625 L 17.144531 15.40625 C 16.511719 15.40625 15.972656 14.867188 15.972656 14.234375 L 15.972656 12.925781 C 15.972656 12.273438 16.492188 11.730469 17.144531 11.730469 L 18.5 11.730469 C 18.703125 11.730469 18.882812 11.910156 18.882812 12.113281 C 18.882812 12.316406 18.703125 12.476562 18.5 12.476562 L 17.144531 12.476562 C 16.917969 12.476562 16.714844 12.679688 16.714844 12.925781 L 16.714844 14.234375 C 16.714844 14.460938 16.917969 14.640625 17.144531 14.640625 L 18.519531 14.640625 C 18.722656 14.640625 18.882812 14.820312 18.882812 15.023438 C 18.882812 15.226562 18.722656 15.40625 18.519531 15.40625 Z M 18.519531 15.40625 " fill-opacity="1" fill-rule="evenodd"/><path fill="#bff747" d="M 34.742188 33.949219 C 34.539062 33.949219 34.355469 33.769531 34.355469 33.566406 L 34.355469 29.4375 C 34.355469 27.320312 33.433594 26.214844 31.921875 25.109375 C 31.761719 24.996094 31.71875 24.746094 31.832031 24.589844 C 31.964844 24.429688 32.191406 24.386719 32.371094 24.5 C 33.792969 25.558594 35.125 26.867188 35.125 29.4375 L 35.125 33.566406 C 35.125 33.769531 34.945312 33.949219 34.742188 33.949219 Z M 12.070312 33.949219 C 11.867188 33.949219 11.683594 33.769531 11.683594 33.566406 L 11.683594 29.4375 C 11.683594 26.867188 13.015625 25.535156 14.460938 24.5 C 14.640625 24.386719 14.867188 24.429688 14.980469 24.589844 C 15.113281 24.769531 15.070312 24.996094 14.910156 25.109375 C 13.378906 26.214844 12.429688 27.320312 12.429688 29.4375 L 12.429688 33.566406 C 12.429688 33.769531 12.273438 33.949219 12.070312 33.949219 Z M 12.070312 33.949219 " fill-opacity="1" fill-rule="evenodd"/><path fill="#bff747" d="M 28.289062 11.574219 C 28.085938 11.574219 27.90625 11.414062 27.90625 11.210938 L 27.90625 11.054688 C 27.90625 10.421875 27.679688 9.949219 27.25 9.632812 C 26.507812 9.136719 25.152344 9.179688 23.730469 9.746094 C 21.792969 10.558594 19.761719 10.308594 18.882812 10.128906 L 18.882812 11.210938 C 18.882812 11.414062 18.703125 11.574219 18.5 11.574219 C 18.296875 11.574219 18.113281 11.414062 18.113281 11.210938 L 18.113281 9.65625 C 18.113281 9.542969 18.183594 9.429688 18.273438 9.339844 C 18.363281 9.273438 18.476562 9.25 18.589844 9.292969 C 18.632812 9.292969 21.136719 10.015625 23.4375 9.046875 C 25.128906 8.371094 26.710938 8.371094 27.65625 9.023438 C 28.3125 9.453125 28.671875 10.152344 28.671875 11.054688 L 28.671875 11.210938 C 28.671875 11.414062 28.492188 11.574219 28.289062 11.574219 Z M 28.289062 11.574219 " fill-opacity="1" fill-rule="evenodd"/><path fill="#bff747" d="M 20.234375 21.386719 C 20.03125 21.386719 19.851562 21.207031 19.851562 21.003906 L 19.851562 18.476562 C 19.851562 18.273438 20.03125 18.09375 20.234375 18.09375 C 20.4375 18.09375 20.617188 18.273438 20.617188 18.476562 L 20.617188 21.003906 C 20.617188 21.207031 20.4375 21.386719 20.234375 21.386719 Z M 20.234375 21.386719 " fill-opacity="1" fill-rule="evenodd"/><path fill="#bff747" d="M 26.597656 21.386719 C 26.394531 21.386719 26.214844 21.207031 26.214844 21.003906 L 26.214844 18.453125 C 26.214844 18.25 26.394531 18.070312 26.597656 18.070312 C 26.800781 18.070312 26.980469 18.25 26.980469 18.453125 L 26.980469 21.003906 C 26.980469 21.207031 26.800781 21.386719 26.597656 21.386719 Z M 26.597656 21.386719 " fill-opacity="1" fill-rule="evenodd"/><path fill="#bff747" d="M 23.753906 19.828125 L 23.03125 19.828125 C 20.324219 19.828125 18.113281 17.617188 18.113281 14.910156 L 18.113281 11.210938 C 18.113281 11.007812 18.296875 10.828125 18.5 10.828125 C 18.703125 10.828125 18.882812 11.007812 18.882812 11.210938 L 18.882812 14.910156 C 18.882812 17.191406 20.730469 19.0625 23.03125 19.0625 L 23.753906 19.0625 C 26.03125 19.0625 27.90625 17.191406 27.90625 14.910156 L 27.90625 11.210938 C 27.90625 11.007812 28.085938 10.828125 28.289062 10.828125 C 28.492188 10.828125 28.671875 11.007812 28.671875 11.210938 L 28.671875 14.910156 C 28.671875 17.617188 26.460938 19.828125 23.753906 19.828125 Z M 23.753906 19.828125 " fill-opacity="1" fill-rule="evenodd"/><path fill="#bff747" d="M 21.070312 13.714844 C 20.867188 13.714844 20.6875 13.558594 20.6875 13.355469 L 20.6875 13.0625 C 20.6875 12.859375 20.867188 12.679688 21.070312 12.679688 C 21.273438 12.679688 21.429688 12.859375 21.429688 13.0625 L 21.429688 13.355469 C 21.453125 13.558594 21.273438 13.714844 21.070312 13.714844 Z M 21.070312 13.714844 " fill-opacity="1" fill-rule="evenodd"/><path fill="#bff747" d="M 25.738281 13.714844 C 25.535156 13.714844 25.355469 13.558594 25.355469 13.355469 L 25.355469 13.0625 C 25.355469 12.859375 25.535156 12.679688 25.738281 12.679688 C 25.941406 12.679688 26.125 12.859375 26.125 13.0625 L 26.125 13.355469 C 26.125 13.558594 25.941406 13.714844 25.738281 13.714844 Z M 25.738281 13.714844 " fill-opacity="1" fill-rule="evenodd"/><path fill="#bff747" d="M 29.640625 15.40625 L 28.289062 15.40625 C 28.085938 15.40625 27.90625 15.226562 27.90625 15.023438 C 27.90625 14.820312 28.085938 14.640625 28.289062 14.640625 L 29.640625 14.640625 C 29.867188 14.640625 30.046875 14.460938 30.046875 14.234375 L 30.046875 12.925781 C 30.046875 12.679688 29.867188 12.476562 29.640625 12.476562 L 28.289062 12.476562 C 28.085938 12.476562 27.90625 12.316406 27.90625 12.113281 C 27.90625 11.910156 28.085938 11.730469 28.289062 11.730469 L 29.640625 11.730469 C 30.273438 11.730469 30.816406 12.273438 30.816406 12.925781 L 30.816406 14.234375 C 30.816406 14.867188 30.273438 15.40625 29.640625 15.40625 Z M 29.640625 15.40625 " fill-opacity="1" fill-rule="evenodd"/><path fill="#bff747" d="M 29.371094 12.496094 C 29.328125 12.496094 29.304688 12.476562 29.28125 12.476562 C 29.078125 12.429688 28.941406 12.203125 29.011719 12.023438 C 29.28125 11.007812 30.003906 7.625 28.175781 6.585938 C 28.019531 6.496094 27.929688 6.316406 27.996094 6.136719 C 28.085938 5.910156 28.128906 5.617188 28.109375 5.414062 C 27.589844 5.550781 26.621094 5.683594 25.761719 5.300781 C 25.671875 5.257812 25.605469 5.1875 25.558594 5.097656 C 25.535156 4.984375 25.535156 4.894531 25.582031 4.804688 C 25.582031 4.761719 25.898438 4.039062 25.46875 3.226562 C 24.996094 3.65625 24.09375 4.375 22.917969 4.511719 C 22.109375 4.625 19.378906 5.074219 18.09375 7.039062 C 17.300781 8.234375 17.191406 9.835938 17.777344 11.777344 C 17.777344 11.796875 17.777344 11.820312 17.777344 11.84375 C 17.777344 11.84375 17.800781 11.867188 17.800781 11.867188 C 17.800781 11.886719 17.800781 11.910156 17.820312 11.933594 C 17.890625 12.113281 17.777344 12.339844 17.574219 12.40625 C 17.371094 12.476562 17.167969 12.363281 17.097656 12.160156 C 17.097656 12.136719 17.097656 12.136719 17.078125 12.113281 C 17.078125 12.070312 17.054688 12.023438 17.03125 11.957031 C 16.398438 9.8125 16.558594 8.007812 17.460938 6.609375 C 18.925781 4.398438 21.949219 3.878906 22.828125 3.765625 C 24.207031 3.609375 25.199219 2.390625 25.21875 2.367188 C 25.289062 2.277344 25.402344 2.234375 25.515625 2.234375 C 25.625 2.234375 25.738281 2.277344 25.808594 2.367188 C 26.550781 3.292969 26.484375 4.21875 26.371094 4.738281 C 27.25 4.964844 28.222656 4.601562 28.222656 4.601562 C 28.378906 4.558594 28.558594 4.601562 28.648438 4.738281 C 28.964844 5.121094 28.875 5.730469 28.785156 6.089844 C 29.664062 6.722656 30.117188 7.851562 30.117188 9.363281 C 30.136719 10.511719 29.890625 11.640625 29.734375 12.203125 C 29.6875 12.382812 29.53125 12.496094 29.371094 12.496094 Z M 29.371094 12.496094 " fill-opacity="1" fill-rule="evenodd"/><path fill="#bff747" d="M 16.355469 13.941406 L 15.136719 13.941406 C 14.933594 13.941406 14.753906 13.785156 14.753906 13.582031 C 14.753906 13.378906 14.933594 13.195312 15.136719 13.195312 L 16.355469 13.195312 C 16.558594 13.195312 16.714844 13.378906 16.714844 13.582031 C 16.714844 13.785156 16.558594 13.941406 16.355469 13.941406 Z M 16.355469 13.941406 " fill-opacity="1" fill-rule="evenodd"/><path fill="#bff747" d="M 31.648438 13.941406 L 30.433594 13.941406 C 30.230469 13.941406 30.046875 13.785156 30.046875 13.582031 C 30.046875 13.378906 30.230469 13.195312 30.433594 13.195312 L 31.648438 13.195312 C 31.851562 13.195312 32.035156 13.378906 32.035156 13.582031 C 32.035156 13.785156 31.851562 13.941406 31.648438 13.941406 Z M 31.648438 13.941406 " fill-opacity="1" fill-rule="evenodd"/><path fill="#bff747" d="M 14.617188 10.332031 C 14.59375 10.332031 14.574219 10.332031 14.550781 10.332031 C 14.347656 10.308594 14.210938 10.105469 14.234375 9.902344 L 14.753906 6.382812 C 15 4.761719 15.679688 3.292969 16.695312 2.210938 C 17.800781 1.058594 19.21875 0.429688 20.800781 0.429688 L 25.988281 0.429688 C 27.566406 0.429688 28.988281 1.058594 30.09375 2.210938 C 31.085938 3.292969 31.785156 4.761719 32.011719 6.382812 L 32.53125 9.902344 C 32.574219 10.105469 32.417969 10.308594 32.214844 10.332031 C 32.011719 10.378906 31.832031 10.21875 31.785156 10.015625 L 31.265625 6.496094 C 30.882812 3.859375 29.101562 1.171875 25.988281 1.171875 L 20.800781 1.171875 C 17.6875 1.171875 15.902344 3.859375 15.496094 6.496094 L 14.980469 10.015625 C 14.957031 10.21875 14.796875 10.332031 14.617188 10.332031 Z M 14.617188 10.332031 " fill-opacity="1" fill-rule="evenodd"/><path fill="#bff747" d="M 14.503906 12.089844 C 13.804688 12.089844 13.242188 11.550781 13.242188 10.851562 C 13.242188 10.152344 13.804688 9.585938 14.503906 9.585938 C 15.203125 9.585938 15.746094 10.152344 15.746094 10.851562 C 15.746094 11.550781 15.203125 12.089844 14.503906 12.089844 Z M 14.503906 10.332031 C 14.210938 10.332031 13.988281 10.558594 13.988281 10.851562 C 13.988281 11.144531 14.210938 11.347656 14.503906 11.347656 C 14.777344 11.347656 15 11.121094 15 10.851562 C 15 10.578125 14.777344 10.332031 14.503906 10.332031 Z M 14.503906 10.332031 " fill-opacity="1" fill-rule="evenodd"/><path fill="#bff747" d="M 15.136719 13.941406 C 14.957031 13.941406 14.796875 13.828125 14.777344 13.671875 L 14.347656 11.796875 C 14.300781 11.59375 14.414062 11.390625 14.617188 11.347656 C 14.820312 11.300781 15.023438 11.414062 15.070312 11.617188 L 15.496094 13.488281 C 15.542969 13.691406 15.429688 13.894531 15.226562 13.941406 C 15.183594 13.941406 15.160156 13.941406 15.136719 13.941406 Z M 15.136719 13.941406 " fill-opacity="1" fill-rule="evenodd"/><path fill="#bff747" d="M 31.648438 13.941406 C 31.628906 13.941406 31.582031 13.941406 31.558594 13.941406 C 31.355469 13.894531 31.222656 13.691406 31.289062 13.488281 L 31.738281 11.617188 C 31.785156 11.414062 31.988281 11.28125 32.191406 11.347656 C 32.394531 11.390625 32.507812 11.59375 32.460938 11.796875 L 32.011719 13.671875 C 31.964844 13.828125 31.808594 13.941406 31.648438 13.941406 Z M 31.648438 13.941406 " fill-opacity="1" fill-rule="evenodd"/><path fill="#bff747" d="M 32.28125 12.089844 C 31.582031 12.089844 31.019531 11.550781 31.019531 10.851562 C 31.019531 10.152344 31.582031 9.585938 32.28125 9.585938 C 32.980469 9.585938 33.566406 10.152344 33.566406 10.851562 C 33.566406 11.550781 32.980469 12.089844 32.28125 12.089844 Z M 32.28125 10.332031 C 32.011719 10.332031 31.785156 10.578125 31.785156 10.851562 C 31.785156 11.121094 32.011719 11.347656 32.28125 11.347656 C 32.574219 11.347656 32.800781 11.121094 32.800781 10.851562 C 32.800781 10.558594 32.574219 10.332031 32.28125 10.332031 Z M 32.28125 10.332031 " fill-opacity="1" fill-rule="evenodd"/><path fill="#bff747" d="M 32.144531 33.949219 C 31.941406 33.949219 31.761719 33.769531 31.761719 33.566406 L 31.761719 23.324219 C 31.761719 22.265625 30.882812 21.386719 29.824219 21.386719 L 17.007812 21.386719 C 15.925781 21.386719 15.046875 22.242188 15.046875 23.324219 L 15.046875 33.566406 C 15.046875 33.769531 14.890625 33.949219 14.6875 33.949219 C 14.484375 33.949219 14.300781 33.769531 14.300781 33.566406 L 14.300781 23.324219 C 14.300781 21.835938 15.519531 20.617188 17.007812 20.617188 L 29.824219 20.617188 C 31.289062 20.617188 32.53125 21.859375 32.53125 23.324219 L 32.53125 33.566406 C 32.53125 33.769531 32.347656 33.949219 32.144531 33.949219 Z M 32.144531 33.949219 " fill-opacity="1" fill-rule="evenodd"/><path fill="#bff747" d="M 23.414062 30.769531 C 21.5 30.769531 19.941406 29.214844 19.941406 27.296875 C 19.941406 25.378906 21.5 23.820312 23.414062 23.820312 C 25.332031 23.820312 26.890625 25.378906 26.890625 27.296875 C 26.890625 29.214844 25.332031 30.769531 23.414062 30.769531 Z M 23.414062 24.589844 C 21.90625 24.589844 20.6875 25.785156 20.6875 27.296875 C 20.6875 28.785156 21.90625 30.003906 23.414062 30.003906 C 24.90625 30.003906 26.125 28.785156 26.125 27.296875 C 26.125 25.785156 24.90625 24.589844 23.414062 24.589844 Z M 23.414062 24.589844 " fill-opacity="1" fill-rule="evenodd"/><path fill="#bff747" d="M 9.585938 10.78125 L 5.210938 10.78125 C 5.007812 10.78125 4.828125 10.625 4.828125 10.421875 C 4.828125 10.21875 5.007812 10.039062 5.210938 10.039062 L 9.585938 10.039062 C 9.789062 10.039062 9.949219 10.21875 9.949219 10.421875 C 9.949219 10.625 9.789062 10.78125 9.585938 10.78125 Z M 9.585938 10.78125 " fill-opacity="1" fill-rule="evenodd"/><path fill="#bff747" d="M 3.359375 10.78125 L 2.957031 10.78125 C 2.753906 10.78125 2.570312 10.625 2.570312 10.421875 C 2.570312 10.21875 2.753906 10.039062 2.957031 10.039062 L 3.359375 10.039062 C 3.5625 10.039062 3.722656 10.21875 3.722656 10.421875 C 3.722656 10.625 3.5625 10.78125 3.359375 10.78125 Z M 3.359375 10.78125 " fill-opacity="1" fill-rule="evenodd"/><path fill="#bff747" d="M 9.585938 13.039062 L 5.210938 13.039062 C 5.007812 13.039062 4.828125 12.882812 4.828125 12.679688 C 4.828125 12.476562 5.007812 12.292969 5.210938 12.292969 L 9.585938 12.292969 C 9.789062 12.292969 9.949219 12.476562 9.949219 12.679688 C 9.949219 12.882812 9.789062 13.039062 9.585938 13.039062 Z M 9.585938 13.039062 " fill-opacity="1" fill-rule="evenodd"/><path fill="#bff747" d="M 3.359375 13.039062 L 2.957031 13.039062 C 2.753906 13.039062 2.570312 12.882812 2.570312 12.679688 C 2.570312 12.476562 2.753906 12.292969 2.957031 12.292969 L 3.359375 12.292969 C 3.5625 12.292969 3.722656 12.476562 3.722656 12.679688 C 3.722656 12.882812 3.5625 13.039062 3.359375 13.039062 Z M 3.359375 13.039062 " fill-opacity="1" fill-rule="evenodd"/><path fill="#bff747" d="M 9.585938 15.339844 L 5.210938 15.339844 C 5.007812 15.339844 4.828125 15.160156 4.828125 14.957031 C 4.828125 14.753906 5.007812 14.574219 5.210938 14.574219 L 9.585938 14.574219 C 9.789062 14.574219 9.949219 14.753906 9.949219 14.957031 C 9.949219 15.160156 9.789062 15.339844 9.585938 15.339844 Z M 9.585938 15.339844 " fill-opacity="1" fill-rule="evenodd"/><path fill="#bff747" d="M 3.359375 15.339844 L 2.957031 15.339844 C 2.753906 15.339844 2.570312 15.160156 2.570312 14.957031 C 2.570312 14.753906 2.753906 14.574219 2.957031 14.574219 L 3.359375 14.574219 C 3.5625 14.574219 3.722656 14.753906 3.722656 14.957031 C 3.722656 15.160156 3.5625 15.339844 3.359375 15.339844 Z M 3.359375 15.339844 " fill-opacity="1" fill-rule="evenodd"/><path fill="#bff747" d="M 10.511719 20.144531 C 10.378906 20.144531 10.265625 20.078125 10.195312 19.964844 L 8.371094 17.394531 L 1.738281 17.394531 C 0.8125 17.394531 0.0664062 16.625 0.0664062 15.722656 L 0.0664062 9.65625 C 0.0664062 8.730469 0.8125 7.984375 1.738281 7.984375 L 10.804688 7.984375 C 11.730469 7.984375 12.429688 8.730469 12.429688 9.65625 L 12.429688 15.722656 C 12.429688 16.625 11.753906 17.347656 10.875 17.371094 L 10.875 19.761719 C 10.875 19.917969 10.78125 20.078125 10.625 20.121094 C 10.578125 20.121094 10.535156 20.144531 10.511719 20.144531 Z M 1.738281 8.730469 C 1.242188 8.730469 0.8125 9.160156 0.8125 9.65625 L 0.8125 15.722656 C 0.8125 16.21875 1.242188 16.625 1.738281 16.625 L 8.574219 16.625 C 8.683594 16.625 8.796875 16.695312 8.867188 16.785156 L 10.128906 18.566406 L 10.128906 17.007812 C 10.128906 16.804688 10.308594 16.625 10.511719 16.625 L 10.804688 16.625 C 11.300781 16.625 11.683594 16.21875 11.683594 15.722656 L 11.683594 9.65625 C 11.683594 9.136719 11.300781 8.730469 10.804688 8.730469 Z M 1.738281 8.730469 " fill-opacity="1" fill-rule="evenodd"/></svg>